<?xml version="1.0" encoding="utf-8" standalone="no"?>
<!DOCTYPE svg PUBLIC "-//W3C//DTD SVG 1.1//EN"
  "http://www.w3.org/Graphics/SVG/1.1/DTD/svg11.dtd">
<svg xmlns:xlink="http://www.w3.org/1999/xlink" width="1152pt" height="432pt" viewBox="0 0 1152 432" xmlns="http://www.w3.org/2000/svg" version="1.1">
 <metadata>
  <rdf:RDF xmlns:dc="http://purl.org/dc/elements/1.1/" xmlns:cc="http://creativecommons.org/ns#" xmlns:rdf="http://www.w3.org/1999/02/22-rdf-syntax-ns#">
   <cc:Work>
    <dc:type rdf:resource="http://purl.org/dc/dcmitype/StillImage"/>
    <dc:date>2026-04-16T17:00:08.481726</dc:date>
    <dc:format>image/svg+xml</dc:format>
    <dc:creator>
     <cc:Agent>
      <dc:title>Matplotlib v3.10.8, https://matplotlib.org/</dc:title>
     </cc:Agent>
    </dc:creator>
   </cc:Work>
  </rdf:RDF>
 </metadata>
 <defs>
  <style type="text/css">*{stroke-linejoin: round; stroke-linecap: butt}</style>
 </defs>
 <g id="figure_1">
  <g id="patch_1">
   <path d="M 0 432 
L 1152 432 
L 1152 0 
L 0 0 
z
" style="fill: #ffffff"/>
  </g>
  <g id="axes_1">
   <g id="patch_2">
    <path d="M 126.204259 343.299455 
L 570.6 343.299455 
L 570.6 24.82125 
L 126.204259 24.82125 
z
" style="fill: #ffffff"/>
   </g>
   <g id="patch_3">
    <path d="M 146.404066 343.299455 
L 197.256725 343.299455 
L 197.256725 83.882272 
L 146.404066 83.882272 
z
" clip-path="url(#pbea52c2177)" style="fill: #3a6ea5"/>
   </g>
   <g id="patch_4">
    <path d="M 217.032759 343.299455 
L 267.885419 343.299455 
L 267.885419 86.151264 
L 217.032759 86.151264 
z
" clip-path="url(#pbea52c2177)" style="fill: #557c55"/>
   </g>
   <g id="patch_5">
    <path d="M 287.661453 343.299455 
L 338.514113 343.299455 
L 338.514113 75.870568 
L 287.661453 75.870568 
z
" clip-path="url(#pbea52c2177)" style="fill: #7aa95c"/>
   </g>
   <g id="patch_6">
    <path d="M 358.290147 343.299455 
L 409.142806 343.299455 
L 409.142806 73.744849 
L 358.290147 73.744849 
z
" clip-path="url(#pbea52c2177)" style="fill: #9bc53d"/>
   </g>
   <g id="patch_7">
    <path d="M 428.91884 343.299455 
L 479.7715 343.299455 
L 479.7715 95.369989 
L 428.91884 95.369989 
z
" clip-path="url(#pbea52c2177)" style="fill: #db9d47"/>
   </g>
   <g id="patch_8">
    <path d="M 499.547534 343.299455 
L 550.400194 343.299455 
L 550.400194 74.392872 
L 499.547534 74.392872 
z
" clip-path="url(#pbea52c2177)" style="fill: #2f855a"/>
   </g>
   <g id="matplotlib.axis_1">
    <g id="xtick_1">
     <g id="line2d_1">
      <defs>
       <path id="m71df5aa59c" d="M 0 0 
L 0 3.5 
" style="stroke: #000000; stroke-width: 0.8"/>
      </defs>
      <g>
       <use xlink:href="#m71df5aa59c" x="171.830395" y="343.299455" style="stroke: #000000; stroke-width: 0.8"/>
      </g>
     </g>
     <g id="text_1">
      <!-- 主流方案 B（RRF + Rerank Top20） -->
      <g transform="translate(17.361977 408.399744) rotate(-18) scale(0.1 -0.1)">
       <defs>
        <path id="SourceHanSansSC-Regular-4e3b" d="M 2784 5350 
L 2394 5088 
C 2784 4800 3232 4390 3488 4096 
L 659 4096 
L 659 3629 
L 2938 3629 
L 2938 2221 
L 954 2221 
L 954 1754 
L 2938 1754 
L 2938 173 
L 358 173 
L 358 -294 
L 6067 -294 
L 6067 173 
L 3456 173 
L 3456 1754 
L 5478 1754 
L 5478 2221 
L 3456 2221 
L 3456 3629 
L 5741 3629 
L 5741 4096 
L 3661 4096 
L 3968 4320 
C 3712 4627 3194 5056 2784 5350 
z
" transform="scale(0.015625)"/>
        <path id="SourceHanSansSC-Regular-6d41" d="M 4122 2310 
L 3693 2310 
L 3693 -237 
L 4122 -237 
L 4122 2310 
z
M 2995 1645 
L 2995 2317 
L 2560 2317 
L 2560 1658 
C 2560 1069 2477 358 1690 -179 
C 1798 -250 1958 -397 2029 -493 
C 2893 122 2995 947 2995 1645 
z
M 5280 237 
L 5280 2317 
L 4832 2317 
L 4832 282 
C 4832 -102 4864 -205 4960 -294 
C 5043 -371 5184 -403 5312 -403 
C 5376 -403 5549 -403 5626 -403 
C 5734 -403 5862 -378 5933 -333 
C 6022 -282 6074 -205 6106 -83 
C 6138 32 6157 371 6170 653 
C 6054 691 5914 755 5830 832 
C 5824 525 5818 294 5805 186 
C 5792 83 5773 38 5741 13 
C 5709 -6 5658 -13 5600 -13 
C 5549 -13 5466 -13 5421 -13 
C 5376 -13 5338 -6 5318 13 
C 5286 45 5280 109 5280 237 
z
M 819 5293 
L 544 4954 
C 928 4730 1402 4378 1626 4134 
L 1920 4512 
C 1683 4749 1210 5082 819 5293 
z
M 512 3552 
L 256 3194 
C 666 3008 1171 2707 1421 2483 
L 1690 2880 
C 1434 3104 922 3386 512 3552 
z
M 416 -102 
L 819 -429 
C 1197 166 1645 966 1984 1645 
L 1638 1958 
C 1267 1235 762 390 416 -102 
z
M 4013 5376 
L 3578 5267 
C 3680 5043 3789 4774 3853 4544 
L 2035 4544 
L 2035 4109 
L 3296 4109 
C 3027 3763 2662 3309 2541 3194 
C 2419 3085 2234 3040 2112 3014 
C 2150 2906 2214 2669 2240 2554 
C 2426 2624 2720 2650 5357 2829 
C 5478 2656 5587 2502 5664 2368 
L 6054 2624 
C 5824 2995 5331 3584 4928 4013 
L 4570 3795 
C 4723 3616 4896 3418 5056 3219 
L 3046 3104 
C 3296 3392 3597 3789 3840 4109 
L 6048 4109 
L 6048 4544 
L 4352 4544 
C 4282 4787 4147 5114 4013 5376 
z
" transform="scale(0.015625)"/>
        <path id="SourceHanSansSC-Regular-65b9" d="M 3277 5414 
L 2816 5235 
C 2982 4934 3174 4525 3251 4269 
L 435 4269 
L 435 3802 
L 2182 3802 
C 2106 2336 1946 672 294 -147 
C 422 -243 576 -403 646 -531 
C 1856 109 2336 1171 2547 2310 
L 4838 2310 
C 4736 864 4608 243 4422 77 
C 4346 19 4262 0 4115 0 
C 3942 0 3494 6 3034 51 
C 3130 -83 3194 -282 3206 -422 
C 3635 -448 4058 -461 4288 -442 
C 4538 -422 4691 -384 4838 -224 
C 5088 32 5216 730 5344 2541 
C 5357 2618 5363 2778 5363 2778 
L 2618 2778 
C 2662 3117 2688 3462 2701 3802 
L 5990 3802 
L 5990 4269 
L 3290 4269 
L 3744 4467 
C 3654 4723 3456 5114 3277 5414 
z
" transform="scale(0.015625)"/>
        <path id="SourceHanSansSC-Regular-6848" d="M 6074 1472 
L 3424 1472 
L 3424 2003 
L 2944 2003 
L 2944 1472 
L 333 1472 
L 333 1062 
L 2566 1062 
C 1997 570 1069 154 218 -32 
C 314 -122 454 -307 518 -422 
C 1395 -186 2342 307 2944 902 
L 2944 -506 
L 3424 -506 
L 3424 934 
C 4038 320 5018 -192 5914 -435 
C 5978 -314 6118 -128 6221 -32 
C 5357 154 4416 570 3834 1062 
L 6074 1062 
L 6074 1472 
z
M 3162 5414 
L 2758 5267 
L 2982 4896 
L 512 4896 
L 512 3974 
L 966 3974 
L 966 4486 
L 5453 4486 
L 5453 3974 
L 5920 3974 
L 5920 4896 
L 3488 4896 
C 3405 5056 3277 5261 3162 5414 
z
M 4243 3424 
C 4026 3136 3731 2906 3354 2726 
C 2906 2822 2438 2906 1965 2976 
C 2106 3110 2259 3264 2413 3424 
L 4243 3424 
z
M 6016 3814 
L 2765 3814 
C 2893 3968 3014 4122 3117 4269 
L 2688 4410 
C 2566 4224 2413 4019 2246 3814 
L 410 3814 
L 410 3424 
L 1907 3424 
C 1677 3168 1434 2925 1216 2733 
C 1715 2656 2208 2573 2675 2483 
C 2061 2310 1299 2214 390 2170 
C 467 2067 531 1914 570 1786 
C 1754 1869 2701 2029 3424 2323 
C 4243 2144 4947 1946 5466 1754 
L 5875 2093 
C 5370 2259 4704 2438 3962 2598 
C 4307 2816 4576 3091 4774 3424 
L 6016 3424 
L 6016 3814 
z
" transform="scale(0.015625)"/>
        <path id="SourceHanSansSC-Regular-20" transform="scale(0.015625)"/>
        <path id="SourceHanSansSC-Regular-42" d="M 646 0 
L 2138 0 
C 3187 0 3917 454 3917 1395 
C 3917 2022 3546 2387 2963 2496 
L 2963 2528 
C 3405 2669 3648 3059 3648 3546 
C 3648 4371 2982 4691 2035 4691 
L 646 4691 
L 646 0 
z
M 1235 2701 
L 1235 4224 
L 1958 4224 
C 2694 4224 3066 4019 3066 3469 
C 3066 2989 2739 2701 1933 2701 
L 1235 2701 
z
M 1235 474 
L 1235 2240 
L 2054 2240 
C 2880 2240 3334 1978 3334 1395 
C 3334 762 2861 474 2054 474 
L 1235 474 
z
" transform="scale(0.015625)"/>
        <path id="SourceHanSansSC-Regular-ff08" d="M 4448 2432 
C 4448 1184 4954 166 5722 -614 
L 6106 -416 
C 5370 346 4915 1293 4915 2432 
C 4915 3571 5370 4518 6106 5280 
L 5722 5478 
C 4954 4698 4448 3680 4448 2432 
z
" transform="scale(0.015625)"/>
        <path id="SourceHanSansSC-Regular-52" d="M 1235 2464 
L 1235 4211 
L 2022 4211 
C 2758 4211 3162 3994 3162 3379 
C 3162 2765 2758 2464 2022 2464 
L 1235 2464 
z
M 3219 0 
L 3885 0 
L 2694 2054 
C 3328 2208 3750 2643 3750 3379 
C 3750 4352 3066 4691 2112 4691 
L 646 4691 
L 646 0 
L 1235 0 
L 1235 1990 
L 2080 1990 
L 3219 0 
z
" transform="scale(0.015625)"/>
        <path id="SourceHanSansSC-Regular-46" d="M 646 0 
L 1235 0 
L 1235 2106 
L 3027 2106 
L 3027 2605 
L 1235 2605 
L 1235 4192 
L 3347 4192 
L 3347 4691 
L 646 4691 
L 646 0 
z
" transform="scale(0.015625)"/>
        <path id="SourceHanSansSC-Regular-2b" d="M 1542 742 
L 2010 742 
L 2010 2144 
L 3315 2144 
L 3315 2579 
L 2010 2579 
L 2010 3981 
L 1542 3981 
L 1542 2579 
L 243 2579 
L 243 2144 
L 1542 2144 
L 1542 742 
z
" transform="scale(0.015625)"/>
        <path id="SourceHanSansSC-Regular-65" d="M 1997 -83 
C 2464 -83 2835 64 3136 269 
L 2938 640 
C 2682 480 2400 384 2061 384 
C 1459 384 954 794 896 1600 
L 3251 1600 
C 3264 1690 3277 1805 3277 1933 
C 3277 2925 2778 3565 1888 3565 
C 1094 3565 333 2867 333 1734 
C 333 589 1069 -83 1997 -83 
z
M 902 2016 
C 986 2771 1459 3098 1901 3098 
C 2445 3098 2765 2720 2765 2016 
L 902 2016 
z
" transform="scale(0.015625)"/>
        <path id="SourceHanSansSC-Regular-72" d="M 589 0 
L 1178 0 
L 1178 2234 
C 1408 2822 1760 3040 2048 3040 
C 2195 3040 2266 3027 2368 2995 
L 2496 3488 
C 2387 3546 2278 3565 2125 3565 
C 1728 3565 1376 3283 1139 2842 
L 1126 2842 
L 1069 3475 
L 589 3475 
L 589 0 
z
" transform="scale(0.015625)"/>
        <path id="SourceHanSansSC-Regular-61" d="M 1389 -83 
C 1818 -83 2208 141 2541 416 
L 2560 416 
L 2611 0 
L 3091 0 
L 3091 2138 
C 3091 3002 2739 3565 1888 3565 
C 1325 3565 838 3322 525 3110 
L 749 2720 
C 1024 2893 1389 3078 1792 3078 
C 2362 3078 2509 2650 2509 2202 
C 1030 2035 378 1658 378 902 
C 378 275 806 -83 1389 -83 
z
M 1555 390 
C 1210 390 941 544 941 941 
C 941 1389 1338 1677 2509 1811 
L 2509 845 
C 2170 544 1888 390 1555 390 
z
" transform="scale(0.015625)"/>
        <path id="SourceHanSansSC-Regular-6e" d="M 589 0 
L 1178 0 
L 1178 2522 
C 1523 2874 1766 3053 2125 3053 
C 2586 3053 2784 2778 2784 2125 
L 2784 0 
L 3366 0 
L 3366 2202 
C 3366 3085 3034 3565 2304 3565 
C 1830 3565 1466 3302 1139 2970 
L 1126 2970 
L 1069 3475 
L 589 3475 
L 589 0 
z
" transform="scale(0.015625)"/>
        <path id="SourceHanSansSC-Regular-6b" d="M 589 0 
L 1165 0 
L 1165 915 
L 1818 1677 
L 2835 0 
L 3469 0 
L 2157 2074 
L 3315 3475 
L 2662 3475 
L 1190 1645 
L 1165 1645 
L 1165 5094 
L 589 5094 
L 589 0 
z
" transform="scale(0.015625)"/>
        <path id="SourceHanSansSC-Regular-54" d="M 1619 0 
L 2214 0 
L 2214 4192 
L 3635 4192 
L 3635 4691 
L 198 4691 
L 198 4192 
L 1619 4192 
L 1619 0 
z
" transform="scale(0.015625)"/>
        <path id="SourceHanSansSC-Regular-6f" d="M 1939 -83 
C 2790 -83 3546 582 3546 1734 
C 3546 2893 2790 3565 1939 3565 
C 1088 3565 333 2893 333 1734 
C 333 582 1088 -83 1939 -83 
z
M 1939 403 
C 1338 403 934 934 934 1734 
C 934 2534 1338 3072 1939 3072 
C 2541 3072 2950 2534 2950 1734 
C 2950 934 2541 403 1939 403 
z
" transform="scale(0.015625)"/>
        <path id="SourceHanSansSC-Regular-70" d="M 589 -1466 
L 1178 -1466 
L 1178 -288 
L 1158 320 
C 1472 58 1805 -83 2118 -83 
C 2912 -83 3629 602 3629 1792 
C 3629 2867 3142 3565 2246 3565 
C 1843 3565 1453 3334 1139 3072 
L 1126 3072 
L 1069 3475 
L 589 3475 
L 589 -1466 
z
M 2022 410 
C 1792 410 1485 499 1178 768 
L 1178 2598 
C 1510 2906 1811 3072 2099 3072 
C 2765 3072 3021 2560 3021 1786 
C 3021 928 2598 410 2022 410 
z
" transform="scale(0.015625)"/>
        <path id="SourceHanSansSC-Regular-32" d="M 282 0 
L 3232 0 
L 3232 506 
L 1894 506 
C 1658 506 1376 480 1126 461 
C 2240 1504 3008 2445 3008 3398 
C 3008 4230 2477 4774 1638 4774 
C 1050 4774 646 4493 269 4077 
L 595 3757 
C 858 4070 1184 4301 1568 4301 
C 2150 4301 2432 3910 2432 3373 
C 2432 2573 1773 1632 282 371 
L 282 0 
z
" transform="scale(0.015625)"/>
        <path id="SourceHanSansSC-Regular-30" d="M 1779 -83 
C 2669 -83 3238 723 3238 2362 
C 3238 3987 2669 4774 1779 4774 
C 883 4774 320 3987 320 2362 
C 320 723 883 -83 1779 -83 
z
M 1779 390 
C 1248 390 883 986 883 2362 
C 883 3731 1248 4314 1779 4314 
C 2310 4314 2675 3731 2675 2362 
C 2675 986 2310 390 1779 390 
z
" transform="scale(0.015625)"/>
        <path id="SourceHanSansSC-Regular-ff09" d="M 1952 2432 
C 1952 3680 1446 4698 678 5478 
L 294 5280 
C 1030 4518 1485 3571 1485 2432 
C 1485 1293 1030 346 294 -416 
L 678 -614 
C 1446 166 1952 1184 1952 2432 
z
" transform="scale(0.015625)"/>
       </defs>
       <use xlink:href="#SourceHanSansSC-Regular-4e3b"/>
       <use xlink:href="#SourceHanSansSC-Regular-6d41" transform="translate(99.999985 0)"/>
       <use xlink:href="#SourceHanSansSC-Regular-65b9" transform="translate(199.999969 0)"/>
       <use xlink:href="#SourceHanSansSC-Regular-6848" transform="translate(299.999954 0)"/>
       <use xlink:href="#SourceHanSansSC-Regular-20" transform="translate(399.999939 0)"/>
       <use xlink:href="#SourceHanSansSC-Regular-42" transform="translate(422.399933 0)"/>
       <use xlink:href="#SourceHanSansSC-Regular-ff08" transform="translate(488.09993 0)"/>
       <use xlink:href="#SourceHanSansSC-Regular-52" transform="translate(588.099915 0)"/>
       <use xlink:href="#SourceHanSansSC-Regular-52" transform="translate(651.599899 0)"/>
       <use xlink:href="#SourceHanSansSC-Regular-46" transform="translate(715.099884 0)"/>
       <use xlink:href="#SourceHanSansSC-Regular-20" transform="translate(770.299881 0)"/>
       <use xlink:href="#SourceHanSansSC-Regular-2b" transform="translate(792.699875 0)"/>
       <use xlink:href="#SourceHanSansSC-Regular-20" transform="translate(848.19986 0)"/>
       <use xlink:href="#SourceHanSansSC-Regular-52" transform="translate(870.599854 0)"/>
       <use xlink:href="#SourceHanSansSC-Regular-65" transform="translate(934.099838 0)"/>
       <use xlink:href="#SourceHanSansSC-Regular-72" transform="translate(989.499832 0)"/>
       <use xlink:href="#SourceHanSansSC-Regular-61" transform="translate(1028.29982 0)"/>
       <use xlink:href="#SourceHanSansSC-Regular-6e" transform="translate(1084.599808 0)"/>
       <use xlink:href="#SourceHanSansSC-Regular-6b" transform="translate(1145.599792 0)"/>
       <use xlink:href="#SourceHanSansSC-Regular-20" transform="translate(1200.799789 0)"/>
       <use xlink:href="#SourceHanSansSC-Regular-54" transform="translate(1223.199783 0)"/>
       <use xlink:href="#SourceHanSansSC-Regular-6f" transform="translate(1283.099777 0)"/>
       <use xlink:href="#SourceHanSansSC-Regular-70" transform="translate(1343.699768 0)"/>
       <use xlink:href="#SourceHanSansSC-Regular-32" transform="translate(1405.699753 0)"/>
       <use xlink:href="#SourceHanSansSC-Regular-30" transform="translate(1461.199738 0)"/>
       <use xlink:href="#SourceHanSansSC-Regular-ff09" transform="translate(1516.699722 0)"/>
      </g>
     </g>
    </g>
    <g id="xtick_2">
     <g id="line2d_2">
      <g>
       <use xlink:href="#m71df5aa59c" x="242.459089" y="343.299455" style="stroke: #000000; stroke-width: 0.8"/>
      </g>
     </g>
     <g id="text_2">
      <!-- 去掉自适应权重（固定 lexical/dense 权重） -->
      <g transform="translate(55.207456 418.576129) rotate(-18) scale(0.1 -0.1)">
       <defs>
        <path id="SourceHanSansSC-Regular-53bb" d="M 4301 1850 
L 3872 1645 
C 4166 1318 4474 922 4742 538 
L 1568 307 
C 2048 838 2541 1504 2963 2202 
L 6086 2202 
L 6086 2682 
L 3450 2682 
L 3450 3891 
L 5613 3891 
L 5613 4371 
L 3450 4371 
L 3450 5382 
L 2944 5382 
L 2944 4371 
L 832 4371 
L 832 3891 
L 2944 3891 
L 2944 2682 
L 339 2682 
L 339 2202 
L 2368 2202 
C 1958 1478 1414 787 1242 595 
C 1050 365 902 218 762 186 
C 826 51 902 -192 928 -294 
C 1178 -192 1536 -173 5024 102 
C 5152 -96 5261 -282 5338 -448 
L 5798 -198 
C 5504 358 4883 1216 4301 1850 
z
" transform="scale(0.015625)"/>
        <path id="SourceHanSansSC-Regular-6389" d="M 2925 1914 
L 2925 2502 
L 5222 2502 
L 5222 1914 
L 2925 1914 
z
M 2925 2874 
L 2925 3456 
L 5222 3456 
L 5222 2874 
L 2925 2874 
z
M 1542 83 
L 1542 1907 
L 2278 2157 
L 2227 2592 
L 1542 2381 
L 1542 3642 
L 2253 3642 
L 2253 4096 
L 1542 4096 
L 1542 5376 
L 1062 5376 
L 1062 4096 
L 282 4096 
L 282 3642 
L 1062 3642 
L 1062 2234 
L 224 1990 
L 352 1523 
L 1062 1754 
L 1062 83 
C 1062 -6 1030 -38 941 -38 
C 858 -45 582 -45 282 -38 
C 339 -160 410 -358 429 -480 
C 870 -480 1139 -467 1306 -397 
C 1472 -320 1542 -192 1542 83 
z
M 5696 3840 
L 4320 3840 
L 4320 4416 
L 6067 4416 
L 6067 4832 
L 4320 4832 
L 4320 5376 
L 3846 5376 
L 3846 3840 
L 2464 3840 
L 2464 1530 
L 3853 1530 
L 3853 979 
L 2067 979 
L 2067 550 
L 3853 550 
L 3853 -512 
L 4326 -512 
L 4326 550 
L 6131 550 
L 6131 979 
L 4326 979 
L 4326 1530 
L 5696 1530 
L 5696 3840 
z
" transform="scale(0.015625)"/>
        <path id="SourceHanSansSC-Regular-81ea" d="M 1530 3085 
L 1530 4038 
L 4954 4038 
L 4954 3085 
L 1530 3085 
z
M 1530 2630 
L 4954 2630 
L 4954 1690 
L 1530 1690 
L 1530 2630 
z
M 1530 1242 
L 4954 1242 
L 4954 294 
L 1530 294 
L 1530 1242 
z
M 3469 5312 
L 2912 5389 
C 2861 5133 2758 4781 2662 4499 
L 1043 4499 
L 1043 -518 
L 1530 -518 
L 1530 -160 
L 4954 -160 
L 4954 -486 
L 5459 -486 
L 5459 4499 
L 3149 4499 
C 3258 4742 3366 5037 3469 5312 
z
" transform="scale(0.015625)"/>
        <path id="SourceHanSansSC-Regular-9002" d="M 749 5146 
L 397 4883 
C 742 4570 1152 4122 1338 3834 
L 1709 4128 
C 1517 4416 1101 4851 749 5146 
z
M 2938 1120 
L 2938 2170 
L 5171 2170 
L 5171 1120 
L 2938 1120 
z
M 1587 704 
L 1587 3091 
L 250 3091 
L 250 2643 
L 1126 2643 
L 1126 659 
C 851 544 544 294 243 -6 
L 544 -410 
C 877 -13 1203 326 1427 326 
C 1574 326 1779 134 2048 -13 
C 2502 -269 3046 -333 3808 -333 
C 4429 -333 5555 -301 6022 -269 
C 6029 -134 6099 90 6150 211 
C 5530 141 4570 96 3821 96 
C 3123 96 2566 134 2157 371 
C 1888 512 1734 646 1587 704 
z
M 5651 2566 
L 4301 2566 
L 4301 3379 
L 6099 3379 
L 6099 3808 
L 4301 3808 
L 4301 4653 
C 4832 4723 5331 4813 5709 4928 
L 5478 5331 
C 4710 5094 3347 4941 2240 4858 
C 2291 4749 2349 4582 2362 4474 
C 2816 4499 3322 4538 3821 4589 
L 3821 3808 
L 1958 3808 
L 1958 3379 
L 3821 3379 
L 3821 2566 
L 2477 2566 
L 2477 723 
L 5651 723 
L 5651 2566 
z
" transform="scale(0.015625)"/>
        <path id="SourceHanSansSC-Regular-5e94" d="M 2106 3309 
L 1690 3136 
C 1952 2445 2253 1530 2381 934 
L 2829 1120 
C 2694 1715 2387 2605 2106 3309 
z
M 3514 3616 
L 3078 3494 
C 3283 2797 3520 1888 3603 1293 
L 4070 1434 
C 3974 2029 3738 2918 3514 3616 
z
M 3462 5421 
L 2995 5299 
C 3117 5075 3245 4781 3334 4550 
L 774 4550 
L 774 2803 
C 774 1894 730 621 230 -288 
C 346 -339 563 -474 653 -557 
C 1178 397 1261 1830 1261 2803 
L 1261 4096 
L 6029 4096 
L 6029 4550 
L 3859 4550 
L 3878 4557 
C 3795 4787 3616 5146 3462 5421 
z
M 6112 250 
L 4378 250 
C 4966 1242 5440 2406 5747 3469 
L 5242 3654 
C 4998 2547 4506 1242 3885 250 
L 1338 250 
L 1338 -211 
L 6112 -211 
L 6112 250 
z
" transform="scale(0.015625)"/>
        <path id="SourceHanSansSC-Regular-6743" d="M 5600 4787 
L 2707 4787 
L 2707 4320 
L 2931 4320 
C 3162 3002 3488 1990 4051 1152 
C 3558 576 2976 154 2342 -109 
C 2451 -198 2579 -390 2643 -506 
C 3277 -211 3853 205 4346 762 
C 4736 282 5229 -141 5850 -544 
C 5920 -403 6067 -243 6195 -147 
C 5549 237 5050 659 4653 1146 
C 5299 2022 5766 3200 5984 4710 
L 5683 4806 
L 5600 4787 
z
M 5459 4320 
C 5254 3206 4870 2278 4358 1549 
C 3878 2291 3584 3181 3379 4320 
L 5459 4320 
z
M 1830 5376 
L 1357 5376 
L 1357 4019 
L 294 4019 
L 294 3571 
L 1242 3571 
C 1011 2682 563 1664 115 1126 
C 211 1005 339 794 397 653 
C 755 1120 1107 1907 1357 2701 
L 1357 -506 
L 1830 -506 
L 1830 2752 
C 2106 2400 2464 1907 2618 1664 
L 2906 2093 
C 2752 2278 2035 3104 1830 3302 
L 1830 3571 
L 2682 3571 
L 2682 4019 
L 1830 4019 
L 1830 5376 
z
" transform="scale(0.015625)"/>
        <path id="SourceHanSansSC-Regular-91cd" d="M 5427 3456 
L 3418 3456 
L 3418 3846 
L 6042 3846 
L 6042 4243 
L 3418 4243 
L 3418 4730 
C 4166 4787 4864 4870 5414 4966 
L 5165 5338 
C 4154 5152 2342 5030 851 4992 
C 896 4896 947 4723 954 4614 
C 1587 4627 2272 4653 2938 4698 
L 2938 4243 
L 371 4243 
L 371 3846 
L 2938 3846 
L 2938 3456 
L 1018 3456 
L 1018 1466 
L 2938 1466 
L 2938 1024 
L 813 1024 
L 813 640 
L 2938 640 
L 2938 83 
L 333 83 
L 333 -307 
L 6074 -307 
L 6074 83 
L 3418 83 
L 3418 640 
L 5670 640 
L 5670 1024 
L 3418 1024 
L 3418 1466 
L 5427 1466 
L 5427 3456 
z
M 1485 1818 
L 1485 2304 
L 2938 2304 
L 2938 1818 
L 1485 1818 
z
M 3418 2304 
L 4941 2304 
L 4941 1818 
L 3418 1818 
L 3418 2304 
z
M 1485 2630 
L 1485 3110 
L 2938 3110 
L 2938 2630 
L 1485 2630 
z
M 3418 3110 
L 4941 3110 
L 4941 2630 
L 3418 2630 
L 3418 3110 
z
" transform="scale(0.015625)"/>
        <path id="SourceHanSansSC-Regular-56fa" d="M 2304 1184 
L 2304 2106 
L 4141 2106 
L 4141 1184 
L 2304 1184 
z
M 4595 2483 
L 3430 2483 
L 3430 3219 
L 5005 3219 
L 5005 3622 
L 3430 3622 
L 3430 4358 
L 2970 4358 
L 2970 3622 
L 1459 3622 
L 1459 3219 
L 2970 3219 
L 2970 2483 
L 1875 2483 
L 1875 806 
L 4595 806 
L 4595 2483 
z
M 1050 224 
L 1050 4627 
L 5357 4627 
L 5357 224 
L 1050 224 
z
M 5850 5075 
L 570 5075 
L 570 -525 
L 1050 -525 
L 1050 -224 
L 5357 -224 
L 5357 -525 
L 5850 -525 
L 5850 5075 
z
" transform="scale(0.015625)"/>
        <path id="SourceHanSansSC-Regular-5b9a" d="M 1920 2368 
L 1434 2419 
C 1299 1261 947 346 237 -211 
C 352 -282 550 -442 627 -531 
C 1050 -160 1363 326 1581 922 
C 2170 -186 3136 -410 4467 -410 
L 5965 -410 
C 5990 -269 6074 -38 6144 77 
C 5830 70 4730 70 4493 70 
C 4115 70 3763 90 3443 147 
L 3443 1440 
L 5350 1440 
L 5350 1888 
L 3443 1888 
L 3443 2938 
L 5088 2938 
L 5088 3405 
L 1350 3405 
L 1350 2938 
L 2944 2938 
L 2944 282 
C 2419 480 2016 858 1766 1530 
C 1830 1792 1882 2074 1920 2368 
z
M 3200 5421 
L 2726 5286 
C 2835 5094 2950 4851 3021 4653 
L 525 4653 
L 525 3258 
L 998 3258 
L 998 4198 
L 5382 4198 
L 5382 3258 
L 5875 3258 
L 5875 4653 
L 3571 4653 
C 3507 4870 3341 5184 3200 5421 
z
" transform="scale(0.015625)"/>
        <path id="SourceHanSansSC-Regular-6c" d="M 1203 -70 
C 1350 -70 1459 -45 1542 0 
L 1459 429 
C 1408 416 1376 416 1344 416 
C 1248 416 1178 480 1178 672 
L 1178 5094 
L 589 5094 
L 589 710 
C 589 211 768 -70 1203 -70 
z
" transform="scale(0.015625)"/>
        <path id="SourceHanSansSC-Regular-78" d="M 96 0 
L 710 0 
L 1178 813 
C 1299 1024 1408 1235 1530 1434 
L 1562 1434 
C 1696 1235 1824 1024 1939 813 
L 2451 0 
L 3091 0 
L 1946 1754 
L 3002 3475 
L 2394 3475 
L 1965 2714 
C 1856 2515 1760 2330 1658 2131 
L 1626 2131 
C 1510 2330 1389 2515 1286 2714 
L 819 3475 
L 186 3475 
L 1242 1811 
L 96 0 
z
" transform="scale(0.015625)"/>
        <path id="SourceHanSansSC-Regular-69" d="M 589 0 
L 1178 0 
L 1178 3475 
L 589 3475 
L 589 0 
z
M 877 4192 
C 1101 4192 1267 4346 1267 4582 
C 1267 4806 1101 4960 877 4960 
C 646 4960 486 4806 486 4582 
C 486 4346 646 4192 877 4192 
z
" transform="scale(0.015625)"/>
        <path id="SourceHanSansSC-Regular-63" d="M 1971 -83 
C 2406 -83 2797 90 3085 365 
L 2829 723 
C 2618 531 2330 403 2016 403 
C 1370 403 934 934 934 1734 
C 934 2534 1402 3072 2029 3072 
C 2323 3072 2547 2963 2726 2797 
L 3014 3155 
C 2778 3392 2458 3565 2003 3565 
C 1107 3565 333 2893 333 1734 
C 333 582 1037 -83 1971 -83 
z
" transform="scale(0.015625)"/>
        <path id="SourceHanSansSC-Regular-2f" d="M 70 -1146 
L 499 -1146 
L 2413 5082 
L 1990 5082 
L 70 -1146 
z
" transform="scale(0.015625)"/>
        <path id="SourceHanSansSC-Regular-64" d="M 1773 -83 
C 2189 -83 2560 141 2829 410 
L 2848 410 
L 2899 0 
L 3379 0 
L 3379 5094 
L 2790 5094 
L 2790 3757 
L 2822 3162 
C 2515 3411 2253 3565 1843 3565 
C 1050 3565 339 2861 339 1734 
C 339 576 902 -83 1773 -83 
z
M 1901 410 
C 1293 410 941 902 941 1741 
C 941 2534 1389 3072 1946 3072 
C 2234 3072 2502 2970 2790 2707 
L 2790 883 
C 2502 563 2221 410 1901 410 
z
" transform="scale(0.015625)"/>
        <path id="SourceHanSansSC-Regular-73" d="M 1498 -83 
C 2317 -83 2758 384 2758 947 
C 2758 1581 2240 1811 1690 2010 
C 1267 2163 954 2285 954 2605 
C 954 2867 1158 3110 1600 3110 
C 1907 3110 2157 3008 2400 2829 
L 2669 3168 
C 2406 3398 2022 3565 1594 3565 
C 832 3565 397 3130 397 2579 
C 397 2003 902 1760 1421 1568 
C 1811 1427 2202 1267 2202 915 
C 2202 614 1978 371 1517 371 
C 1082 371 768 506 474 755 
L 205 410 
C 518 96 986 -83 1498 -83 
z
" transform="scale(0.015625)"/>
       </defs>
       <use xlink:href="#SourceHanSansSC-Regular-53bb"/>
       <use xlink:href="#SourceHanSansSC-Regular-6389" transform="translate(99.999985 0)"/>
       <use xlink:href="#SourceHanSansSC-Regular-81ea" transform="translate(199.999969 0)"/>
       <use xlink:href="#SourceHanSansSC-Regular-9002" transform="translate(299.999954 0)"/>
       <use xlink:href="#SourceHanSansSC-Regular-5e94" transform="translate(399.999939 0)"/>
       <use xlink:href="#SourceHanSansSC-Regular-6743" transform="translate(499.999924 0)"/>
       <use xlink:href="#SourceHanSansSC-Regular-91cd" transform="translate(599.999908 0)"/>
       <use xlink:href="#SourceHanSansSC-Regular-ff08" transform="translate(699.999893 0)"/>
       <use xlink:href="#SourceHanSansSC-Regular-56fa" transform="translate(799.999878 0)"/>
       <use xlink:href="#SourceHanSansSC-Regular-5b9a" transform="translate(899.999863 0)"/>
       <use xlink:href="#SourceHanSansSC-Regular-20" transform="translate(999.999847 0)"/>
       <use xlink:href="#SourceHanSansSC-Regular-6c" transform="translate(1022.399841 0)"/>
       <use xlink:href="#SourceHanSansSC-Regular-65" transform="translate(1050.799835 0)"/>
       <use xlink:href="#SourceHanSansSC-Regular-78" transform="translate(1106.199829 0)"/>
       <use xlink:href="#SourceHanSansSC-Regular-69" transform="translate(1155.999817 0)"/>
       <use xlink:href="#SourceHanSansSC-Regular-63" transform="translate(1183.499802 0)"/>
       <use xlink:href="#SourceHanSansSC-Regular-61" transform="translate(1234.499786 0)"/>
       <use xlink:href="#SourceHanSansSC-Regular-6c" transform="translate(1290.799774 0)"/>
       <use xlink:href="#SourceHanSansSC-Regular-2f" transform="translate(1319.199768 0)"/>
       <use xlink:href="#SourceHanSansSC-Regular-64" transform="translate(1358.399765 0)"/>
       <use xlink:href="#SourceHanSansSC-Regular-65" transform="translate(1420.39975 0)"/>
       <use xlink:href="#SourceHanSansSC-Regular-6e" transform="translate(1475.799744 0)"/>
       <use xlink:href="#SourceHanSansSC-Regular-73" transform="translate(1536.799728 0)"/>
       <use xlink:href="#SourceHanSansSC-Regular-65" transform="translate(1583.599716 0)"/>
       <use xlink:href="#SourceHanSansSC-Regular-20" transform="translate(1638.99971 0)"/>
       <use xlink:href="#SourceHanSansSC-Regular-6743" transform="translate(1661.399704 0)"/>
       <use xlink:href="#SourceHanSansSC-Regular-91cd" transform="translate(1761.399689 0)"/>
       <use xlink:href="#SourceHanSansSC-Regular-ff09" transform="translate(1861.399673 0)"/>
      </g>
     </g>
    </g>
    <g id="xtick_3">
     <g id="line2d_3">
      <g>
       <use xlink:href="#m71df5aa59c" x="313.087783" y="343.299455" style="stroke: #000000; stroke-width: 0.8"/>
      </g>
     </g>
     <g id="text_3">
      <!-- 去掉覆盖率奖励 -->
      <g transform="translate(245.805985 379.50046) rotate(-18) scale(0.1 -0.1)">
       <defs>
        <path id="SourceHanSansSC-Regular-8986" d="M 3008 1485 
L 3008 1747 
L 5094 1747 
L 5094 1485 
L 3008 1485 
z
M 3008 2003 
L 3008 2266 
L 5094 2266 
L 5094 2003 
L 3008 2003 
z
M 1907 3238 
L 1478 3379 
C 1235 3008 730 2579 275 2317 
C 358 2240 493 2099 563 2016 
C 1050 2310 1581 2784 1907 3238 
z
M 5696 4474 
L 4160 4474 
L 4160 4794 
L 5990 4794 
L 5990 5139 
L 429 5139 
L 429 4794 
L 2202 4794 
L 2202 4474 
L 736 4474 
L 736 3437 
L 5696 3437 
L 5696 4474 
z
M 2637 4794 
L 3706 4794 
L 3706 4474 
L 2637 4474 
L 2637 4794 
z
M 1171 3757 
L 1171 4154 
L 2202 4154 
L 2202 3757 
L 1171 3757 
z
M 2637 4154 
L 3706 4154 
L 3706 3757 
L 2637 3757 
L 2637 4154 
z
M 4160 4154 
L 5242 4154 
L 5242 3757 
L 4160 3757 
L 4160 4154 
z
M 5178 960 
L 3558 960 
C 3654 1043 3744 1126 3827 1216 
L 5517 1216 
L 5517 2528 
L 2784 2528 
L 2944 2752 
L 5875 2752 
L 5875 3091 
L 3155 3091 
L 3270 3322 
L 2854 3437 
C 2643 2982 2304 2541 1920 2227 
L 2048 2419 
L 1638 2560 
C 1357 2067 774 1498 230 1152 
C 314 1082 442 934 506 845 
C 698 973 896 1126 1082 1299 
L 1082 -506 
L 1517 -506 
L 1517 1728 
C 1638 1869 1754 2003 1862 2144 
C 1958 2080 2112 1946 2176 1882 
C 2317 1997 2458 2138 2592 2291 
L 2592 1216 
L 3322 1216 
C 2982 922 2458 659 1907 474 
C 1990 410 2118 282 2182 205 
C 2419 288 2643 390 2861 499 
C 3053 339 3283 198 3552 77 
C 3053 -58 2502 -134 1952 -179 
C 2022 -269 2099 -410 2131 -506 
C 2803 -435 3469 -320 4058 -122 
C 4621 -314 5274 -435 5933 -493 
C 5978 -390 6080 -243 6163 -154 
C 5606 -115 5050 -38 4557 83 
C 4954 269 5286 518 5517 832 
L 5261 979 
L 5178 960 
z
M 4845 659 
C 4634 486 4358 346 4038 230 
C 3693 346 3392 486 3174 659 
L 4845 659 
z
" transform="scale(0.015625)"/>
        <path id="SourceHanSansSC-Regular-76d6" d="M 5453 1747 
L 979 1747 
L 979 96 
L 288 96 
L 288 -333 
L 6118 -333 
L 6118 96 
L 5453 96 
L 5453 1747 
z
M 1427 96 
L 1427 1331 
L 2310 1331 
L 2310 96 
L 1427 96 
z
M 2758 96 
L 2758 1331 
L 3642 1331 
L 3642 96 
L 2758 96 
z
M 4090 96 
L 4090 1331 
L 4986 1331 
L 4986 96 
L 4090 96 
z
M 4851 5254 
L 4378 5389 
C 4269 5139 4090 4794 3930 4544 
L 2246 4544 
L 2483 4640 
C 2406 4845 2221 5152 2029 5376 
L 1613 5235 
C 1766 5030 1920 4749 2010 4544 
L 698 4544 
L 698 4154 
L 2950 4154 
L 2950 3597 
L 1018 3597 
L 1018 3219 
L 2950 3219 
L 2950 2624 
L 442 2624 
L 442 2234 
L 5971 2234 
L 5971 2624 
L 3443 2624 
L 3443 3219 
L 5414 3219 
L 5414 3597 
L 3443 3597 
L 3443 4154 
L 5690 4154 
L 5690 4544 
L 4429 4544 
C 4570 4755 4717 5005 4851 5254 
z
" transform="scale(0.015625)"/>
        <path id="SourceHanSansSC-Regular-7387" d="M 5709 3872 
L 5306 4115 
C 5082 3859 4685 3507 4397 3296 
L 4749 3066 
C 5043 3270 5414 3571 5709 3872 
z
M 358 2157 
L 602 1773 
C 1024 1984 1542 2259 2042 2528 
L 1946 2886 
C 1357 2605 755 2323 358 2157 
z
M 870 4096 
L 544 3834 
C 890 3616 1312 3296 1510 3078 
L 1856 3373 
C 1638 3590 1216 3898 870 4096 
z
M 4672 2867 
L 4333 2611 
C 4774 2342 5325 1958 5594 1702 
L 5952 1997 
C 5670 2253 5101 2624 4672 2867 
z
M 6080 1293 
L 3456 1293 
L 3456 1818 
L 2944 1818 
L 2944 1293 
L 326 1293 
L 326 845 
L 2944 845 
L 2944 -512 
L 3456 -512 
L 3456 845 
L 6080 845 
L 6080 1293 
z
M 3251 5421 
L 2784 5299 
C 2880 5152 2995 4966 3078 4800 
L 454 4800 
L 454 4358 
L 2797 4358 
C 2605 4051 2394 3789 2310 3706 
C 2214 3590 2118 3520 2029 3501 
C 2074 3386 2138 3187 2163 3091 
C 2259 3130 2400 3162 3136 3219 
C 2829 2906 2554 2656 2426 2554 
C 2208 2374 2042 2253 1901 2234 
C 1952 2112 2016 1901 2035 1818 
C 2170 1875 2394 1907 4070 2067 
C 4147 1939 4205 1824 4250 1728 
L 4627 1894 
C 4493 2195 4173 2656 3885 2982 
L 3526 2835 
C 3635 2707 3744 2566 3846 2419 
L 2701 2330 
C 3264 2778 3834 3341 4339 3936 
L 3955 4160 
C 3821 3981 3667 3802 3520 3629 
L 2701 3584 
C 2906 3808 3117 4077 3302 4358 
L 6022 4358 
L 6022 4800 
L 3642 4800 
C 3552 4986 3398 5235 3251 5421 
z
" transform="scale(0.015625)"/>
        <path id="SourceHanSansSC-Regular-5956" d="M 845 5037 
L 474 4851 
C 710 4538 973 4109 1062 3834 
L 1459 4051 
C 1357 4326 1088 4742 845 5037 
z
M 3475 2240 
L 2970 2240 
C 2944 2067 2918 1907 2880 1754 
L 384 1754 
L 384 1318 
L 2746 1318 
C 2451 614 1818 134 275 -115 
C 365 -211 474 -397 506 -512 
C 2125 -237 2842 320 3194 1133 
C 3674 205 4544 -275 5856 -474 
C 5920 -339 6042 -141 6150 -38 
C 4870 96 4000 512 3584 1318 
L 6003 1318 
L 6003 1754 
L 3392 1754 
C 3424 1907 3450 2074 3475 2240 
z
M 301 3027 
L 506 2611 
L 1786 3290 
L 1786 2234 
L 2253 2234 
L 2253 5376 
L 1786 5376 
L 1786 3750 
C 1229 3475 678 3194 301 3027 
z
M 5677 4832 
L 4013 4832 
C 4115 4966 4205 5107 4282 5248 
L 3821 5395 
C 3597 4915 3066 4397 2509 4096 
C 2592 4006 2726 3846 2797 3744 
C 3104 3917 3405 4154 3667 4422 
L 5446 4422 
C 5222 3949 4883 3590 4461 3322 
C 4250 3565 3923 3866 3648 4090 
L 3290 3878 
C 3558 3654 3872 3354 4070 3110 
C 3590 2880 3027 2739 2413 2650 
C 2496 2554 2624 2362 2669 2246 
C 4256 2528 5530 3162 6048 4710 
L 5766 4851 
L 5677 4832 
z
" transform="scale(0.015625)"/>
        <path id="SourceHanSansSC-Regular-52b1" d="M 4781 5274 
L 4333 5274 
C 4333 4762 4333 4262 4320 3782 
L 3597 3782 
L 3597 3334 
L 4301 3334 
C 4237 1850 4006 576 3200 -211 
C 3315 -275 3482 -422 3558 -525 
C 4416 352 4666 1734 4742 3334 
L 5523 3334 
C 5459 1024 5395 198 5248 13 
C 5190 -64 5133 -90 5030 -83 
C 4915 -83 4646 -83 4346 -58 
C 4422 -179 4467 -365 4480 -499 
C 4768 -512 5056 -518 5229 -499 
C 5414 -480 5536 -429 5651 -262 
C 5843 0 5907 883 5971 3546 
C 5971 3616 5971 3782 5971 3782 
L 4762 3782 
C 4774 4262 4781 4762 4781 5274 
z
M 1088 2675 
L 1088 3443 
L 1779 3443 
C 1754 1901 1670 531 928 -237 
C 1037 -301 1190 -454 1254 -550 
C 1875 96 2093 1088 2176 2259 
L 2893 2259 
C 2829 768 2765 218 2650 83 
C 2605 19 2554 6 2464 13 
C 2374 6 2163 13 1926 32 
C 1990 -77 2029 -243 2042 -365 
C 2278 -378 2522 -384 2656 -365 
C 2816 -352 2918 -307 3014 -179 
C 3181 26 3245 653 3322 2477 
C 3322 2534 3328 2675 3328 2675 
L 2202 2675 
L 2221 3443 
L 3430 3443 
L 3430 3872 
L 1088 3872 
L 1088 4570 
L 3648 4570 
L 3648 5011 
L 646 5011 
L 646 2669 
C 646 1779 614 576 198 -256 
C 307 -301 506 -416 589 -486 
C 1030 390 1088 1728 1088 2675 
z
" transform="scale(0.015625)"/>
       </defs>
       <use xlink:href="#SourceHanSansSC-Regular-53bb"/>
       <use xlink:href="#SourceHanSansSC-Regular-6389" transform="translate(99.999985 0)"/>
       <use xlink:href="#SourceHanSansSC-Regular-8986" transform="translate(199.999969 0)"/>
       <use xlink:href="#SourceHanSansSC-Regular-76d6" transform="translate(299.999954 0)"/>
       <use xlink:href="#SourceHanSansSC-Regular-7387" transform="translate(399.999939 0)"/>
       <use xlink:href="#SourceHanSansSC-Regular-5956" transform="translate(499.999924 0)"/>
       <use xlink:href="#SourceHanSansSC-Regular-52b1" transform="translate(599.999908 0)"/>
      </g>
     </g>
    </g>
    <g id="xtick_4">
     <g id="line2d_4">
      <g>
       <use xlink:href="#m71df5aa59c" x="383.716477" y="343.299455" style="stroke: #000000; stroke-width: 0.8"/>
      </g>
     </g>
     <g id="text_4">
      <!-- 去掉标识符约束 -->
      <g transform="translate(316.434678 379.50046) rotate(-18) scale(0.1 -0.1)">
       <defs>
        <path id="SourceHanSansSC-Regular-6807" d="M 5773 4890 
L 2982 4890 
L 2982 4435 
L 5773 4435 
L 5773 4890 
z
M 5395 2208 
L 4986 2080 
C 5286 1440 5581 608 5683 102 
L 6125 262 
C 6016 768 5709 1581 5395 2208 
z
M 3584 2093 
L 3142 2189 
C 2976 1510 2688 826 2330 365 
C 2438 314 2630 186 2720 115 
C 3066 602 3386 1350 3584 2093 
z
M 4550 109 
L 4550 2906 
L 6112 2906 
L 6112 3360 
L 2701 3360 
L 2701 2906 
L 4070 2906 
L 4070 109 
C 4070 26 4045 0 3949 0 
C 3866 -6 3571 -6 3232 6 
C 3296 -141 3366 -352 3386 -486 
C 3834 -486 4128 -474 4314 -397 
C 4499 -314 4550 -166 4550 109 
z
M 1773 5376 
L 1293 5376 
L 1293 4019 
L 314 4019 
L 314 3571 
L 1190 3571 
C 979 2778 563 1856 154 1376 
C 237 1254 365 1056 422 922 
C 749 1331 1062 2003 1293 2688 
L 1293 -506 
L 1773 -506 
L 1773 2842 
C 1990 2528 2246 2131 2355 1926 
L 2637 2304 
C 2509 2483 1958 3187 1773 3398 
L 1773 3571 
L 2611 3571 
L 2611 4019 
L 1773 4019 
L 1773 5376 
z
" transform="scale(0.015625)"/>
        <path id="SourceHanSansSC-Regular-8bc6" d="M 3283 2547 
L 3283 4461 
L 5222 4461 
L 5222 2547 
L 3283 2547 
z
M 5715 4922 
L 2810 4922 
L 2810 2086 
L 5715 2086 
L 5715 4922 
z
M 5158 1472 
L 4723 1312 
C 5062 755 5421 6 5562 -454 
L 6035 -262 
C 5894 192 5510 922 5158 1472 
z
M 3757 1350 
L 3264 1459 
C 3085 806 2739 179 2317 -230 
C 2432 -294 2643 -429 2739 -506 
C 3162 -58 3539 627 3757 1350 
z
M 966 5210 
L 653 4922 
C 998 4627 1434 4205 1638 3936 
L 1978 4269 
C 1760 4531 1318 4934 966 5210 
z
M 1158 -333 
C 1254 -205 1434 -64 2541 806 
C 2483 896 2400 1082 2362 1216 
L 1690 704 
L 1690 3366 
L 320 3366 
L 320 2906 
L 1222 2906 
L 1222 685 
C 1222 346 986 96 864 -6 
C 947 -77 1101 -237 1158 -333 
z
" transform="scale(0.015625)"/>
        <path id="SourceHanSansSC-Regular-7b26" d="M 2918 1978 
L 2528 1773 
C 2810 1363 3168 813 3334 486 
L 3744 736 
C 3565 1050 3200 1581 2918 1978 
z
M 5165 96 
L 5165 2323 
L 6035 2323 
L 6035 2765 
L 5165 2765 
L 5165 3462 
L 4698 3462 
L 4698 2765 
L 2157 2765 
L 2157 2323 
L 4698 2323 
L 4698 102 
C 4698 -6 4659 -32 4531 -38 
C 4416 -45 3987 -45 3533 -32 
C 3603 -166 3674 -365 3699 -499 
C 4275 -499 4653 -493 4870 -422 
C 5088 -346 5165 -205 5165 96 
z
M 2118 3366 
L 1664 3520 
C 1344 2822 806 2125 262 1670 
C 365 1574 531 1376 595 1280 
C 806 1466 1018 1690 1216 1939 
L 1216 -512 
L 1683 -512 
L 1683 2592 
C 1843 2848 1990 3104 2118 3366 
z
M 1632 5286 
L 1165 5395 
C 966 4755 627 4115 230 3699 
C 346 3642 544 3507 634 3430 
C 845 3680 1050 4000 1235 4352 
L 1568 4352 
C 1709 4058 1869 3706 1958 3488 
L 2387 3635 
C 2310 3814 2170 4096 2042 4352 
L 3040 4352 
L 3040 4762 
L 1427 4762 
C 1504 4934 1574 5114 1632 5286 
z
M 4141 5286 
L 3686 5395 
C 3494 4755 3142 4147 2720 3750 
C 2829 3693 3027 3552 3117 3475 
C 3347 3712 3558 4013 3744 4352 
L 4192 4352 
C 4371 4090 4570 3770 4659 3571 
L 5082 3750 
C 4998 3910 4851 4134 4698 4352 
L 5978 4352 
L 5978 4762 
L 3949 4762 
C 4019 4934 4083 5107 4141 5286 
z
" transform="scale(0.015625)"/>
        <path id="SourceHanSansSC-Regular-7ea6" d="M 256 339 
L 333 -128 
C 986 13 1875 186 2733 358 
L 2701 781 
C 1798 608 864 435 256 339 
z
M 3514 2925 
L 3187 2656 
C 3654 2240 4192 1651 4422 1254 
L 4781 1555 
C 4538 1958 3994 2522 3514 2925 
z
M 435 1178 
C 582 1254 813 1306 2643 1606 
C 2624 1702 2618 1888 2624 2016 
L 1107 1792 
C 1638 2362 2163 3066 2605 3776 
L 2208 4019 
C 2074 3782 1926 3539 1766 3309 
L 896 3232 
C 1306 3776 1709 4474 2022 5165 
L 1568 5350 
C 1274 4582 768 3770 621 3558 
C 467 3341 352 3200 230 3168 
C 288 3046 365 2816 390 2714 
C 486 2765 640 2797 1478 2893 
C 1178 2483 909 2157 787 2029 
C 582 1798 422 1638 282 1613 
C 339 1491 410 1274 435 1178 
z
M 4083 5280 
L 3622 5376 
C 3418 4506 3059 3635 2618 3078 
C 2726 3014 2931 2880 3021 2810 
C 3213 3072 3392 3392 3552 3750 
L 5434 3750 
C 5363 1235 5274 275 5082 58 
C 5011 -19 4941 -45 4819 -38 
C 4666 -38 4301 -38 3898 0 
C 3981 -134 4045 -326 4051 -461 
C 4410 -486 4781 -493 4992 -467 
C 5216 -448 5357 -397 5498 -211 
C 5741 96 5818 1062 5901 3955 
C 5901 4019 5907 4198 5907 4198 
L 3738 4198 
C 3866 4544 3987 4909 4083 5280 
z
" transform="scale(0.015625)"/>
        <path id="SourceHanSansSC-Regular-675f" d="M 5498 3546 
L 3437 3546 
L 3437 4243 
L 5933 4243 
L 5933 4698 
L 3437 4698 
L 3437 5370 
L 2944 5370 
L 2944 4698 
L 486 4698 
L 486 4243 
L 2944 4243 
L 2944 3546 
L 928 3546 
L 928 1702 
L 2688 1702 
C 2093 1024 1139 410 256 109 
C 365 6 512 -173 589 -294 
C 1421 38 2310 640 2944 1338 
L 2944 -512 
L 3437 -512 
L 3437 1370 
C 4070 653 4986 32 5837 -307 
C 5914 -179 6067 13 6182 109 
C 5280 410 4307 1024 3712 1702 
L 5498 1702 
L 5498 3546 
z
M 1389 2131 
L 1389 3117 
L 2944 3117 
L 2944 2131 
L 1389 2131 
z
M 3437 3117 
L 5005 3117 
L 5005 2131 
L 3437 2131 
L 3437 3117 
z
" transform="scale(0.015625)"/>
       </defs>
       <use xlink:href="#SourceHanSansSC-Regular-53bb"/>
       <use xlink:href="#SourceHanSansSC-Regular-6389" transform="translate(99.999985 0)"/>
       <use xlink:href="#SourceHanSansSC-Regular-6807" transform="translate(199.999969 0)"/>
       <use xlink:href="#SourceHanSansSC-Regular-8bc6" transform="translate(299.999954 0)"/>
       <use xlink:href="#SourceHanSansSC-Regular-7b26" transform="translate(399.999939 0)"/>
       <use xlink:href="#SourceHanSansSC-Regular-7ea6" transform="translate(499.999924 0)"/>
       <use xlink:href="#SourceHanSansSC-Regular-675f" transform="translate(599.999908 0)"/>
      </g>
     </g>
    </g>
    <g id="xtick_5">
     <g id="line2d_5">
      <g>
       <use xlink:href="#m71df5aa59c" x="454.34517" y="343.299455" style="stroke: #000000; stroke-width: 0.8"/>
      </g>
     </g>
     <g id="text_5">
      <!-- 去掉混合候选池 -->
      <g transform="translate(387.063372 379.50046) rotate(-18) scale(0.1 -0.1)">
       <defs>
        <path id="SourceHanSansSC-Regular-6df7" d="M 2714 3149 
L 2714 3744 
L 5120 3744 
L 5120 3149 
L 2714 3149 
z
M 2714 4122 
L 2714 4710 
L 5120 4710 
L 5120 4122 
L 2714 4122 
z
M 5600 5107 
L 2259 5107 
L 2259 2746 
L 5600 2746 
L 5600 5107 
z
M 864 5280 
L 576 4954 
C 960 4730 1478 4416 1741 4218 
L 2029 4602 
C 1760 4781 1242 5082 864 5280 
z
M 550 3526 
L 275 3194 
C 653 2976 1158 2662 1408 2483 
L 1690 2861 
C 1434 3040 922 3334 550 3526 
z
M 429 -102 
L 838 -429 
C 1216 166 1664 966 1997 1645 
L 1651 1958 
C 1280 1235 774 390 429 -102 
z
M 3878 1702 
L 2771 1702 
L 2771 2477 
L 2304 2477 
L 2304 294 
C 2304 70 2170 -6 2061 -45 
C 2131 -173 2208 -397 2240 -531 
C 2362 -454 2554 -390 3942 -45 
C 3917 58 3885 230 3878 358 
L 2771 102 
L 2771 1274 
L 3878 1274 
L 3878 1702 
z
M 4595 243 
L 4595 986 
C 5107 1190 5670 1453 6080 1715 
L 5741 2080 
C 5466 1856 5024 1613 4595 1414 
L 4595 2451 
L 4134 2451 
L 4134 237 
C 4134 -269 4262 -410 4774 -410 
C 4883 -410 5453 -410 5562 -410 
C 5997 -410 6125 -192 6176 595 
C 6048 627 5856 704 5760 781 
C 5741 128 5709 26 5517 26 
C 5402 26 4928 26 4832 26 
C 4627 26 4595 58 4595 243 
z
" transform="scale(0.015625)"/>
        <path id="SourceHanSansSC-Regular-5408" d="M 1779 3283 
C 2323 3642 2822 4070 3238 4544 
C 3731 4032 4243 3629 4806 3283 
L 1779 3283 
z
M 3731 5178 
L 3309 5395 
C 2656 4403 1472 3539 256 3066 
C 390 2950 525 2771 608 2643 
C 941 2790 1267 2963 1587 3162 
L 1587 2842 
L 4819 2842 
L 4819 3277 
C 5152 3066 5498 2880 5862 2707 
C 5933 2854 6074 3027 6202 3136 
C 5184 3565 4275 4096 3526 4890 
L 3731 5178 
z
M 1741 307 
L 1741 1632 
L 4723 1632 
L 4723 307 
L 1741 307 
z
M 5229 2074 
L 1254 2074 
L 1254 -499 
L 1741 -499 
L 1741 -141 
L 4723 -141 
L 4723 -474 
L 5229 -474 
L 5229 2074 
z
" transform="scale(0.015625)"/>
        <path id="SourceHanSansSC-Regular-5019" d="M 2323 3994 
L 1901 3994 
L 1901 742 
L 2323 742 
L 2323 3994 
z
M 4576 1709 
L 4576 2419 
L 5882 2419 
L 5882 2829 
L 3597 2829 
C 3661 2995 3725 3162 3776 3334 
L 3341 3437 
C 3174 2880 2893 2330 2541 1965 
C 2650 1907 2835 1786 2925 1715 
C 3091 1907 3258 2150 3398 2419 
L 4109 2419 
L 4109 1715 
L 4109 1581 
L 2592 1581 
L 2592 1165 
L 4038 1165 
C 3904 698 3507 192 2394 -166 
C 2496 -256 2630 -416 2694 -525 
C 3661 -166 4141 288 4371 755 
C 4608 275 5030 -224 5907 -480 
C 5965 -352 6093 -173 6195 -83 
C 5197 173 4806 710 4640 1165 
L 6093 1165 
L 6093 1581 
L 4576 1581 
L 4576 1709 
z
M 5120 5069 
L 2938 5069 
L 2938 4659 
L 5024 4659 
L 4902 3891 
L 2579 3891 
L 2579 3475 
L 6086 3475 
L 6086 3891 
L 5363 3891 
C 5427 4256 5485 4678 5530 5050 
L 5197 5088 
L 5120 5069 
z
M 1920 5216 
L 1472 5338 
C 1190 4352 736 3373 211 2726 
C 294 2605 429 2349 467 2234 
C 627 2432 781 2662 928 2912 
L 928 -518 
L 1382 -518 
L 1382 3782 
C 1594 4243 1773 4730 1920 5216 
z
" transform="scale(0.015625)"/>
        <path id="SourceHanSansSC-Regular-9009" d="M 755 5158 
L 390 4896 
C 762 4582 1197 4134 1382 3821 
L 1779 4122 
C 1574 4429 1133 4864 755 5158 
z
M 4819 1229 
L 4819 2707 
L 6086 2707 
L 6086 3136 
L 4339 3136 
L 4339 4070 
L 5818 4070 
L 5818 4486 
L 4339 4486 
L 4339 5350 
L 3859 5350 
L 3859 4486 
L 3104 4486 
C 3187 4678 3258 4883 3315 5088 
L 2854 5184 
C 2701 4614 2432 4051 2086 3674 
C 2208 3616 2406 3488 2496 3424 
C 2643 3603 2784 3821 2912 4070 
L 3859 4070 
L 3859 3136 
L 2048 3136 
L 2048 2707 
L 3206 2707 
C 3098 1869 2835 1261 1875 922 
C 1978 832 2118 653 2176 531 
C 3245 960 3565 1690 3686 2707 
L 4346 2707 
L 4346 1222 
C 4346 742 4454 595 4934 595 
C 5030 595 5466 595 5562 595 
C 5965 595 6093 800 6138 1613 
C 6003 1645 5805 1722 5715 1805 
C 5696 1133 5670 1043 5510 1043 
C 5421 1043 5069 1043 5005 1043 
C 4838 1043 4819 1062 4819 1229 
z
M 1606 640 
L 1606 2918 
L 358 2918 
L 358 2470 
L 1146 2470 
L 1146 531 
C 870 403 576 173 288 -96 
L 608 -512 
C 973 -115 1318 218 1555 218 
C 1696 218 1894 32 2144 -122 
C 2566 -371 3098 -435 3840 -435 
C 4467 -435 5549 -403 6048 -371 
C 6054 -230 6131 6 6182 128 
C 5549 64 4576 19 3846 19 
C 3168 19 2630 58 2234 294 
C 1926 474 1779 627 1606 640 
z
" transform="scale(0.015625)"/>
        <path id="SourceHanSansSC-Regular-6c60" d="M 858 5306 
L 595 4954 
C 1011 4774 1523 4467 1773 4256 
L 2054 4653 
C 1792 4864 1267 5133 858 5306 
z
M 506 3552 
L 256 3194 
C 653 3014 1152 2726 1402 2522 
L 1664 2918 
C 1408 3123 909 3386 506 3552 
z
M 467 -102 
L 883 -416 
C 1248 186 1670 986 1997 1658 
L 1632 1958 
C 1280 1235 794 390 467 -102 
z
M 3008 448 
L 3008 2720 
L 3942 3085 
L 3942 915 
L 4416 915 
L 4416 3270 
L 5414 3661 
C 5408 2643 5395 1971 5350 1798 
C 5312 1632 5248 1606 5133 1606 
C 5056 1606 4819 1606 4640 1619 
C 4704 1504 4749 1299 4762 1165 
C 4960 1158 5242 1165 5421 1210 
C 5619 1261 5747 1382 5798 1677 
C 5856 1946 5875 2874 5875 4038 
L 5901 4128 
L 5555 4262 
L 5472 4186 
L 5427 4154 
L 4416 3757 
L 4416 5363 
L 3942 5363 
L 3942 3578 
L 3008 3213 
L 3008 4749 
L 2534 4749 
L 2534 3034 
L 1766 2733 
L 1952 2310 
L 2534 2534 
L 2534 454 
C 2534 -256 2758 -448 3533 -448 
C 3706 -448 5030 -448 5216 -448 
C 5926 -448 6080 -154 6163 736 
C 6029 768 5830 845 5715 934 
C 5664 179 5594 0 5197 0 
C 4915 0 3770 0 3546 0 
C 3091 0 3008 83 3008 448 
z
" transform="scale(0.015625)"/>
       </defs>
       <use xlink:href="#SourceHanSansSC-Regular-53bb"/>
       <use xlink:href="#SourceHanSansSC-Regular-6389" transform="translate(99.999985 0)"/>
       <use xlink:href="#SourceHanSansSC-Regular-6df7" transform="translate(199.999969 0)"/>
       <use xlink:href="#SourceHanSansSC-Regular-5408" transform="translate(299.999954 0)"/>
       <use xlink:href="#SourceHanSansSC-Regular-5019" transform="translate(399.999939 0)"/>
       <use xlink:href="#SourceHanSansSC-Regular-9009" transform="translate(499.999924 0)"/>
       <use xlink:href="#SourceHanSansSC-Regular-6c60" transform="translate(599.999908 0)"/>
      </g>
     </g>
    </g>
    <g id="xtick_6">
     <g id="line2d_6">
      <g>
       <use xlink:href="#m71df5aa59c" x="524.973864" y="343.299455" style="stroke: #000000; stroke-width: 0.8"/>
      </g>
     </g>
     <g id="text_6">
      <!-- 完整方案 -->
      <g transform="translate(486.223761 370.229951) rotate(-18) scale(0.1 -0.1)">
       <defs>
        <path id="SourceHanSansSC-Regular-5b8c" d="M 4934 3494 
L 1453 3494 
L 1453 3053 
L 4934 3053 
L 4934 3494 
z
M 4179 250 
L 4179 1856 
L 6035 1856 
L 6035 2304 
L 358 2304 
L 358 1856 
L 2080 1856 
C 2003 717 1741 160 282 -122 
C 371 -218 499 -397 538 -518 
C 2138 -179 2477 518 2573 1856 
L 3699 1856 
L 3699 250 
C 3699 -262 3846 -410 4442 -410 
C 4563 -410 5293 -410 5421 -410 
C 5933 -410 6067 -186 6125 691 
C 5997 730 5792 806 5683 883 
C 5664 141 5626 32 5382 32 
C 5216 32 4614 32 4486 32 
C 4224 32 4179 64 4179 250 
z
M 3181 5434 
L 2694 5293 
C 2810 5094 2925 4851 3014 4640 
L 525 4640 
L 525 3226 
L 1005 3226 
L 1005 4179 
L 5370 4179 
L 5370 3226 
L 5862 3226 
L 5862 4640 
L 3584 4640 
C 3494 4877 3328 5197 3181 5434 
z
" transform="scale(0.015625)"/>
        <path id="SourceHanSansSC-Regular-6574" d="M 1818 1139 
L 1357 1139 
L 1357 70 
L 301 70 
L 301 -339 
L 6112 -339 
L 6112 70 
L 3430 70 
L 3430 602 
L 5274 602 
L 5274 973 
L 3430 973 
L 3430 1472 
L 5696 1472 
L 5696 1882 
L 730 1882 
L 730 1472 
L 2957 1472 
L 2957 70 
L 1818 70 
L 1818 1139 
z
M 2246 3149 
L 2061 2925 
L 2061 3168 
L 3117 3168 
L 3117 4282 
L 2061 4282 
L 2061 4608 
L 3283 4608 
L 3283 4973 
L 2061 4973 
L 2061 5376 
L 1638 5376 
L 1638 4973 
L 365 4973 
L 365 4608 
L 1638 4608 
L 1638 4282 
L 550 4282 
L 550 3168 
L 1491 3168 
C 1190 2822 691 2483 250 2317 
C 346 2246 467 2106 531 2010 
C 909 2176 1325 2496 1638 2835 
L 1638 2054 
L 2061 2054 
L 2061 2886 
C 2362 2726 2720 2490 2912 2323 
L 3117 2605 
C 2931 2778 2554 3008 2246 3149 
z
M 947 3488 
L 947 3962 
L 1638 3962 
L 1638 3488 
L 947 3488 
z
M 2061 3962 
L 2707 3962 
L 2707 3488 
L 2061 3488 
L 2061 3962 
z
M 6093 4659 
L 4301 4659 
C 4390 4858 4461 5069 4525 5280 
L 4090 5376 
C 3910 4730 3590 4128 3168 3744 
C 3264 3667 3424 3501 3494 3418 
C 3629 3546 3750 3699 3872 3872 
C 4006 3578 4186 3277 4422 3002 
C 4090 2714 3667 2496 3174 2336 
C 3264 2253 3405 2074 3456 1984 
C 3942 2170 4365 2400 4710 2701 
C 5024 2400 5414 2144 5882 1965 
C 5939 2080 6067 2259 6157 2342 
C 5696 2490 5312 2720 4998 2989 
C 5299 3334 5530 3750 5677 4256 
L 6093 4256 
L 6093 4659 
z
M 4109 4256 
L 5216 4256 
C 5107 3878 4934 3558 4704 3290 
C 4435 3590 4237 3930 4109 4256 
z
" transform="scale(0.015625)"/>
       </defs>
       <use xlink:href="#SourceHanSansSC-Regular-5b8c"/>
       <use xlink:href="#SourceHanSansSC-Regular-6574" transform="translate(99.999985 0)"/>
       <use xlink:href="#SourceHanSansSC-Regular-65b9" transform="translate(199.999969 0)"/>
       <use xlink:href="#SourceHanSansSC-Regular-6848" transform="translate(299.999954 0)"/>
      </g>
     </g>
    </g>
   </g>
   <g id="matplotlib.axis_2">
    <g id="ytick_1">
     <g id="line2d_7">
      <path d="M 126.204259 343.299455 
L 570.6 343.299455 
" clip-path="url(#pbea52c2177)" style="fill: none; stroke: #b0b0b0; stroke-opacity: 0.2; stroke-width: 0.8; stroke-linecap: square"/>
     </g>
     <g id="line2d_8">
      <defs>
       <path id="m9c29fa6aa0" d="M 0 0 
L -3.5 0 
" style="stroke: #000000; stroke-width: 0.8"/>
      </defs>
      <g>
       <use xlink:href="#m9c29fa6aa0" x="126.204259" y="343.299455" style="stroke: #000000; stroke-width: 0.8"/>
      </g>
     </g>
     <g id="text_7">
      <!-- 0.0 -->
      <g transform="translate(103.301134 347.098674) scale(0.1 -0.1)">
       <defs>
        <path id="DejaVuSans-30" d="M 2034 4250 
Q 1547 4250 1301 3770 
Q 1056 3291 1056 2328 
Q 1056 1369 1301 889 
Q 1547 409 2034 409 
Q 2525 409 2770 889 
Q 3016 1369 3016 2328 
Q 3016 3291 2770 3770 
Q 2525 4250 2034 4250 
z
M 2034 4750 
Q 2819 4750 3233 4129 
Q 3647 3509 3647 2328 
Q 3647 1150 3233 529 
Q 2819 -91 2034 -91 
Q 1250 -91 836 529 
Q 422 1150 422 2328 
Q 422 3509 836 4129 
Q 1250 4750 2034 4750 
z
" transform="scale(0.015625)"/>
        <path id="DejaVuSans-2e" d="M 684 794 
L 1344 794 
L 1344 0 
L 684 0 
L 684 794 
z
" transform="scale(0.015625)"/>
       </defs>
       <use xlink:href="#DejaVuSans-30"/>
       <use xlink:href="#DejaVuSans-2e" transform="translate(63.623047 0)"/>
       <use xlink:href="#DejaVuSans-30" transform="translate(95.410156 0)"/>
      </g>
     </g>
    </g>
    <g id="ytick_2">
     <g id="line2d_9">
      <path d="M 126.204259 304.087093 
L 570.6 304.087093 
" clip-path="url(#pbea52c2177)" style="fill: none; stroke: #b0b0b0; stroke-opacity: 0.2; stroke-width: 0.8; stroke-linecap: square"/>
     </g>
     <g id="line2d_10">
      <g>
       <use xlink:href="#m9c29fa6aa0" x="126.204259" y="304.087093" style="stroke: #000000; stroke-width: 0.8"/>
      </g>
     </g>
     <g id="text_8">
      <!-- 0.1 -->
      <g transform="translate(103.301134 307.886312) scale(0.1 -0.1)">
       <defs>
        <path id="DejaVuSans-31" d="M 794 531 
L 1825 531 
L 1825 4091 
L 703 3866 
L 703 4441 
L 1819 4666 
L 2450 4666 
L 2450 531 
L 3481 531 
L 3481 0 
L 794 0 
L 794 531 
z
" transform="scale(0.015625)"/>
       </defs>
       <use xlink:href="#DejaVuSans-30"/>
       <use xlink:href="#DejaVuSans-2e" transform="translate(63.623047 0)"/>
       <use xlink:href="#DejaVuSans-31" transform="translate(95.410156 0)"/>
      </g>
     </g>
    </g>
    <g id="ytick_3">
     <g id="line2d_11">
      <path d="M 126.204259 264.874731 
L 570.6 264.874731 
" clip-path="url(#pbea52c2177)" style="fill: none; stroke: #b0b0b0; stroke-opacity: 0.2; stroke-width: 0.8; stroke-linecap: square"/>
     </g>
     <g id="line2d_12">
      <g>
       <use xlink:href="#m9c29fa6aa0" x="126.204259" y="264.874731" style="stroke: #000000; stroke-width: 0.8"/>
      </g>
     </g>
     <g id="text_9">
      <!-- 0.2 -->
      <g transform="translate(103.301134 268.67395) scale(0.1 -0.1)">
       <defs>
        <path id="DejaVuSans-32" d="M 1228 531 
L 3431 531 
L 3431 0 
L 469 0 
L 469 531 
Q 828 903 1448 1529 
Q 2069 2156 2228 2338 
Q 2531 2678 2651 2914 
Q 2772 3150 2772 3378 
Q 2772 3750 2511 3984 
Q 2250 4219 1831 4219 
Q 1534 4219 1204 4116 
Q 875 4013 500 3803 
L 500 4441 
Q 881 4594 1212 4672 
Q 1544 4750 1819 4750 
Q 2544 4750 2975 4387 
Q 3406 4025 3406 3419 
Q 3406 3131 3298 2873 
Q 3191 2616 2906 2266 
Q 2828 2175 2409 1742 
Q 1991 1309 1228 531 
z
" transform="scale(0.015625)"/>
       </defs>
       <use xlink:href="#DejaVuSans-30"/>
       <use xlink:href="#DejaVuSans-2e" transform="translate(63.623047 0)"/>
       <use xlink:href="#DejaVuSans-32" transform="translate(95.410156 0)"/>
      </g>
     </g>
    </g>
    <g id="ytick_4">
     <g id="line2d_13">
      <path d="M 126.204259 225.662369 
L 570.6 225.662369 
" clip-path="url(#pbea52c2177)" style="fill: none; stroke: #b0b0b0; stroke-opacity: 0.2; stroke-width: 0.8; stroke-linecap: square"/>
     </g>
     <g id="line2d_14">
      <g>
       <use xlink:href="#m9c29fa6aa0" x="126.204259" y="225.662369" style="stroke: #000000; stroke-width: 0.8"/>
      </g>
     </g>
     <g id="text_10">
      <!-- 0.3 -->
      <g transform="translate(103.301134 229.461587) scale(0.1 -0.1)">
       <defs>
        <path id="DejaVuSans-33" d="M 2597 2516 
Q 3050 2419 3304 2112 
Q 3559 1806 3559 1356 
Q 3559 666 3084 287 
Q 2609 -91 1734 -91 
Q 1441 -91 1130 -33 
Q 819 25 488 141 
L 488 750 
Q 750 597 1062 519 
Q 1375 441 1716 441 
Q 2309 441 2620 675 
Q 2931 909 2931 1356 
Q 2931 1769 2642 2001 
Q 2353 2234 1838 2234 
L 1294 2234 
L 1294 2753 
L 1863 2753 
Q 2328 2753 2575 2939 
Q 2822 3125 2822 3475 
Q 2822 3834 2567 4026 
Q 2313 4219 1838 4219 
Q 1578 4219 1281 4162 
Q 984 4106 628 3988 
L 628 4550 
Q 988 4650 1302 4700 
Q 1616 4750 1894 4750 
Q 2613 4750 3031 4423 
Q 3450 4097 3450 3541 
Q 3450 3153 3228 2886 
Q 3006 2619 2597 2516 
z
" transform="scale(0.015625)"/>
       </defs>
       <use xlink:href="#DejaVuSans-30"/>
       <use xlink:href="#DejaVuSans-2e" transform="translate(63.623047 0)"/>
       <use xlink:href="#DejaVuSans-33" transform="translate(95.410156 0)"/>
      </g>
     </g>
    </g>
    <g id="ytick_5">
     <g id="line2d_15">
      <path d="M 126.204259 186.450007 
L 570.6 186.450007 
" clip-path="url(#pbea52c2177)" style="fill: none; stroke: #b0b0b0; stroke-opacity: 0.2; stroke-width: 0.8; stroke-linecap: square"/>
     </g>
     <g id="line2d_16">
      <g>
       <use xlink:href="#m9c29fa6aa0" x="126.204259" y="186.450007" style="stroke: #000000; stroke-width: 0.8"/>
      </g>
     </g>
     <g id="text_11">
      <!-- 0.4 -->
      <g transform="translate(103.301134 190.249225) scale(0.1 -0.1)">
       <defs>
        <path id="DejaVuSans-34" d="M 2419 4116 
L 825 1625 
L 2419 1625 
L 2419 4116 
z
M 2253 4666 
L 3047 4666 
L 3047 1625 
L 3713 1625 
L 3713 1100 
L 3047 1100 
L 3047 0 
L 2419 0 
L 2419 1100 
L 313 1100 
L 313 1709 
L 2253 4666 
z
" transform="scale(0.015625)"/>
       </defs>
       <use xlink:href="#DejaVuSans-30"/>
       <use xlink:href="#DejaVuSans-2e" transform="translate(63.623047 0)"/>
       <use xlink:href="#DejaVuSans-34" transform="translate(95.410156 0)"/>
      </g>
     </g>
    </g>
    <g id="ytick_6">
     <g id="line2d_17">
      <path d="M 126.204259 147.237644 
L 570.6 147.237644 
" clip-path="url(#pbea52c2177)" style="fill: none; stroke: #b0b0b0; stroke-opacity: 0.2; stroke-width: 0.8; stroke-linecap: square"/>
     </g>
     <g id="line2d_18">
      <g>
       <use xlink:href="#m9c29fa6aa0" x="126.204259" y="147.237644" style="stroke: #000000; stroke-width: 0.8"/>
      </g>
     </g>
     <g id="text_12">
      <!-- 0.5 -->
      <g transform="translate(103.301134 151.036863) scale(0.1 -0.1)">
       <defs>
        <path id="DejaVuSans-35" d="M 691 4666 
L 3169 4666 
L 3169 4134 
L 1269 4134 
L 1269 2991 
Q 1406 3038 1543 3061 
Q 1681 3084 1819 3084 
Q 2600 3084 3056 2656 
Q 3513 2228 3513 1497 
Q 3513 744 3044 326 
Q 2575 -91 1722 -91 
Q 1428 -91 1123 -41 
Q 819 9 494 109 
L 494 744 
Q 775 591 1075 516 
Q 1375 441 1709 441 
Q 2250 441 2565 725 
Q 2881 1009 2881 1497 
Q 2881 1984 2565 2268 
Q 2250 2553 1709 2553 
Q 1456 2553 1204 2497 
Q 953 2441 691 2322 
L 691 4666 
z
" transform="scale(0.015625)"/>
       </defs>
       <use xlink:href="#DejaVuSans-30"/>
       <use xlink:href="#DejaVuSans-2e" transform="translate(63.623047 0)"/>
       <use xlink:href="#DejaVuSans-35" transform="translate(95.410156 0)"/>
      </g>
     </g>
    </g>
    <g id="ytick_7">
     <g id="line2d_19">
      <path d="M 126.204259 108.025282 
L 570.6 108.025282 
" clip-path="url(#pbea52c2177)" style="fill: none; stroke: #b0b0b0; stroke-opacity: 0.2; stroke-width: 0.8; stroke-linecap: square"/>
     </g>
     <g id="line2d_20">
      <g>
       <use xlink:href="#m9c29fa6aa0" x="126.204259" y="108.025282" style="stroke: #000000; stroke-width: 0.8"/>
      </g>
     </g>
     <g id="text_13">
      <!-- 0.6 -->
      <g transform="translate(103.301134 111.824501) scale(0.1 -0.1)">
       <defs>
        <path id="DejaVuSans-36" d="M 2113 2584 
Q 1688 2584 1439 2293 
Q 1191 2003 1191 1497 
Q 1191 994 1439 701 
Q 1688 409 2113 409 
Q 2538 409 2786 701 
Q 3034 994 3034 1497 
Q 3034 2003 2786 2293 
Q 2538 2584 2113 2584 
z
M 3366 4563 
L 3366 3988 
Q 3128 4100 2886 4159 
Q 2644 4219 2406 4219 
Q 1781 4219 1451 3797 
Q 1122 3375 1075 2522 
Q 1259 2794 1537 2939 
Q 1816 3084 2150 3084 
Q 2853 3084 3261 2657 
Q 3669 2231 3669 1497 
Q 3669 778 3244 343 
Q 2819 -91 2113 -91 
Q 1303 -91 875 529 
Q 447 1150 447 2328 
Q 447 3434 972 4092 
Q 1497 4750 2381 4750 
Q 2619 4750 2861 4703 
Q 3103 4656 3366 4563 
z
" transform="scale(0.015625)"/>
       </defs>
       <use xlink:href="#DejaVuSans-30"/>
       <use xlink:href="#DejaVuSans-2e" transform="translate(63.623047 0)"/>
       <use xlink:href="#DejaVuSans-36" transform="translate(95.410156 0)"/>
      </g>
     </g>
    </g>
    <g id="ytick_8">
     <g id="line2d_21">
      <path d="M 126.204259 68.81292 
L 570.6 68.81292 
" clip-path="url(#pbea52c2177)" style="fill: none; stroke: #b0b0b0; stroke-opacity: 0.2; stroke-width: 0.8; stroke-linecap: square"/>
     </g>
     <g id="line2d_22">
      <g>
       <use xlink:href="#m9c29fa6aa0" x="126.204259" y="68.81292" style="stroke: #000000; stroke-width: 0.8"/>
      </g>
     </g>
     <g id="text_14">
      <!-- 0.7 -->
      <g transform="translate(103.301134 72.612139) scale(0.1 -0.1)">
       <defs>
        <path id="DejaVuSans-37" d="M 525 4666 
L 3525 4666 
L 3525 4397 
L 1831 0 
L 1172 0 
L 2766 4134 
L 525 4134 
L 525 4666 
z
" transform="scale(0.015625)"/>
       </defs>
       <use xlink:href="#DejaVuSans-30"/>
       <use xlink:href="#DejaVuSans-2e" transform="translate(63.623047 0)"/>
       <use xlink:href="#DejaVuSans-37" transform="translate(95.410156 0)"/>
      </g>
     </g>
    </g>
    <g id="ytick_9">
     <g id="line2d_23">
      <path d="M 126.204259 29.600558 
L 570.6 29.600558 
" clip-path="url(#pbea52c2177)" style="fill: none; stroke: #b0b0b0; stroke-opacity: 0.2; stroke-width: 0.8; stroke-linecap: square"/>
     </g>
     <g id="line2d_24">
      <g>
       <use xlink:href="#m9c29fa6aa0" x="126.204259" y="29.600558" style="stroke: #000000; stroke-width: 0.8"/>
      </g>
     </g>
     <g id="text_15">
      <!-- 0.8 -->
      <g transform="translate(103.301134 33.399776) scale(0.1 -0.1)">
       <defs>
        <path id="DejaVuSans-38" d="M 2034 2216 
Q 1584 2216 1326 1975 
Q 1069 1734 1069 1313 
Q 1069 891 1326 650 
Q 1584 409 2034 409 
Q 2484 409 2743 651 
Q 3003 894 3003 1313 
Q 3003 1734 2745 1975 
Q 2488 2216 2034 2216 
z
M 1403 2484 
Q 997 2584 770 2862 
Q 544 3141 544 3541 
Q 544 4100 942 4425 
Q 1341 4750 2034 4750 
Q 2731 4750 3128 4425 
Q 3525 4100 3525 3541 
Q 3525 3141 3298 2862 
Q 3072 2584 2669 2484 
Q 3125 2378 3379 2068 
Q 3634 1759 3634 1313 
Q 3634 634 3220 271 
Q 2806 -91 2034 -91 
Q 1263 -91 848 271 
Q 434 634 434 1313 
Q 434 1759 690 2068 
Q 947 2378 1403 2484 
z
M 1172 3481 
Q 1172 3119 1398 2916 
Q 1625 2713 2034 2713 
Q 2441 2713 2670 2916 
Q 2900 3119 2900 3481 
Q 2900 3844 2670 4047 
Q 2441 4250 2034 4250 
Q 1625 4250 1398 4047 
Q 1172 3844 1172 3481 
z
" transform="scale(0.015625)"/>
       </defs>
       <use xlink:href="#DejaVuSans-30"/>
       <use xlink:href="#DejaVuSans-2e" transform="translate(63.623047 0)"/>
       <use xlink:href="#DejaVuSans-38" transform="translate(95.410156 0)"/>
      </g>
     </g>
    </g>
    <g id="text_16">
     <!-- nDCG@10 -->
     <g transform="translate(97.010509 207.46504) rotate(-90) scale(0.1 -0.1)">
      <defs>
       <path id="SourceHanSansSC-Regular-44" d="M 646 0 
L 1843 0 
C 3258 0 4026 877 4026 2362 
C 4026 3859 3258 4691 1818 4691 
L 646 4691 
L 646 0 
z
M 1235 486 
L 1235 4211 
L 1766 4211 
C 2874 4211 3418 3552 3418 2362 
C 3418 1178 2874 486 1766 486 
L 1235 486 
z
" transform="scale(0.015625)"/>
       <path id="SourceHanSansSC-Regular-43" d="M 2426 -83 
C 3034 -83 3469 154 3846 589 
L 3539 934 
C 3238 608 2899 435 2464 435 
C 1555 435 979 1178 979 2362 
C 979 3526 1574 4256 2458 4256 
C 2848 4256 3168 4102 3418 3840 
L 3738 4198 
C 3469 4518 3014 4774 2451 4774 
C 1261 4774 371 3859 371 2342 
C 371 819 1254 -83 2426 -83 
z
" transform="scale(0.015625)"/>
       <path id="SourceHanSansSC-Regular-47" d="M 2490 -83 
C 3117 -83 3635 147 3936 461 
L 3936 2432 
L 2394 2432 
L 2394 1939 
L 3392 1939 
L 3392 710 
C 3206 538 2880 435 2547 435 
C 1542 435 979 1178 979 2362 
C 979 3533 1594 4256 2541 4256 
C 3008 4256 3315 4083 3552 3834 
L 3872 4198 
C 3603 4493 3174 4774 2522 4774 
C 1280 4774 371 3859 371 2342 
C 371 819 1254 -83 2490 -83 
z
" transform="scale(0.015625)"/>
       <path id="SourceHanSansSC-Regular-40" d="M 2874 -1107 
C 3373 -1107 3821 -992 4237 -742 
L 4077 -397 
C 3763 -582 3360 -717 2918 -717 
C 1702 -717 787 77 787 1472 
C 787 3142 2022 4230 3296 4230 
C 4595 4230 5280 3386 5280 2227 
C 5280 1306 4768 749 4314 749 
C 3923 749 3782 1024 3923 1594 
L 4205 3021 
L 3821 3021 
L 3738 2726 
L 3725 2726 
C 3590 2963 3398 3078 3155 3078 
C 2317 3078 1773 2176 1773 1421 
C 1773 768 2150 403 2637 403 
C 2957 403 3277 621 3507 896 
L 3526 896 
C 3571 531 3872 352 4262 352 
C 4909 352 5690 1005 5690 2253 
C 5690 3661 4781 4621 3347 4621 
C 1747 4621 358 3366 358 1453 
C 358 -218 1478 -1107 2874 -1107 
z
M 2752 806 
C 2464 806 2246 992 2246 1453 
C 2246 1997 2598 2669 3155 2669 
C 3354 2669 3482 2592 3616 2368 
L 3418 1235 
C 3168 934 2950 806 2752 806 
z
" transform="scale(0.015625)"/>
       <path id="SourceHanSansSC-Regular-31" d="M 563 0 
L 3136 0 
L 3136 486 
L 2195 486 
L 2195 4691 
L 1747 4691 
C 1491 4544 1190 4435 774 4358 
L 774 3987 
L 1613 3987 
L 1613 486 
L 563 486 
L 563 0 
z
" transform="scale(0.015625)"/>
      </defs>
      <use xlink:href="#SourceHanSansSC-Regular-6e"/>
      <use xlink:href="#SourceHanSansSC-Regular-44" transform="translate(60.999985 0)"/>
      <use xlink:href="#SourceHanSansSC-Regular-43" transform="translate(129.799973 0)"/>
      <use xlink:href="#SourceHanSansSC-Regular-47" transform="translate(193.59996 0)"/>
      <use xlink:href="#SourceHanSansSC-Regular-40" transform="translate(262.499954 0)"/>
      <use xlink:href="#SourceHanSansSC-Regular-31" transform="translate(357.099945 0)"/>
      <use xlink:href="#SourceHanSansSC-Regular-30" transform="translate(412.59993 0)"/>
     </g>
    </g>
   </g>
   <g id="LineCollection_1">
    <path d="M 171.830395 91.68657 
L 171.830395 76.46806 
" clip-path="url(#pbea52c2177)" style="fill: none; stroke: #1f2937; stroke-width: 1.1"/>
    <path d="M 242.459089 93.85679 
L 242.459089 78.994101 
" clip-path="url(#pbea52c2177)" style="fill: none; stroke: #1f2937; stroke-width: 1.1"/>
    <path d="M 313.087783 83.131131 
L 313.087783 68.529231 
" clip-path="url(#pbea52c2177)" style="fill: none; stroke: #1f2937; stroke-width: 1.1"/>
    <path d="M 383.716477 81.325614 
L 383.716477 66.361885 
" clip-path="url(#pbea52c2177)" style="fill: none; stroke: #1f2937; stroke-width: 1.1"/>
    <path d="M 454.34517 102.463228 
L 454.34517 88.088695 
" clip-path="url(#pbea52c2177)" style="fill: none; stroke: #1f2937; stroke-width: 1.1"/>
    <path d="M 524.973864 81.918945 
L 524.973864 67.198407 
" clip-path="url(#pbea52c2177)" style="fill: none; stroke: #1f2937; stroke-width: 1.1"/>
   </g>
   <g id="line2d_25">
    <defs>
     <path id="m54de800522" d="M 4 0 
L -4 -0 
" style="stroke: #1f2937"/>
    </defs>
    <g clip-path="url(#pbea52c2177)">
     <use xlink:href="#m54de800522" x="171.830395" y="91.68657" style="fill: #1f77b4; stroke: #1f2937"/>
     <use xlink:href="#m54de800522" x="242.459089" y="93.85679" style="fill: #1f77b4; stroke: #1f2937"/>
     <use xlink:href="#m54de800522" x="313.087783" y="83.131131" style="fill: #1f77b4; stroke: #1f2937"/>
     <use xlink:href="#m54de800522" x="383.716477" y="81.325614" style="fill: #1f77b4; stroke: #1f2937"/>
     <use xlink:href="#m54de800522" x="454.34517" y="102.463228" style="fill: #1f77b4; stroke: #1f2937"/>
     <use xlink:href="#m54de800522" x="524.973864" y="81.918945" style="fill: #1f77b4; stroke: #1f2937"/>
    </g>
   </g>
   <g id="line2d_26">
    <g clip-path="url(#pbea52c2177)">
     <use xlink:href="#m54de800522" x="171.830395" y="76.46806" style="fill: #1f77b4; stroke: #1f2937"/>
     <use xlink:href="#m54de800522" x="242.459089" y="78.994101" style="fill: #1f77b4; stroke: #1f2937"/>
     <use xlink:href="#m54de800522" x="313.087783" y="68.529231" style="fill: #1f77b4; stroke: #1f2937"/>
     <use xlink:href="#m54de800522" x="383.716477" y="66.361885" style="fill: #1f77b4; stroke: #1f2937"/>
     <use xlink:href="#m54de800522" x="454.34517" y="88.088695" style="fill: #1f77b4; stroke: #1f2937"/>
     <use xlink:href="#m54de800522" x="524.973864" y="67.198407" style="fill: #1f77b4; stroke: #1f2937"/>
    </g>
   </g>
   <g id="patch_9">
    <path d="M 126.204259 343.299455 
L 126.204259 24.82125 
" style="fill: none; stroke: #000000; stroke-width: 0.8; stroke-linejoin: miter; stroke-linecap: square"/>
   </g>
   <g id="patch_10">
    <path d="M 570.6 343.299455 
L 570.6 24.82125 
" style="fill: none; stroke: #000000; stroke-width: 0.8; stroke-linejoin: miter; stroke-linecap: square"/>
   </g>
   <g id="patch_11">
    <path d="M 126.204259 343.299455 
L 570.6 343.299455 
" style="fill: none; stroke: #000000; stroke-width: 0.8; stroke-linejoin: miter; stroke-linecap: square"/>
   </g>
   <g id="patch_12">
    <path d="M 126.204259 24.82125 
L 570.6 24.82125 
" style="fill: none; stroke: #000000; stroke-width: 0.8; stroke-linejoin: miter; stroke-linecap: square"/>
   </g>
   <g id="text_17">
    <!-- DuRetrieval 去模块消融：nDCG@10 -->
    <g transform="translate(266.646661 18.82125) scale(0.1 -0.1)">
     <defs>
      <path id="SourceHanSansSC-Regular-75" d="M 1606 -83 
C 2080 -83 2426 166 2752 544 
L 2771 544 
L 2816 0 
L 3302 0 
L 3302 3475 
L 2720 3475 
L 2720 1011 
C 2387 602 2138 422 1779 422 
C 1318 422 1126 698 1126 1344 
L 1126 3475 
L 538 3475 
L 538 1274 
C 538 384 870 -83 1606 -83 
z
" transform="scale(0.015625)"/>
      <path id="SourceHanSansSC-Regular-74" d="M 1677 -70 
C 1914 -70 2144 -6 2330 83 
L 2208 499 
C 2074 429 1939 410 1811 410 
C 1408 410 1274 653 1274 1082 
L 1274 3002 
L 2221 3002 
L 2221 3475 
L 1274 3475 
L 1274 4595 
L 787 4595 
L 723 3475 
L 173 3443 
L 173 3002 
L 691 3002 
L 691 1094 
C 691 403 941 -70 1677 -70 
z
" transform="scale(0.015625)"/>
      <path id="SourceHanSansSC-Regular-76" d="M 1338 0 
L 2022 0 
L 3251 3475 
L 2675 3475 
L 2016 1498 
C 1914 1158 1798 806 1696 474 
L 1664 474 
C 1562 806 1453 1158 1344 1498 
L 691 3475 
L 83 3475 
L 1338 0 
z
" transform="scale(0.015625)"/>
      <path id="SourceHanSansSC-Regular-6a21" d="M 3021 2208 
L 3021 2669 
L 5248 2669 
L 5248 2208 
L 3021 2208 
z
M 3021 3021 
L 3021 3469 
L 5248 3469 
L 5248 3021 
L 3021 3021 
z
M 5152 5376 
L 4685 5376 
L 4685 4845 
L 3699 4845 
L 3699 5376 
L 3245 5376 
L 3245 4845 
L 2304 4845 
L 2304 4435 
L 3245 4435 
L 3245 3955 
L 3699 3955 
L 3699 4435 
L 4685 4435 
L 4685 3955 
L 5152 3955 
L 5152 4435 
L 6048 4435 
L 6048 4845 
L 5152 4845 
L 5152 5376 
z
M 5715 3834 
L 2573 3834 
L 2573 1850 
L 3878 1850 
C 3853 1658 3827 1485 3782 1318 
L 2176 1318 
L 2176 909 
L 3642 909 
C 3398 416 2938 77 1997 -128 
C 2086 -224 2208 -403 2253 -512 
C 3366 -243 3885 218 4141 896 
C 4461 192 5056 -282 5888 -512 
C 5952 -384 6080 -205 6182 -115 
C 5459 38 4909 390 4602 909 
L 6035 909 
L 6035 1318 
L 4262 1318 
C 4294 1485 4326 1664 4346 1850 
L 5715 1850 
L 5715 3834 
z
M 1581 5376 
L 1120 5376 
L 1120 4141 
L 320 4141 
L 320 3693 
L 1120 3693 
L 1120 3686 
C 947 2816 576 1798 205 1261 
C 288 1146 403 934 461 794 
C 704 1171 934 1754 1120 2381 
L 1120 -506 
L 1581 -506 
L 1581 2790 
C 1754 2451 1952 2048 2035 1830 
L 2336 2176 
C 2234 2374 1747 3174 1581 3424 
L 1581 3693 
L 2240 3693 
L 2240 4141 
L 1581 4141 
L 1581 5376 
z
" transform="scale(0.015625)"/>
      <path id="SourceHanSansSC-Regular-5757" d="M 4198 3123 
L 4198 3840 
L 5178 3840 
L 5178 2426 
L 4173 2426 
C 4192 2656 4198 2893 4198 3123 
z
M 6080 2426 
L 5632 2426 
L 5632 4294 
L 4198 4294 
L 4198 5306 
L 3731 5306 
L 3731 4294 
L 2573 4294 
L 2573 3840 
L 3731 3840 
L 3731 3130 
C 3731 2893 3725 2656 3699 2426 
L 2381 2426 
L 2381 1971 
L 3635 1971 
C 3462 1158 3008 403 1850 -160 
C 1958 -243 2112 -416 2176 -525 
C 3386 77 3878 890 4077 1773 
C 4410 704 4979 -102 5862 -525 
C 5933 -390 6086 -198 6195 -102 
C 5331 256 4762 1005 4461 1971 
L 6080 1971 
L 6080 2426 
z
M 230 1043 
L 422 563 
C 979 806 1696 1133 2374 1446 
L 2266 1875 
L 1562 1574 
L 1562 3379 
L 2266 3379 
L 2266 3834 
L 1562 3834 
L 1562 5299 
L 1107 5299 
L 1107 3834 
L 333 3834 
L 333 3379 
L 1107 3379 
L 1107 1389 
C 774 1254 474 1133 230 1043 
z
" transform="scale(0.015625)"/>
      <path id="SourceHanSansSC-Regular-6d88" d="M 5984 5018 
L 5523 5197 
C 5363 4819 5075 4307 4845 3981 
L 5254 3808 
C 5478 4122 5760 4589 5984 5018 
z
M 2650 5165 
L 2246 4979 
C 2522 4608 2790 4102 2893 3776 
L 3322 3987 
C 3213 4314 2925 4800 2650 5165 
z
M 832 5306 
L 544 4979 
C 941 4768 1421 4435 1651 4198 
L 1946 4570 
C 1709 4806 1222 5114 832 5306 
z
M 518 3603 
L 243 3264 
C 646 3059 1139 2726 1382 2502 
L 1664 2880 
C 1414 3104 922 3411 518 3603 
z
M 442 -134 
L 858 -448 
C 1197 160 1594 966 1888 1651 
L 1530 1939 
C 1203 1210 755 358 442 -134 
z
M 2899 2413 
L 2899 3098 
L 5261 3098 
L 5261 2413 
L 2899 2413 
z
M 2899 1997 
L 5261 1997 
L 5261 1299 
L 2899 1299 
L 2899 1997 
z
M 4346 5382 
L 3866 5382 
L 3866 3552 
L 2426 3552 
L 2426 -512 
L 2899 -512 
L 2899 890 
L 5261 890 
L 5261 96 
C 5261 6 5229 -19 5133 -26 
C 5030 -32 4691 -32 4326 -19 
C 4390 -147 4461 -346 4480 -474 
C 4966 -474 5286 -474 5485 -397 
C 5670 -320 5728 -173 5728 90 
L 5728 3552 
L 4346 3552 
L 4346 5382 
z
" transform="scale(0.015625)"/>
      <path id="SourceHanSansSC-Regular-878d" d="M 1069 3360 
L 1069 3962 
L 2618 3962 
L 2618 3360 
L 1069 3360 
z
M 3059 4314 
L 653 4314 
L 653 3008 
L 3059 3008 
L 3059 4314 
z
M 3366 5094 
L 339 5094 
L 339 4678 
L 3366 4678 
L 3366 5094 
z
M 1376 2131 
L 1094 2035 
C 1248 1798 1395 1478 1453 1274 
L 1747 1389 
C 1683 1587 1530 1901 1376 2131 
z
M 5901 4102 
L 4966 4102 
L 4966 5331 
L 4538 5331 
L 4538 4102 
L 3584 4102 
L 3584 1677 
L 4538 1677 
L 4538 237 
C 4134 179 3770 122 3475 83 
L 3597 -365 
C 4173 -262 4947 -128 5696 13 
C 5741 -186 5779 -365 5798 -512 
L 6176 -403 
C 6106 32 5882 768 5638 1318 
L 5293 1235 
C 5395 986 5498 691 5581 410 
L 4966 307 
L 4966 1677 
L 5901 1677 
L 5901 4102 
z
M 3949 2106 
L 3949 3686 
L 4570 3686 
L 4570 2106 
L 3949 2106 
z
M 4934 3686 
L 5523 3686 
L 5523 2106 
L 4934 2106 
L 4934 3686 
z
M 2637 2029 
L 2317 2170 
C 2221 1894 2035 1510 1888 1242 
L 1005 1242 
L 1005 915 
L 1670 915 
L 1670 -333 
L 2035 -333 
L 2035 915 
L 2656 915 
L 2656 1242 
L 2214 1242 
C 2355 1478 2502 1773 2637 2029 
z
M 3270 26 
L 3270 2650 
L 435 2650 
L 435 -493 
L 819 -493 
L 819 2272 
L 2874 2272 
L 2874 32 
C 2874 -38 2854 -58 2784 -58 
C 2720 -58 2515 -58 2278 -51 
C 2330 -160 2381 -320 2400 -435 
C 2726 -435 2957 -429 3091 -365 
C 3232 -294 3270 -179 3270 26 
z
" transform="scale(0.015625)"/>
      <path id="SourceHanSansSC-Regular-ff1a" d="M 1600 3110 
C 1856 3110 2086 3296 2086 3584 
C 2086 3878 1856 4070 1600 4070 
C 1344 4070 1114 3878 1114 3584 
C 1114 3296 1344 3110 1600 3110 
z
M 1600 -26 
C 1856 -26 2086 166 2086 454 
C 2086 749 1856 934 1600 934 
C 1344 934 1114 749 1114 454 
C 1114 166 1344 -26 1600 -26 
z
" transform="scale(0.015625)"/>
     </defs>
     <use xlink:href="#SourceHanSansSC-Regular-44"/>
     <use xlink:href="#SourceHanSansSC-Regular-75" transform="translate(68.799988 0)"/>
     <use xlink:href="#SourceHanSansSC-Regular-52" transform="translate(129.499985 0)"/>
     <use xlink:href="#SourceHanSansSC-Regular-65" transform="translate(192.999969 0)"/>
     <use xlink:href="#SourceHanSansSC-Regular-74" transform="translate(248.399963 0)"/>
     <use xlink:href="#SourceHanSansSC-Regular-72" transform="translate(286.09996 0)"/>
     <use xlink:href="#SourceHanSansSC-Regular-69" transform="translate(324.899948 0)"/>
     <use xlink:href="#SourceHanSansSC-Regular-65" transform="translate(352.399933 0)"/>
     <use xlink:href="#SourceHanSansSC-Regular-76" transform="translate(407.799927 0)"/>
     <use xlink:href="#SourceHanSansSC-Regular-61" transform="translate(459.899918 0)"/>
     <use xlink:href="#SourceHanSansSC-Regular-6c" transform="translate(516.199905 0)"/>
     <use xlink:href="#SourceHanSansSC-Regular-20" transform="translate(544.599899 0)"/>
     <use xlink:href="#SourceHanSansSC-Regular-53bb" transform="translate(566.999893 0)"/>
     <use xlink:href="#SourceHanSansSC-Regular-6a21" transform="translate(666.999878 0)"/>
     <use xlink:href="#SourceHanSansSC-Regular-5757" transform="translate(766.999863 0)"/>
     <use xlink:href="#SourceHanSansSC-Regular-6d88" transform="translate(866.999847 0)"/>
     <use xlink:href="#SourceHanSansSC-Regular-878d" transform="translate(966.999832 0)"/>
     <use xlink:href="#SourceHanSansSC-Regular-ff1a" transform="translate(1066.999817 0)"/>
     <use xlink:href="#SourceHanSansSC-Regular-6e" transform="translate(1166.999802 0)"/>
     <use xlink:href="#SourceHanSansSC-Regular-44" transform="translate(1227.999786 0)"/>
     <use xlink:href="#SourceHanSansSC-Regular-43" transform="translate(1296.799774 0)"/>
     <use xlink:href="#SourceHanSansSC-Regular-47" transform="translate(1360.599762 0)"/>
     <use xlink:href="#SourceHanSansSC-Regular-40" transform="translate(1429.499756 0)"/>
     <use xlink:href="#SourceHanSansSC-Regular-31" transform="translate(1524.099747 0)"/>
     <use xlink:href="#SourceHanSansSC-Regular-30" transform="translate(1579.599731 0)"/>
    </g>
   </g>
  </g>
  <g id="axes_2">
   <g id="patch_13">
    <path d="M 696.804259 343.299455 
L 1141.2 343.299455 
L 1141.2 24.82125 
L 696.804259 24.82125 
z
" style="fill: #ffffff"/>
   </g>
   <g id="patch_14">
    <path d="M 717.004066 343.299455 
L 767.856725 343.299455 
L 767.856725 75.512373 
L 717.004066 75.512373 
z
" clip-path="url(#pcb75505eb4)" style="fill: #3a6ea5"/>
   </g>
   <g id="patch_15">
    <path d="M 787.632759 343.299455 
L 838.485419 343.299455 
L 838.485419 76.043169 
L 787.632759 76.043169 
z
" clip-path="url(#pcb75505eb4)" style="fill: #557c55"/>
   </g>
   <g id="patch_16">
    <path d="M 858.261453 343.299455 
L 909.114113 343.299455 
L 909.114113 71.265982 
L 858.261453 71.265982 
z
" clip-path="url(#pcb75505eb4)" style="fill: #7aa95c"/>
   </g>
   <g id="patch_17">
    <path d="M 928.890147 343.299455 
L 979.742806 343.299455 
L 979.742806 70.469787 
L 928.890147 70.469787 
z
" clip-path="url(#pcb75505eb4)" style="fill: #9bc53d"/>
   </g>
   <g id="patch_18">
    <path d="M 999.51884 343.299455 
L 1050.3715 343.299455 
L 1050.3715 77.635559 
L 999.51884 77.635559 
z
" clip-path="url(#pcb75505eb4)" style="fill: #db9d47"/>
   </g>
   <g id="patch_19">
    <path d="M 1070.147534 343.299455 
L 1121.000194 343.299455 
L 1121.000194 70.735185 
L 1070.147534 70.735185 
z
" clip-path="url(#pcb75505eb4)" style="fill: #2f855a"/>
   </g>
   <g id="matplotlib.axis_3">
    <g id="xtick_7">
     <g id="line2d_27">
      <g>
       <use xlink:href="#m71df5aa59c" x="742.430395" y="343.299455" style="stroke: #000000; stroke-width: 0.8"/>
      </g>
     </g>
     <g id="text_18">
      <!-- 主流方案 B（RRF + Rerank Top20） -->
      <g transform="translate(587.961977 408.399744) rotate(-18) scale(0.1 -0.1)">
       <use xlink:href="#SourceHanSansSC-Regular-4e3b"/>
       <use xlink:href="#SourceHanSansSC-Regular-6d41" transform="translate(99.999985 0)"/>
       <use xlink:href="#SourceHanSansSC-Regular-65b9" transform="translate(199.999969 0)"/>
       <use xlink:href="#SourceHanSansSC-Regular-6848" transform="translate(299.999954 0)"/>
       <use xlink:href="#SourceHanSansSC-Regular-20" transform="translate(399.999939 0)"/>
       <use xlink:href="#SourceHanSansSC-Regular-42" transform="translate(422.399933 0)"/>
       <use xlink:href="#SourceHanSansSC-Regular-ff08" transform="translate(488.09993 0)"/>
       <use xlink:href="#SourceHanSansSC-Regular-52" transform="translate(588.099915 0)"/>
       <use xlink:href="#SourceHanSansSC-Regular-52" transform="translate(651.599899 0)"/>
       <use xlink:href="#SourceHanSansSC-Regular-46" transform="translate(715.099884 0)"/>
       <use xlink:href="#SourceHanSansSC-Regular-20" transform="translate(770.299881 0)"/>
       <use xlink:href="#SourceHanSansSC-Regular-2b" transform="translate(792.699875 0)"/>
       <use xlink:href="#SourceHanSansSC-Regular-20" transform="translate(848.19986 0)"/>
       <use xlink:href="#SourceHanSansSC-Regular-52" transform="translate(870.599854 0)"/>
       <use xlink:href="#SourceHanSansSC-Regular-65" transform="translate(934.099838 0)"/>
       <use xlink:href="#SourceHanSansSC-Regular-72" transform="translate(989.499832 0)"/>
       <use xlink:href="#SourceHanSansSC-Regular-61" transform="translate(1028.29982 0)"/>
       <use xlink:href="#SourceHanSansSC-Regular-6e" transform="translate(1084.599808 0)"/>
       <use xlink:href="#SourceHanSansSC-Regular-6b" transform="translate(1145.599792 0)"/>
       <use xlink:href="#SourceHanSansSC-Regular-20" transform="translate(1200.799789 0)"/>
       <use xlink:href="#SourceHanSansSC-Regular-54" transform="translate(1223.199783 0)"/>
       <use xlink:href="#SourceHanSansSC-Regular-6f" transform="translate(1283.099777 0)"/>
       <use xlink:href="#SourceHanSansSC-Regular-70" transform="translate(1343.699768 0)"/>
       <use xlink:href="#SourceHanSansSC-Regular-32" transform="translate(1405.699753 0)"/>
       <use xlink:href="#SourceHanSansSC-Regular-30" transform="translate(1461.199738 0)"/>
       <use xlink:href="#SourceHanSansSC-Regular-ff09" transform="translate(1516.699722 0)"/>
      </g>
     </g>
    </g>
    <g id="xtick_8">
     <g id="line2d_28">
      <g>
       <use xlink:href="#m71df5aa59c" x="813.059089" y="343.299455" style="stroke: #000000; stroke-width: 0.8"/>
      </g>
     </g>
     <g id="text_19">
      <!-- 去掉自适应权重（固定 lexical/dense 权重） -->
      <g transform="translate(625.807456 418.576129) rotate(-18) scale(0.1 -0.1)">
       <use xlink:href="#SourceHanSansSC-Regular-53bb"/>
       <use xlink:href="#SourceHanSansSC-Regular-6389" transform="translate(99.999985 0)"/>
       <use xlink:href="#SourceHanSansSC-Regular-81ea" transform="translate(199.999969 0)"/>
       <use xlink:href="#SourceHanSansSC-Regular-9002" transform="translate(299.999954 0)"/>
       <use xlink:href="#SourceHanSansSC-Regular-5e94" transform="translate(399.999939 0)"/>
       <use xlink:href="#SourceHanSansSC-Regular-6743" transform="translate(499.999924 0)"/>
       <use xlink:href="#SourceHanSansSC-Regular-91cd" transform="translate(599.999908 0)"/>
       <use xlink:href="#SourceHanSansSC-Regular-ff08" transform="translate(699.999893 0)"/>
       <use xlink:href="#SourceHanSansSC-Regular-56fa" transform="translate(799.999878 0)"/>
       <use xlink:href="#SourceHanSansSC-Regular-5b9a" transform="translate(899.999863 0)"/>
       <use xlink:href="#SourceHanSansSC-Regular-20" transform="translate(999.999847 0)"/>
       <use xlink:href="#SourceHanSansSC-Regular-6c" transform="translate(1022.399841 0)"/>
       <use xlink:href="#SourceHanSansSC-Regular-65" transform="translate(1050.799835 0)"/>
       <use xlink:href="#SourceHanSansSC-Regular-78" transform="translate(1106.199829 0)"/>
       <use xlink:href="#SourceHanSansSC-Regular-69" transform="translate(1155.999817 0)"/>
       <use xlink:href="#SourceHanSansSC-Regular-63" transform="translate(1183.499802 0)"/>
       <use xlink:href="#SourceHanSansSC-Regular-61" transform="translate(1234.499786 0)"/>
       <use xlink:href="#SourceHanSansSC-Regular-6c" transform="translate(1290.799774 0)"/>
       <use xlink:href="#SourceHanSansSC-Regular-2f" transform="translate(1319.199768 0)"/>
       <use xlink:href="#SourceHanSansSC-Regular-64" transform="translate(1358.399765 0)"/>
       <use xlink:href="#SourceHanSansSC-Regular-65" transform="translate(1420.39975 0)"/>
       <use xlink:href="#SourceHanSansSC-Regular-6e" transform="translate(1475.799744 0)"/>
       <use xlink:href="#SourceHanSansSC-Regular-73" transform="translate(1536.799728 0)"/>
       <use xlink:href="#SourceHanSansSC-Regular-65" transform="translate(1583.599716 0)"/>
       <use xlink:href="#SourceHanSansSC-Regular-20" transform="translate(1638.99971 0)"/>
       <use xlink:href="#SourceHanSansSC-Regular-6743" transform="translate(1661.399704 0)"/>
       <use xlink:href="#SourceHanSansSC-Regular-91cd" transform="translate(1761.399689 0)"/>
       <use xlink:href="#SourceHanSansSC-Regular-ff09" transform="translate(1861.399673 0)"/>
      </g>
     </g>
    </g>
    <g id="xtick_9">
     <g id="line2d_29">
      <g>
       <use xlink:href="#m71df5aa59c" x="883.687783" y="343.299455" style="stroke: #000000; stroke-width: 0.8"/>
      </g>
     </g>
     <g id="text_20">
      <!-- 去掉覆盖率奖励 -->
      <g transform="translate(816.405985 379.50046) rotate(-18) scale(0.1 -0.1)">
       <use xlink:href="#SourceHanSansSC-Regular-53bb"/>
       <use xlink:href="#SourceHanSansSC-Regular-6389" transform="translate(99.999985 0)"/>
       <use xlink:href="#SourceHanSansSC-Regular-8986" transform="translate(199.999969 0)"/>
       <use xlink:href="#SourceHanSansSC-Regular-76d6" transform="translate(299.999954 0)"/>
       <use xlink:href="#SourceHanSansSC-Regular-7387" transform="translate(399.999939 0)"/>
       <use xlink:href="#SourceHanSansSC-Regular-5956" transform="translate(499.999924 0)"/>
       <use xlink:href="#SourceHanSansSC-Regular-52b1" transform="translate(599.999908 0)"/>
      </g>
     </g>
    </g>
    <g id="xtick_10">
     <g id="line2d_30">
      <g>
       <use xlink:href="#m71df5aa59c" x="954.316477" y="343.299455" style="stroke: #000000; stroke-width: 0.8"/>
      </g>
     </g>
     <g id="text_21">
      <!-- 去掉标识符约束 -->
      <g transform="translate(887.034678 379.50046) rotate(-18) scale(0.1 -0.1)">
       <use xlink:href="#SourceHanSansSC-Regular-53bb"/>
       <use xlink:href="#SourceHanSansSC-Regular-6389" transform="translate(99.999985 0)"/>
       <use xlink:href="#SourceHanSansSC-Regular-6807" transform="translate(199.999969 0)"/>
       <use xlink:href="#SourceHanSansSC-Regular-8bc6" transform="translate(299.999954 0)"/>
       <use xlink:href="#SourceHanSansSC-Regular-7b26" transform="translate(399.999939 0)"/>
       <use xlink:href="#SourceHanSansSC-Regular-7ea6" transform="translate(499.999924 0)"/>
       <use xlink:href="#SourceHanSansSC-Regular-675f" transform="translate(599.999908 0)"/>
      </g>
     </g>
    </g>
    <g id="xtick_11">
     <g id="line2d_31">
      <g>
       <use xlink:href="#m71df5aa59c" x="1024.94517" y="343.299455" style="stroke: #000000; stroke-width: 0.8"/>
      </g>
     </g>
     <g id="text_22">
      <!-- 去掉混合候选池 -->
      <g transform="translate(957.663372 379.50046) rotate(-18) scale(0.1 -0.1)">
       <use xlink:href="#SourceHanSansSC-Regular-53bb"/>
       <use xlink:href="#SourceHanSansSC-Regular-6389" transform="translate(99.999985 0)"/>
       <use xlink:href="#SourceHanSansSC-Regular-6df7" transform="translate(199.999969 0)"/>
       <use xlink:href="#SourceHanSansSC-Regular-5408" transform="translate(299.999954 0)"/>
       <use xlink:href="#SourceHanSansSC-Regular-5019" transform="translate(399.999939 0)"/>
       <use xlink:href="#SourceHanSansSC-Regular-9009" transform="translate(499.999924 0)"/>
       <use xlink:href="#SourceHanSansSC-Regular-6c60" transform="translate(599.999908 0)"/>
      </g>
     </g>
    </g>
    <g id="xtick_12">
     <g id="line2d_32">
      <g>
       <use xlink:href="#m71df5aa59c" x="1095.573864" y="343.299455" style="stroke: #000000; stroke-width: 0.8"/>
      </g>
     </g>
     <g id="text_23">
      <!-- 完整方案 -->
      <g transform="translate(1056.823761 370.229951) rotate(-18) scale(0.1 -0.1)">
       <use xlink:href="#SourceHanSansSC-Regular-5b8c"/>
       <use xlink:href="#SourceHanSansSC-Regular-6574" transform="translate(99.999985 0)"/>
       <use xlink:href="#SourceHanSansSC-Regular-65b9" transform="translate(199.999969 0)"/>
       <use xlink:href="#SourceHanSansSC-Regular-6848" transform="translate(299.999954 0)"/>
      </g>
     </g>
    </g>
   </g>
   <g id="matplotlib.axis_4">
    <g id="ytick_10">
     <g id="line2d_33">
      <path d="M 696.804259 343.299455 
L 1141.2 343.299455 
" clip-path="url(#pcb75505eb4)" style="fill: none; stroke: #b0b0b0; stroke-opacity: 0.2; stroke-width: 0.8; stroke-linecap: square"/>
     </g>
     <g id="line2d_34">
      <g>
       <use xlink:href="#m9c29fa6aa0" x="696.804259" y="343.299455" style="stroke: #000000; stroke-width: 0.8"/>
      </g>
     </g>
     <g id="text_24">
      <!-- 0.0 -->
      <g transform="translate(673.901134 347.098674) scale(0.1 -0.1)">
       <use xlink:href="#DejaVuSans-30"/>
       <use xlink:href="#DejaVuSans-2e" transform="translate(63.623047 0)"/>
       <use xlink:href="#DejaVuSans-30" transform="translate(95.410156 0)"/>
      </g>
     </g>
    </g>
    <g id="ytick_11">
     <g id="line2d_35">
      <path d="M 696.804259 279.603814 
L 1141.2 279.603814 
" clip-path="url(#pcb75505eb4)" style="fill: none; stroke: #b0b0b0; stroke-opacity: 0.2; stroke-width: 0.8; stroke-linecap: square"/>
     </g>
     <g id="line2d_36">
      <g>
       <use xlink:href="#m9c29fa6aa0" x="696.804259" y="279.603814" style="stroke: #000000; stroke-width: 0.8"/>
      </g>
     </g>
     <g id="text_25">
      <!-- 0.2 -->
      <g transform="translate(673.901134 283.403033) scale(0.1 -0.1)">
       <use xlink:href="#DejaVuSans-30"/>
       <use xlink:href="#DejaVuSans-2e" transform="translate(63.623047 0)"/>
       <use xlink:href="#DejaVuSans-32" transform="translate(95.410156 0)"/>
      </g>
     </g>
    </g>
    <g id="ytick_12">
     <g id="line2d_37">
      <path d="M 696.804259 215.908173 
L 1141.2 215.908173 
" clip-path="url(#pcb75505eb4)" style="fill: none; stroke: #b0b0b0; stroke-opacity: 0.2; stroke-width: 0.8; stroke-linecap: square"/>
     </g>
     <g id="line2d_38">
      <g>
       <use xlink:href="#m9c29fa6aa0" x="696.804259" y="215.908173" style="stroke: #000000; stroke-width: 0.8"/>
      </g>
     </g>
     <g id="text_26">
      <!-- 0.4 -->
      <g transform="translate(673.901134 219.707392) scale(0.1 -0.1)">
       <use xlink:href="#DejaVuSans-30"/>
       <use xlink:href="#DejaVuSans-2e" transform="translate(63.623047 0)"/>
       <use xlink:href="#DejaVuSans-34" transform="translate(95.410156 0)"/>
      </g>
     </g>
    </g>
    <g id="ytick_13">
     <g id="line2d_39">
      <path d="M 696.804259 152.212532 
L 1141.2 152.212532 
" clip-path="url(#pcb75505eb4)" style="fill: none; stroke: #b0b0b0; stroke-opacity: 0.2; stroke-width: 0.8; stroke-linecap: square"/>
     </g>
     <g id="line2d_40">
      <g>
       <use xlink:href="#m9c29fa6aa0" x="696.804259" y="152.212532" style="stroke: #000000; stroke-width: 0.8"/>
      </g>
     </g>
     <g id="text_27">
      <!-- 0.6 -->
      <g transform="translate(673.901134 156.011751) scale(0.1 -0.1)">
       <use xlink:href="#DejaVuSans-30"/>
       <use xlink:href="#DejaVuSans-2e" transform="translate(63.623047 0)"/>
       <use xlink:href="#DejaVuSans-36" transform="translate(95.410156 0)"/>
      </g>
     </g>
    </g>
    <g id="ytick_14">
     <g id="line2d_41">
      <path d="M 696.804259 88.516891 
L 1141.2 88.516891 
" clip-path="url(#pcb75505eb4)" style="fill: none; stroke: #b0b0b0; stroke-opacity: 0.2; stroke-width: 0.8; stroke-linecap: square"/>
     </g>
     <g id="line2d_42">
      <g>
       <use xlink:href="#m9c29fa6aa0" x="696.804259" y="88.516891" style="stroke: #000000; stroke-width: 0.8"/>
      </g>
     </g>
     <g id="text_28">
      <!-- 0.8 -->
      <g transform="translate(673.901134 92.31611) scale(0.1 -0.1)">
       <use xlink:href="#DejaVuSans-30"/>
       <use xlink:href="#DejaVuSans-2e" transform="translate(63.623047 0)"/>
       <use xlink:href="#DejaVuSans-38" transform="translate(95.410156 0)"/>
      </g>
     </g>
    </g>
    <g id="ytick_15">
     <g id="line2d_43">
      <path d="M 696.804259 24.82125 
L 1141.2 24.82125 
" clip-path="url(#pcb75505eb4)" style="fill: none; stroke: #b0b0b0; stroke-opacity: 0.2; stroke-width: 0.8; stroke-linecap: square"/>
     </g>
     <g id="line2d_44">
      <g>
       <use xlink:href="#m9c29fa6aa0" x="696.804259" y="24.82125" style="stroke: #000000; stroke-width: 0.8"/>
      </g>
     </g>
     <g id="text_29">
      <!-- 1.0 -->
      <g transform="translate(673.901134 28.620469) scale(0.1 -0.1)">
       <use xlink:href="#DejaVuSans-31"/>
       <use xlink:href="#DejaVuSans-2e" transform="translate(63.623047 0)"/>
       <use xlink:href="#DejaVuSans-30" transform="translate(95.410156 0)"/>
      </g>
     </g>
    </g>
    <g id="text_30">
     <!-- Hit@1 -->
     <g transform="translate(667.610509 198.46504) rotate(-90) scale(0.1 -0.1)">
      <defs>
       <path id="SourceHanSansSC-Regular-48" d="M 646 0 
L 1235 0 
L 1235 2214 
L 3424 2214 
L 3424 0 
L 4019 0 
L 4019 4691 
L 3424 4691 
L 3424 2726 
L 1235 2726 
L 1235 4691 
L 646 4691 
L 646 0 
z
" transform="scale(0.015625)"/>
      </defs>
      <use xlink:href="#SourceHanSansSC-Regular-48"/>
      <use xlink:href="#SourceHanSansSC-Regular-69" transform="translate(72.799988 0)"/>
      <use xlink:href="#SourceHanSansSC-Regular-74" transform="translate(100.299973 0)"/>
      <use xlink:href="#SourceHanSansSC-Regular-40" transform="translate(137.999969 0)"/>
      <use xlink:href="#SourceHanSansSC-Regular-31" transform="translate(232.59996 0)"/>
     </g>
    </g>
   </g>
   <g id="LineCollection_2">
    <path d="M 742.430395 82.147329 
L 742.430395 68.877398 
" clip-path="url(#pcb75505eb4)" style="fill: none; stroke: #1f2937; stroke-width: 1.1"/>
    <path d="M 813.059089 82.678126 
L 813.059089 69.408194 
" clip-path="url(#pcb75505eb4)" style="fill: none; stroke: #1f2937; stroke-width: 1.1"/>
    <path d="M 883.687783 77.104762 
L 883.687783 64.896424 
" clip-path="url(#pcb75505eb4)" style="fill: none; stroke: #1f2937; stroke-width: 1.1"/>
    <path d="M 954.316477 76.58061 
L 954.316477 64.100229 
" clip-path="url(#pcb75505eb4)" style="fill: none; stroke: #1f2937; stroke-width: 1.1"/>
    <path d="M 1024.94517 83.739719 
L 1024.94517 71.000584 
" clip-path="url(#pcb75505eb4)" style="fill: none; stroke: #1f2937; stroke-width: 1.1"/>
    <path d="M 1095.573864 76.839364 
L 1095.573864 64.365627 
" clip-path="url(#pcb75505eb4)" style="fill: none; stroke: #1f2937; stroke-width: 1.1"/>
   </g>
   <g id="line2d_45">
    <g clip-path="url(#pcb75505eb4)">
     <use xlink:href="#m54de800522" x="742.430395" y="82.147329" style="fill: #1f77b4; stroke: #1f2937"/>
     <use xlink:href="#m54de800522" x="813.059089" y="82.678126" style="fill: #1f77b4; stroke: #1f2937"/>
     <use xlink:href="#m54de800522" x="883.687783" y="77.104762" style="fill: #1f77b4; stroke: #1f2937"/>
     <use xlink:href="#m54de800522" x="954.316477" y="76.58061" style="fill: #1f77b4; stroke: #1f2937"/>
     <use xlink:href="#m54de800522" x="1024.94517" y="83.739719" style="fill: #1f77b4; stroke: #1f2937"/>
     <use xlink:href="#m54de800522" x="1095.573864" y="76.839364" style="fill: #1f77b4; stroke: #1f2937"/>
    </g>
   </g>
   <g id="line2d_46">
    <g clip-path="url(#pcb75505eb4)">
     <use xlink:href="#m54de800522" x="742.430395" y="68.877398" style="fill: #1f77b4; stroke: #1f2937"/>
     <use xlink:href="#m54de800522" x="813.059089" y="69.408194" style="fill: #1f77b4; stroke: #1f2937"/>
     <use xlink:href="#m54de800522" x="883.687783" y="64.896424" style="fill: #1f77b4; stroke: #1f2937"/>
     <use xlink:href="#m54de800522" x="954.316477" y="64.100229" style="fill: #1f77b4; stroke: #1f2937"/>
     <use xlink:href="#m54de800522" x="1024.94517" y="71.000584" style="fill: #1f77b4; stroke: #1f2937"/>
     <use xlink:href="#m54de800522" x="1095.573864" y="64.365627" style="fill: #1f77b4; stroke: #1f2937"/>
    </g>
   </g>
   <g id="patch_20">
    <path d="M 696.804259 343.299455 
L 696.804259 24.82125 
" style="fill: none; stroke: #000000; stroke-width: 0.8; stroke-linejoin: miter; stroke-linecap: square"/>
   </g>
   <g id="patch_21">
    <path d="M 1141.2 343.299455 
L 1141.2 24.82125 
" style="fill: none; stroke: #000000; stroke-width: 0.8; stroke-linejoin: miter; stroke-linecap: square"/>
   </g>
   <g id="patch_22">
    <path d="M 696.804259 343.299455 
L 1141.2 343.299455 
" style="fill: none; stroke: #000000; stroke-width: 0.8; stroke-linejoin: miter; stroke-linecap: square"/>
   </g>
   <g id="patch_23">
    <path d="M 696.804259 24.82125 
L 1141.2 24.82125 
" style="fill: none; stroke: #000000; stroke-width: 0.8; stroke-linejoin: miter; stroke-linecap: square"/>
   </g>
   <g id="text_31">
    <!-- DuRetrieval 去模块消融：Hit@1 -->
    <g transform="translate(846.246661 18.82125) scale(0.1 -0.1)">
     <use xlink:href="#SourceHanSansSC-Regular-44"/>
     <use xlink:href="#SourceHanSansSC-Regular-75" transform="translate(68.799988 0)"/>
     <use xlink:href="#SourceHanSansSC-Regular-52" transform="translate(129.499985 0)"/>
     <use xlink:href="#SourceHanSansSC-Regular-65" transform="translate(192.999969 0)"/>
     <use xlink:href="#SourceHanSansSC-Regular-74" transform="translate(248.399963 0)"/>
     <use xlink:href="#SourceHanSansSC-Regular-72" transform="translate(286.09996 0)"/>
     <use xlink:href="#SourceHanSansSC-Regular-69" transform="translate(324.899948 0)"/>
     <use xlink:href="#SourceHanSansSC-Regular-65" transform="translate(352.399933 0)"/>
     <use xlink:href="#SourceHanSansSC-Regular-76" transform="translate(407.799927 0)"/>
     <use xlink:href="#SourceHanSansSC-Regular-61" transform="translate(459.899918 0)"/>
     <use xlink:href="#SourceHanSansSC-Regular-6c" transform="translate(516.199905 0)"/>
     <use xlink:href="#SourceHanSansSC-Regular-20" transform="translate(544.599899 0)"/>
     <use xlink:href="#SourceHanSansSC-Regular-53bb" transform="translate(566.999893 0)"/>
     <use xlink:href="#SourceHanSansSC-Regular-6a21" transform="translate(666.999878 0)"/>
     <use xlink:href="#SourceHanSansSC-Regular-5757" transform="translate(766.999863 0)"/>
     <use xlink:href="#SourceHanSansSC-Regular-6d88" transform="translate(866.999847 0)"/>
     <use xlink:href="#SourceHanSansSC-Regular-878d" transform="translate(966.999832 0)"/>
     <use xlink:href="#SourceHanSansSC-Regular-ff1a" transform="translate(1066.999817 0)"/>
     <use xlink:href="#SourceHanSansSC-Regular-48" transform="translate(1166.999802 0)"/>
     <use xlink:href="#SourceHanSansSC-Regular-69" transform="translate(1239.799789 0)"/>
     <use xlink:href="#SourceHanSansSC-Regular-74" transform="translate(1267.299774 0)"/>
     <use xlink:href="#SourceHanSansSC-Regular-40" transform="translate(1304.999771 0)"/>
     <use xlink:href="#SourceHanSansSC-Regular-31" transform="translate(1399.599762 0)"/>
    </g>
   </g>
  </g>
 </g>
 <defs>
  <clipPath id="pbea52c2177">
   <rect x="126.204259" y="24.82125" width="444.395741" height="318.478205"/>
  </clipPath>
  <clipPath id="pcb75505eb4">
   <rect x="696.804259" y="24.82125" width="444.395741" height="318.478205"/>
  </clipPath>
 </defs>
</svg>
