<?xml version="1.0" encoding="utf-8" standalone="no"?>
<!DOCTYPE svg PUBLIC "-//W3C//DTD SVG 1.1//EN"
  "http://www.w3.org/Graphics/SVG/1.1/DTD/svg11.dtd">
<svg xmlns:xlink="http://www.w3.org/1999/xlink" width="1198.776186pt" height="385.001402pt" viewBox="0 0 1198.776186 385.001402" xmlns="http://www.w3.org/2000/svg" version="1.1">
 <metadata>
  <rdf:RDF xmlns:dc="http://purl.org/dc/elements/1.1/" xmlns:cc="http://creativecommons.org/ns#" xmlns:rdf="http://www.w3.org/1999/02/22-rdf-syntax-ns#">
   <cc:Work>
    <dc:type rdf:resource="http://purl.org/dc/dcmitype/StillImage"/>
    <dc:date>2026-04-22T11:12:19.425547</dc:date>
    <dc:format>image/svg+xml</dc:format>
    <dc:creator>
     <cc:Agent>
      <dc:title>Matplotlib v3.10.8, https://matplotlib.org/</dc:title>
     </cc:Agent>
    </dc:creator>
   </cc:Work>
  </rdf:RDF>
 </metadata>
 <defs>
  <style type="text/css">*{stroke-linejoin: round; stroke-linecap: butt}</style>
 </defs>
 <g id="figure_1">
  <g id="patch_1">
   <path d="M 0 385.001402 
L 1198.776186 385.001402 
L 1198.776186 0 
L 0 0 
z
" style="fill: #ffffff"/>
  </g>
  <g id="axes_1">
   <g id="patch_2">
    <path d="M 28.079688 330.246234 
L 348.640089 330.246234 
L 348.640089 52.944 
L 28.079688 52.944 
z
" style="fill: #ffffff"/>
   </g>
   <g id="patch_3">
    <path d="M 42.650615 330.246234 
L 103.645194 330.246234 
L 103.645194 82.394524 
L 42.650615 82.394524 
z
" clip-path="url(#p64a79af317)" style="fill: #0e5a8a"/>
   </g>
   <g id="patch_4">
    <path d="M 212.080003 330.246234 
L 273.074582 330.246234 
L 273.074582 90.610887 
L 212.080003 90.610887 
z
" clip-path="url(#p64a79af317)" style="fill: #0e5a8a"/>
   </g>
   <g id="patch_5">
    <path d="M 103.645194 330.246234 
L 164.639774 330.246234 
L 164.639774 104.681408 
L 103.645194 104.681408 
z
" clip-path="url(#p64a79af317)" style="fill: #d9822b"/>
   </g>
   <g id="patch_6">
    <path d="M 273.074582 330.246234 
L 334.069162 330.246234 
L 334.069162 105.580072 
L 273.074582 105.580072 
z
" clip-path="url(#p64a79af317)" style="fill: #d9822b"/>
   </g>
   <g id="matplotlib.axis_1">
    <g id="xtick_1">
     <g id="line2d_1">
      <defs>
       <path id="md490a1e8aa" d="M 0 0 
L 0 3.5 
" style="stroke: #000000; stroke-width: 0.8"/>
      </defs>
      <g>
       <use xlink:href="#md490a1e8aa" x="103.645194" y="330.246234" style="stroke: #000000; stroke-width: 0.8"/>
      </g>
     </g>
     <g id="text_1" style="display:none">
      <!-- 上下文精确率 -->
      <g transform="translate(24.161816 367.507723) rotate(-16) scale(0.1 -0.1)">
       <defs>
        <path id="SourceHanSansSC-Regular-43" d="M 2426 -83 
C 3034 -83 3469 154 3846 589 
L 3539 934 
C 3238 608 2899 435 2464 435 
C 1555 435 979 1178 979 2362 
C 979 3526 1574 4256 2458 4256 
C 2848 4256 3168 4102 3418 3840 
L 3738 4198 
C 3469 4518 3014 4774 2451 4774 
C 1261 4774 371 3859 371 2342 
C 371 819 1254 -83 2426 -83 
z
" transform="scale(0.015625)"/>
        <path id="SourceHanSansSC-Regular-6f" d="M 1939 -83 
C 2790 -83 3546 582 3546 1734 
C 3546 2893 2790 3565 1939 3565 
C 1088 3565 333 2893 333 1734 
C 333 582 1088 -83 1939 -83 
z
M 1939 403 
C 1338 403 934 934 934 1734 
C 934 2534 1338 3072 1939 3072 
C 2541 3072 2950 2534 2950 1734 
C 2950 934 2541 403 1939 403 
z
" transform="scale(0.015625)"/>
        <path id="SourceHanSansSC-Regular-6e" d="M 589 0 
L 1178 0 
L 1178 2522 
C 1523 2874 1766 3053 2125 3053 
C 2586 3053 2784 2778 2784 2125 
L 2784 0 
L 3366 0 
L 3366 2202 
C 3366 3085 3034 3565 2304 3565 
C 1830 3565 1466 3302 1139 2970 
L 1126 2970 
L 1069 3475 
L 589 3475 
L 589 0 
z
" transform="scale(0.015625)"/>
        <path id="SourceHanSansSC-Regular-74" d="M 1677 -70 
C 1914 -70 2144 -6 2330 83 
L 2208 499 
C 2074 429 1939 410 1811 410 
C 1408 410 1274 653 1274 1082 
L 1274 3002 
L 2221 3002 
L 2221 3475 
L 1274 3475 
L 1274 4595 
L 787 4595 
L 723 3475 
L 173 3443 
L 173 3002 
L 691 3002 
L 691 1094 
C 691 403 941 -70 1677 -70 
z
" transform="scale(0.015625)"/>
        <path id="SourceHanSansSC-Regular-65" d="M 1997 -83 
C 2464 -83 2835 64 3136 269 
L 2938 640 
C 2682 480 2400 384 2061 384 
C 1459 384 954 794 896 1600 
L 3251 1600 
C 3264 1690 3277 1805 3277 1933 
C 3277 2925 2778 3565 1888 3565 
C 1094 3565 333 2867 333 1734 
C 333 589 1069 -83 1997 -83 
z
M 902 2016 
C 986 2771 1459 3098 1901 3098 
C 2445 3098 2765 2720 2765 2016 
L 902 2016 
z
" transform="scale(0.015625)"/>
        <path id="SourceHanSansSC-Regular-78" d="M 96 0 
L 710 0 
L 1178 813 
C 1299 1024 1408 1235 1530 1434 
L 1562 1434 
C 1696 1235 1824 1024 1939 813 
L 2451 0 
L 3091 0 
L 1946 1754 
L 3002 3475 
L 2394 3475 
L 1965 2714 
C 1856 2515 1760 2330 1658 2131 
L 1626 2131 
C 1510 2330 1389 2515 1286 2714 
L 819 3475 
L 186 3475 
L 1242 1811 
L 96 0 
z
" transform="scale(0.015625)"/>
        <path id="SourceHanSansSC-Regular-20" transform="scale(0.015625)"/>
        <path id="SourceHanSansSC-Regular-50" d="M 646 0 
L 1235 0 
L 1235 1869 
L 2010 1869 
C 3040 1869 3738 2323 3738 3315 
C 3738 4339 3034 4691 1984 4691 
L 646 4691 
L 646 0 
z
M 1235 2349 
L 1235 4211 
L 1907 4211 
C 2733 4211 3149 4000 3149 3315 
C 3149 2643 2758 2349 1933 2349 
L 1235 2349 
z
" transform="scale(0.015625)"/>
        <path id="SourceHanSansSC-Regular-72" d="M 589 0 
L 1178 0 
L 1178 2234 
C 1408 2822 1760 3040 2048 3040 
C 2195 3040 2266 3027 2368 2995 
L 2496 3488 
C 2387 3546 2278 3565 2125 3565 
C 1728 3565 1376 3283 1139 2842 
L 1126 2842 
L 1069 3475 
L 589 3475 
L 589 0 
z
" transform="scale(0.015625)"/>
        <path id="SourceHanSansSC-Regular-63" d="M 1971 -83 
C 2406 -83 2797 90 3085 365 
L 2829 723 
C 2618 531 2330 403 2016 403 
C 1370 403 934 934 934 1734 
C 934 2534 1402 3072 2029 3072 
C 2323 3072 2547 2963 2726 2797 
L 3014 3155 
C 2778 3392 2458 3565 2003 3565 
C 1107 3565 333 2893 333 1734 
C 333 582 1037 -83 1971 -83 
z
" transform="scale(0.015625)"/>
        <path id="SourceHanSansSC-Regular-69" d="M 589 0 
L 1178 0 
L 1178 3475 
L 589 3475 
L 589 0 
z
M 877 4192 
C 1101 4192 1267 4346 1267 4582 
C 1267 4806 1101 4960 877 4960 
C 646 4960 486 4806 486 4582 
C 486 4346 646 4192 877 4192 
z
" transform="scale(0.015625)"/>
        <path id="SourceHanSansSC-Regular-73" d="M 1498 -83 
C 2317 -83 2758 384 2758 947 
C 2758 1581 2240 1811 1690 2010 
C 1267 2163 954 2285 954 2605 
C 954 2867 1158 3110 1600 3110 
C 1907 3110 2157 3008 2400 2829 
L 2669 3168 
C 2406 3398 2022 3565 1594 3565 
C 832 3565 397 3130 397 2579 
C 397 2003 902 1760 1421 1568 
C 1811 1427 2202 1267 2202 915 
C 2202 614 1978 371 1517 371 
C 1082 371 768 506 474 755 
L 205 410 
C 518 96 986 -83 1498 -83 
z
" transform="scale(0.015625)"/>
       </defs>
       <use xlink:href="#SourceHanSansSC-Regular-43"/>
       <use xlink:href="#SourceHanSansSC-Regular-6f" transform="translate(63.799988 0)"/>
       <use xlink:href="#SourceHanSansSC-Regular-6e" transform="translate(124.399979 0)"/>
       <use xlink:href="#SourceHanSansSC-Regular-74" transform="translate(185.399963 0)"/>
       <use xlink:href="#SourceHanSansSC-Regular-65" transform="translate(223.09996 0)"/>
       <use xlink:href="#SourceHanSansSC-Regular-78" transform="translate(278.499954 0)"/>
       <use xlink:href="#SourceHanSansSC-Regular-74" transform="translate(328.299942 0)"/>
       <use xlink:href="#SourceHanSansSC-Regular-20" transform="translate(365.999939 0)"/>
       <use xlink:href="#SourceHanSansSC-Regular-50" transform="translate(388.399933 0)"/>
       <use xlink:href="#SourceHanSansSC-Regular-72" transform="translate(451.699921 0)"/>
       <use xlink:href="#SourceHanSansSC-Regular-65" transform="translate(490.499908 0)"/>
       <use xlink:href="#SourceHanSansSC-Regular-63" transform="translate(545.899902 0)"/>
       <use xlink:href="#SourceHanSansSC-Regular-69" transform="translate(596.899887 0)"/>
       <use xlink:href="#SourceHanSansSC-Regular-73" transform="translate(624.399872 0)"/>
       <use xlink:href="#SourceHanSansSC-Regular-69" transform="translate(671.19986 0)"/>
       <use xlink:href="#SourceHanSansSC-Regular-6f" transform="translate(698.699844 0)"/>
       <use xlink:href="#SourceHanSansSC-Regular-6e" transform="translate(759.299835 0)"/>
      </g>
     </g>
    </g>
    <g id="xtick_2">
     <g id="line2d_2">
      <g>
       <use xlink:href="#md490a1e8aa" x="273.074582" y="330.246234" style="stroke: #000000; stroke-width: 0.8"/>
      </g>
     </g>
     <g id="text_2" style="display:none">
      <!-- 上下文召回率 -->
      <g transform="translate(207.901987 363.404172) rotate(-16) scale(0.1 -0.1)">
       <defs>
        <path id="SourceHanSansSC-Regular-52" d="M 1235 2464 
L 1235 4211 
L 2022 4211 
C 2758 4211 3162 3994 3162 3379 
C 3162 2765 2758 2464 2022 2464 
L 1235 2464 
z
M 3219 0 
L 3885 0 
L 2694 2054 
C 3328 2208 3750 2643 3750 3379 
C 3750 4352 3066 4691 2112 4691 
L 646 4691 
L 646 0 
L 1235 0 
L 1235 1990 
L 2080 1990 
L 3219 0 
z
" transform="scale(0.015625)"/>
        <path id="SourceHanSansSC-Regular-61" d="M 1389 -83 
C 1818 -83 2208 141 2541 416 
L 2560 416 
L 2611 0 
L 3091 0 
L 3091 2138 
C 3091 3002 2739 3565 1888 3565 
C 1325 3565 838 3322 525 3110 
L 749 2720 
C 1024 2893 1389 3078 1792 3078 
C 2362 3078 2509 2650 2509 2202 
C 1030 2035 378 1658 378 902 
C 378 275 806 -83 1389 -83 
z
M 1555 390 
C 1210 390 941 544 941 941 
C 941 1389 1338 1677 2509 1811 
L 2509 845 
C 2170 544 1888 390 1555 390 
z
" transform="scale(0.015625)"/>
        <path id="SourceHanSansSC-Regular-6c" d="M 1203 -70 
C 1350 -70 1459 -45 1542 0 
L 1459 429 
C 1408 416 1376 416 1344 416 
C 1248 416 1178 480 1178 672 
L 1178 5094 
L 589 5094 
L 589 710 
C 589 211 768 -70 1203 -70 
z
" transform="scale(0.015625)"/>
       </defs>
       <use xlink:href="#SourceHanSansSC-Regular-43"/>
       <use xlink:href="#SourceHanSansSC-Regular-6f" transform="translate(63.799988 0)"/>
       <use xlink:href="#SourceHanSansSC-Regular-6e" transform="translate(124.399979 0)"/>
       <use xlink:href="#SourceHanSansSC-Regular-74" transform="translate(185.399963 0)"/>
       <use xlink:href="#SourceHanSansSC-Regular-65" transform="translate(223.09996 0)"/>
       <use xlink:href="#SourceHanSansSC-Regular-78" transform="translate(278.499954 0)"/>
       <use xlink:href="#SourceHanSansSC-Regular-74" transform="translate(328.299942 0)"/>
       <use xlink:href="#SourceHanSansSC-Regular-20" transform="translate(365.999939 0)"/>
       <use xlink:href="#SourceHanSansSC-Regular-52" transform="translate(388.399933 0)"/>
       <use xlink:href="#SourceHanSansSC-Regular-65" transform="translate(451.899918 0)"/>
       <use xlink:href="#SourceHanSansSC-Regular-63" transform="translate(507.299911 0)"/>
       <use xlink:href="#SourceHanSansSC-Regular-61" transform="translate(558.299896 0)"/>
       <use xlink:href="#SourceHanSansSC-Regular-6c" transform="translate(614.599884 0)"/>
       <use xlink:href="#SourceHanSansSC-Regular-6c" transform="translate(642.999878 0)"/>
      </g>
     </g>
    </g>
   </g>
   <g id="matplotlib.axis_2">
    <g id="ytick_1">
     <g id="line2d_3">
      <path d="M 28.079688 330.246234 
L 348.640089 330.246234 
" clip-path="url(#p64a79af317)" style="fill: none; stroke-dasharray: 2.96,1.28; stroke-dashoffset: 0; stroke: #b0b0b0; stroke-opacity: 0.25; stroke-width: 0.8"/>
     </g>
     <g id="line2d_4">
      <defs>
       <path id="md47e82e7ff" d="M 0 0 
L -3.5 0 
" style="stroke: #000000; stroke-width: 0.8"/>
      </defs>
      <g>
       <use xlink:href="#md47e82e7ff" x="28.079688" y="330.246234" style="stroke: #000000; stroke-width: 0.8"/>
      </g>
     </g>
     <g id="text_3">
      <!-- 0.0 -->
      <g transform="translate(7.2 334.225922) scale(0.1 -0.1)">
       <defs>
        <path id="SourceHanSansSC-Regular-30" d="M 1779 -83 
C 2669 -83 3238 723 3238 2362 
C 3238 3987 2669 4774 1779 4774 
C 883 4774 320 3987 320 2362 
C 320 723 883 -83 1779 -83 
z
M 1779 390 
C 1248 390 883 986 883 2362 
C 883 3731 1248 4314 1779 4314 
C 2310 4314 2675 3731 2675 2362 
C 2675 986 2310 390 1779 390 
z
" transform="scale(0.015625)"/>
        <path id="SourceHanSansSC-Regular-2e" d="M 890 -83 
C 1120 -83 1312 96 1312 358 
C 1312 627 1120 806 890 806 
C 653 806 467 627 467 358 
C 467 96 653 -83 890 -83 
z
" transform="scale(0.015625)"/>
       </defs>
       <use xlink:href="#SourceHanSansSC-Regular-30"/>
       <use xlink:href="#SourceHanSansSC-Regular-2e" transform="translate(55.499985 0)"/>
       <use xlink:href="#SourceHanSansSC-Regular-30" transform="translate(83.299973 0)"/>
      </g>
     </g>
    </g>
    <g id="ytick_2">
     <g id="line2d_5">
      <path d="M 28.079688 278.893969 
L 348.640089 278.893969 
" clip-path="url(#p64a79af317)" style="fill: none; stroke-dasharray: 2.96,1.28; stroke-dashoffset: 0; stroke: #b0b0b0; stroke-opacity: 0.25; stroke-width: 0.8"/>
     </g>
     <g id="line2d_6">
      <g>
       <use xlink:href="#md47e82e7ff" x="28.079688" y="278.893969" style="stroke: #000000; stroke-width: 0.8"/>
      </g>
     </g>
     <g id="text_4">
      <!-- 0.2 -->
      <g transform="translate(7.2 282.873656) scale(0.1 -0.1)">
       <defs>
        <path id="SourceHanSansSC-Regular-32" d="M 282 0 
L 3232 0 
L 3232 506 
L 1894 506 
C 1658 506 1376 480 1126 461 
C 2240 1504 3008 2445 3008 3398 
C 3008 4230 2477 4774 1638 4774 
C 1050 4774 646 4493 269 4077 
L 595 3757 
C 858 4070 1184 4301 1568 4301 
C 2150 4301 2432 3910 2432 3373 
C 2432 2573 1773 1632 282 371 
L 282 0 
z
" transform="scale(0.015625)"/>
       </defs>
       <use xlink:href="#SourceHanSansSC-Regular-30"/>
       <use xlink:href="#SourceHanSansSC-Regular-2e" transform="translate(55.499985 0)"/>
       <use xlink:href="#SourceHanSansSC-Regular-32" transform="translate(83.299973 0)"/>
      </g>
     </g>
    </g>
    <g id="ytick_3">
     <g id="line2d_7">
      <path d="M 28.079688 227.541703 
L 348.640089 227.541703 
" clip-path="url(#p64a79af317)" style="fill: none; stroke-dasharray: 2.96,1.28; stroke-dashoffset: 0; stroke: #b0b0b0; stroke-opacity: 0.25; stroke-width: 0.8"/>
     </g>
     <g id="line2d_8">
      <g>
       <use xlink:href="#md47e82e7ff" x="28.079688" y="227.541703" style="stroke: #000000; stroke-width: 0.8"/>
      </g>
     </g>
     <g id="text_5">
      <!-- 0.4 -->
      <g transform="translate(7.2 231.521391) scale(0.1 -0.1)">
       <defs>
        <path id="SourceHanSansSC-Regular-34" d="M 2176 0 
L 2726 0 
L 2726 1293 
L 3354 1293 
L 3354 1760 
L 2726 1760 
L 2726 4691 
L 2080 4691 
L 128 1677 
L 128 1293 
L 2176 1293 
L 2176 0 
z
M 2176 1760 
L 736 1760 
L 1805 3360 
C 1939 3590 2067 3827 2182 4051 
L 2208 4051 
C 2195 3814 2176 3430 2176 3200 
L 2176 1760 
z
" transform="scale(0.015625)"/>
       </defs>
       <use xlink:href="#SourceHanSansSC-Regular-30"/>
       <use xlink:href="#SourceHanSansSC-Regular-2e" transform="translate(55.499985 0)"/>
       <use xlink:href="#SourceHanSansSC-Regular-34" transform="translate(83.299973 0)"/>
      </g>
     </g>
    </g>
    <g id="ytick_4">
     <g id="line2d_9">
      <path d="M 28.079688 176.189437 
L 348.640089 176.189437 
" clip-path="url(#p64a79af317)" style="fill: none; stroke-dasharray: 2.96,1.28; stroke-dashoffset: 0; stroke: #b0b0b0; stroke-opacity: 0.25; stroke-width: 0.8"/>
     </g>
     <g id="line2d_10">
      <g>
       <use xlink:href="#md47e82e7ff" x="28.079688" y="176.189437" style="stroke: #000000; stroke-width: 0.8"/>
      </g>
     </g>
     <g id="text_6">
      <!-- 0.6 -->
      <g transform="translate(7.2 180.169125) scale(0.1 -0.1)">
       <defs>
        <path id="SourceHanSansSC-Regular-36" d="M 1926 -83 
C 2656 -83 3277 531 3277 1440 
C 3277 2426 2765 2912 1971 2912 
C 1606 2912 1197 2701 909 2349 
C 934 3802 1466 4294 2118 4294 
C 2400 4294 2682 4154 2861 3936 
L 3194 4294 
C 2931 4576 2579 4774 2093 4774 
C 1184 4774 358 4077 358 2240 
C 358 691 1030 -83 1926 -83 
z
M 922 1882 
C 1229 2317 1587 2477 1875 2477 
C 2445 2477 2720 2074 2720 1440 
C 2720 800 2374 378 1926 378 
C 1338 378 986 909 922 1882 
z
" transform="scale(0.015625)"/>
       </defs>
       <use xlink:href="#SourceHanSansSC-Regular-30"/>
       <use xlink:href="#SourceHanSansSC-Regular-2e" transform="translate(55.499985 0)"/>
       <use xlink:href="#SourceHanSansSC-Regular-36" transform="translate(83.299973 0)"/>
      </g>
     </g>
    </g>
    <g id="ytick_5">
     <g id="line2d_11">
      <path d="M 28.079688 124.837172 
L 348.640089 124.837172 
" clip-path="url(#p64a79af317)" style="fill: none; stroke-dasharray: 2.96,1.28; stroke-dashoffset: 0; stroke: #b0b0b0; stroke-opacity: 0.25; stroke-width: 0.8"/>
     </g>
     <g id="line2d_12">
      <g>
       <use xlink:href="#md47e82e7ff" x="28.079688" y="124.837172" style="stroke: #000000; stroke-width: 0.8"/>
      </g>
     </g>
     <g id="text_7">
      <!-- 0.8 -->
      <g transform="translate(7.2 128.816859) scale(0.1 -0.1)">
       <defs>
        <path id="SourceHanSansSC-Regular-38" d="M 1792 -83 
C 2669 -83 3258 448 3258 1126 
C 3258 1773 2880 2125 2470 2362 
L 2470 2394 
C 2746 2611 3091 3034 3091 3526 
C 3091 4250 2605 4762 1805 4762 
C 1075 4762 518 4282 518 3571 
C 518 3078 813 2726 1152 2490 
L 1152 2464 
C 723 2234 294 1792 294 1165 
C 294 442 922 -83 1792 -83 
z
M 2112 2547 
C 1555 2765 1050 3014 1050 3571 
C 1050 4026 1363 4326 1798 4326 
C 2298 4326 2592 3962 2592 3494 
C 2592 3149 2426 2829 2112 2547 
z
M 1798 352 
C 1235 352 813 717 813 1216 
C 813 1664 1082 2035 1459 2278 
C 2125 2010 2701 1779 2701 1146 
C 2701 678 2342 352 1798 352 
z
" transform="scale(0.015625)"/>
       </defs>
       <use xlink:href="#SourceHanSansSC-Regular-30"/>
       <use xlink:href="#SourceHanSansSC-Regular-2e" transform="translate(55.499985 0)"/>
       <use xlink:href="#SourceHanSansSC-Regular-38" transform="translate(83.299973 0)"/>
      </g>
     </g>
    </g>
    <g id="ytick_6">
     <g id="line2d_13">
      <path d="M 28.079688 73.484906 
L 348.640089 73.484906 
" clip-path="url(#p64a79af317)" style="fill: none; stroke-dasharray: 2.96,1.28; stroke-dashoffset: 0; stroke: #b0b0b0; stroke-opacity: 0.25; stroke-width: 0.8"/>
     </g>
     <g id="line2d_14">
      <g>
       <use xlink:href="#md47e82e7ff" x="28.079688" y="73.484906" style="stroke: #000000; stroke-width: 0.8"/>
      </g>
     </g>
     <g id="text_8">
      <!-- 1.0 -->
      <g transform="translate(7.2 77.464594) scale(0.1 -0.1)">
       <defs>
        <path id="SourceHanSansSC-Regular-31" d="M 563 0 
L 3136 0 
L 3136 486 
L 2195 486 
L 2195 4691 
L 1747 4691 
C 1491 4544 1190 4435 774 4358 
L 774 3987 
L 1613 3987 
L 1613 486 
L 563 486 
L 563 0 
z
" transform="scale(0.015625)"/>
       </defs>
       <use xlink:href="#SourceHanSansSC-Regular-31"/>
       <use xlink:href="#SourceHanSansSC-Regular-2e" transform="translate(55.499985 0)"/>
       <use xlink:href="#SourceHanSansSC-Regular-30" transform="translate(83.299973 0)"/>
      </g>
     </g>
    </g>
   </g>
   <g id="patch_7">
    <path d="M 28.079688 330.246234 
L 28.079688 52.944 
" style="fill: none; stroke: #000000; stroke-width: 0.8; stroke-linejoin: miter; stroke-linecap: square"/>
   </g>
   <g id="patch_8">
    <path d="M 348.640089 330.246234 
L 348.640089 52.944 
" style="fill: none; stroke: #000000; stroke-width: 0.8; stroke-linejoin: miter; stroke-linecap: square"/>
   </g>
   <g id="patch_9">
    <path d="M 28.079688 330.246234 
L 348.640089 330.246234 
" style="fill: none; stroke: #000000; stroke-width: 0.8; stroke-linejoin: miter; stroke-linecap: square"/>
   </g>
   <g id="patch_10">
    <path d="M 28.079688 52.944 
L 348.640089 52.944 
" style="fill: none; stroke: #000000; stroke-width: 0.8; stroke-linejoin: miter; stroke-linecap: square"/>
   </g>
   <g id="text_9">
    <!-- 0.97 -->
    <g transform="translate(64.404545 76.481542) scale(0.09 -0.09)">
     <defs>
      <path id="SourceHanSansSC-Regular-39" d="M 1504 -83 
C 2381 -83 3206 646 3206 2547 
C 3206 4038 2528 4774 1626 4774 
C 896 4774 282 4166 282 3251 
C 282 2285 794 1779 1574 1779 
C 1965 1779 2368 2003 2656 2349 
C 2611 896 2086 403 1485 403 
C 1178 403 896 538 691 762 
L 371 397 
C 634 122 992 -83 1504 -83 
z
M 2650 2842 
C 2336 2394 1984 2214 1670 2214 
C 1114 2214 832 2624 832 3251 
C 832 3898 1178 4320 1632 4320 
C 2227 4320 2586 3808 2650 2842 
z
" transform="scale(0.015625)"/>
      <path id="SourceHanSansSC-Regular-37" d="M 1267 0 
L 1875 0 
C 1952 1837 2150 2931 3251 4339 
L 3251 4691 
L 314 4691 
L 314 4192 
L 2592 4192 
C 1670 2912 1350 1779 1267 0 
z
" transform="scale(0.015625)"/>
     </defs>
     <use xlink:href="#SourceHanSansSC-Regular-30"/>
     <use xlink:href="#SourceHanSansSC-Regular-2e" transform="translate(55.499985 0)"/>
     <use xlink:href="#SourceHanSansSC-Regular-39" transform="translate(83.299973 0)"/>
     <use xlink:href="#SourceHanSansSC-Regular-37" transform="translate(138.799957 0)"/>
    </g>
   </g>
   <g id="text_10">
    <!-- 0.93 -->
    <g transform="translate(233.833933 84.697904) scale(0.09 -0.09)">
     <defs>
      <path id="SourceHanSansSC-Regular-33" d="M 1683 -83 
C 2522 -83 3194 416 3194 1254 
C 3194 1901 2752 2310 2202 2445 
L 2202 2477 
C 2701 2650 3034 3034 3034 3603 
C 3034 4346 2458 4774 1664 4774 
C 1126 4774 710 4538 358 4218 
L 672 3846 
C 941 4115 1267 4301 1645 4301 
C 2138 4301 2438 4006 2438 3558 
C 2438 3053 2112 2662 1139 2662 
L 1139 2214 
C 2227 2214 2598 1843 2598 1274 
C 2598 736 2208 403 1645 403 
C 1114 403 762 659 486 941 
L 186 563 
C 493 224 954 -83 1683 -83 
z
" transform="scale(0.015625)"/>
     </defs>
     <use xlink:href="#SourceHanSansSC-Regular-30"/>
     <use xlink:href="#SourceHanSansSC-Regular-2e" transform="translate(55.499985 0)"/>
     <use xlink:href="#SourceHanSansSC-Regular-39" transform="translate(83.299973 0)"/>
     <use xlink:href="#SourceHanSansSC-Regular-33" transform="translate(138.799957 0)"/>
    </g>
   </g>
   <g id="text_11">
    <!-- 0.88 -->
    <g transform="translate(125.399125 98.768425) scale(0.09 -0.09)">
     <use xlink:href="#SourceHanSansSC-Regular-30"/>
     <use xlink:href="#SourceHanSansSC-Regular-2e" transform="translate(55.499985 0)"/>
     <use xlink:href="#SourceHanSansSC-Regular-38" transform="translate(83.299973 0)"/>
     <use xlink:href="#SourceHanSansSC-Regular-38" transform="translate(138.799957 0)"/>
    </g>
   </g>
   <g id="text_12">
    <!-- 0.88 -->
    <g transform="translate(294.828512 99.66709) scale(0.09 -0.09)">
     <use xlink:href="#SourceHanSansSC-Regular-30"/>
     <use xlink:href="#SourceHanSansSC-Regular-2e" transform="translate(55.499985 0)"/>
     <use xlink:href="#SourceHanSansSC-Regular-38" transform="translate(83.299973 0)"/>
     <use xlink:href="#SourceHanSansSC-Regular-38" transform="translate(138.799957 0)"/>
    </g>
   </g>
   <g id="text_13">
    <!-- 检索质量 -->
    <g transform="translate(164.359888 46.944) scale(0.12 -0.12)">
     <defs>
      <path id="SourceHanSansSC-Regular-68c0" d="M 5165 3392 
L 2995 3392 
L 2995 2976 
L 5165 2976 
L 5165 3392 
z
M 2918 2368 
L 2541 2272 
C 2720 1786 2899 1146 2950 723 
L 3347 838 
C 3290 1248 3110 1882 2918 2368 
z
M 4160 2502 
L 3782 2451 
C 3898 1965 4006 1331 4038 909 
L 4442 979 
C 4403 1395 4288 2016 4160 2502 
z
M 1587 5376 
L 1146 5376 
L 1146 4160 
L 314 4160 
L 314 3712 
L 1101 3712 
C 928 2867 570 1875 211 1350 
C 288 1235 403 1018 454 883 
C 710 1280 954 1920 1146 2586 
L 1146 -506 
L 1587 -506 
L 1587 2835 
C 1754 2522 1939 2144 2022 1946 
L 2310 2285 
C 2208 2477 1734 3232 1587 3443 
L 1587 3712 
L 2253 3712 
L 2253 4160 
L 1587 4160 
L 1587 5376 
z
M 4416 5267 
L 3994 5421 
C 3558 4518 2797 3706 1990 3213 
C 2080 3117 2221 2912 2278 2816 
C 2931 3270 3571 3910 4058 4646 
C 4550 4006 5286 3315 5933 2886 
C 5984 3014 6093 3213 6182 3322 
C 5530 3706 4730 4410 4288 5030 
L 4416 5267 
z
M 6003 224 
L 4826 224 
C 5158 826 5542 1696 5818 2387 
L 5389 2502 
C 5165 1811 4755 832 4416 224 
L 2195 224 
L 2195 -205 
L 6003 -205 
L 6003 224 
z
" transform="scale(0.015625)"/>
      <path id="SourceHanSansSC-Regular-7d22" d="M 4416 902 
L 4051 666 
C 4595 371 5280 -77 5613 -371 
L 5997 -90 
C 5638 205 4947 627 4416 902 
z
M 2291 698 
L 1856 870 
C 1491 525 915 166 390 -64 
C 499 -141 678 -301 762 -390 
C 1267 -122 1882 294 2291 698 
z
M 3533 51 
L 3533 1210 
L 5101 1306 
C 5274 1126 5427 954 5530 813 
L 5901 1062 
C 5626 1421 5050 1946 4595 2317 
L 4256 2099 
C 4422 1958 4602 1798 4774 1632 
L 1978 1485 
C 2880 1824 3789 2253 4653 2778 
L 4307 3072 
C 4026 2886 3718 2714 3411 2547 
L 1978 2464 
C 2419 2682 2861 2944 3264 3232 
L 3072 3379 
L 5517 3379 
L 5517 2592 
L 5990 2592 
L 5990 3795 
L 3450 3795 
L 3450 4390 
L 5907 4390 
L 5907 4813 
L 3450 4813 
L 3450 5382 
L 2950 5382 
L 2950 4813 
L 486 4813 
L 486 4390 
L 2950 4390 
L 2950 3795 
L 422 3795 
L 422 2592 
L 877 2592 
L 877 3379 
L 2778 3379 
C 2323 3027 1754 2720 1574 2630 
C 1395 2534 1242 2470 1114 2464 
C 1158 2349 1222 2131 1242 2042 
C 1350 2086 1517 2106 2701 2182 
C 2170 1933 1722 1741 1517 1664 
C 1146 1510 864 1421 653 1402 
C 698 1280 762 1062 781 979 
C 947 1037 1197 1062 3066 1184 
L 3066 64 
C 3066 -13 3040 -38 2931 -38 
C 2835 -51 2490 -51 2093 -38 
C 2170 -160 2246 -346 2272 -480 
C 2739 -480 3066 -480 3264 -403 
C 3475 -333 3533 -205 3533 51 
z
" transform="scale(0.015625)"/>
      <path id="SourceHanSansSC-Regular-8d28" d="M 4141 736 
L 3802 442 
C 4448 205 5254 -198 5696 -474 
L 6035 -147 
C 5587 109 4781 493 4141 736 
z
M 3962 1651 
L 3962 2227 
L 3469 2227 
L 3469 1658 
C 3469 1139 3334 384 1357 -128 
C 1472 -224 1613 -397 1677 -506 
C 3744 102 3962 992 3962 1651 
z
M 3405 4000 
L 1370 4000 
L 1370 4512 
C 2042 4538 2765 4582 3450 4646 
L 3405 4000 
z
M 5594 2944 
L 3757 2944 
L 3846 3571 
L 6080 3571 
L 6080 4000 
L 3891 4000 
L 3962 4698 
C 4608 4768 5203 4851 5696 4960 
L 5318 5344 
C 4307 5120 2438 4966 896 4902 
L 896 3117 
C 896 2138 838 774 230 -192 
C 352 -237 563 -358 653 -435 
C 1280 570 1370 2074 1370 3117 
L 1370 3571 
L 3360 3571 
L 3290 2944 
L 1862 2944 
L 1862 730 
L 2342 730 
L 2342 2490 
L 5094 2490 
L 5094 704 
L 5594 704 
L 5594 2944 
z
" transform="scale(0.015625)"/>
      <path id="SourceHanSansSC-Regular-91cf" d="M 1600 3904 
L 1600 4256 
L 4781 4256 
L 4781 3904 
L 1600 3904 
z
M 1600 4538 
L 1600 4883 
L 4781 4883 
L 4781 4538 
L 1600 4538 
z
M 5261 5171 
L 1133 5171 
L 1133 3616 
L 5261 3616 
L 5261 5171 
z
M 6074 3341 
L 333 3341 
L 333 2976 
L 6074 2976 
L 6074 3341 
z
M 1472 1376 
L 1472 1747 
L 2957 1747 
L 2957 1376 
L 1472 1376 
z
M 3424 1747 
L 4973 1747 
L 4973 1376 
L 3424 1376 
L 3424 1747 
z
M 1472 2029 
L 1472 2387 
L 2957 2387 
L 2957 2029 
L 1472 2029 
z
M 3424 2387 
L 4973 2387 
L 4973 2029 
L 3424 2029 
L 3424 2387 
z
M 6112 19 
L 3424 19 
L 3424 390 
L 5587 390 
L 5587 730 
L 3424 730 
L 3424 1082 
L 5446 1082 
L 5446 2688 
L 1018 2688 
L 1018 1082 
L 2957 1082 
L 2957 730 
L 838 730 
L 838 390 
L 2957 390 
L 2957 19 
L 301 19 
L 301 -352 
L 6112 -352 
L 6112 19 
z
" transform="scale(0.015625)"/>
     </defs>
     <use xlink:href="#SourceHanSansSC-Regular-68c0"/>
     <use xlink:href="#SourceHanSansSC-Regular-7d22" transform="translate(99.999985 0)"/>
     <use xlink:href="#SourceHanSansSC-Regular-8d28" transform="translate(199.999969 0)"/>
     <use xlink:href="#SourceHanSansSC-Regular-91cf" transform="translate(299.999954 0)"/>
    </g>
   </g>
   <g id="legend_1">
    <g id="patch_11">
     <path d="M 37.079688 69.903375 
L 57.079688 69.903375 
L 57.079688 62.903375 
L 37.079688 62.903375 
z
" style="fill: #0e5a8a"/>
    </g>
    <g id="text_14" style="display:none">
     <!-- RAG -->
     <g transform="translate(65.079688 69.903375) scale(0.1 -0.1)">
      <defs>
       <path id="SourceHanSansSC-Regular-4f60" d="M 3341 2541 
L 2874 2637 
C 2694 1869 2387 1107 1990 614 
C 2106 550 2317 429 2400 352 
C 2797 883 3136 1702 3341 2541 
z
M 5286 2682 
L 4851 2541 
C 5203 1862 5523 960 5626 371 
L 6086 538 
C 5971 1120 5651 2003 5286 2682 
z
M 5728 4141 
L 3117 4141 
C 3251 4493 3366 4864 3456 5242 
L 2982 5350 
C 2765 4410 2400 3488 1920 2893 
C 2035 2822 2227 2662 2310 2586 
C 2541 2886 2752 3270 2938 3693 
L 3917 3693 
L 3917 70 
C 3917 -13 3885 -32 3808 -38 
C 3718 -38 3443 -45 3136 -32 
C 3206 -166 3283 -384 3309 -518 
C 3706 -518 3987 -506 4160 -422 
C 4333 -339 4390 -198 4390 70 
L 4390 3693 
L 5600 3693 
C 5549 3366 5491 3027 5446 2790 
L 5856 2714 
C 5946 3059 6054 3616 6138 4083 
L 5811 4160 
L 5728 4141 
z
M 1024 -499 
L 1485 -499 
L 1485 3840 
C 1734 4282 1965 4749 2144 5216 
L 1690 5350 
C 1331 4384 736 3424 102 2797 
C 192 2688 326 2438 371 2323 
C 595 2554 813 2822 1024 3117 
L 1024 -499 
z
" transform="scale(0.015625)"/>
       <path id="SourceHanSansSC-Regular-7684" d="M 3904 2918 
L 3533 2707 
C 3885 2240 4320 1600 4512 1216 
L 4915 1466 
C 4710 1843 4262 2464 3904 2918 
z
M 2054 5299 
L 1536 5389 
C 1485 5082 1376 4653 1274 4346 
L 557 4346 
L 557 -346 
L 998 -346 
L 998 160 
L 2784 160 
L 2784 4346 
L 1715 4346 
C 1824 4621 1946 4979 2054 5299 
z
M 998 3917 
L 2342 3917 
L 2342 2566 
L 998 2566 
L 998 3917 
z
M 998 595 
L 998 2144 
L 2342 2144 
L 2342 595 
L 998 595 
z
M 4288 5299 
L 3827 5402 
C 3622 4518 3277 3635 2835 3066 
C 2950 3002 3149 2867 3238 2790 
C 3456 3098 3661 3488 3840 3923 
L 5478 3923 
C 5402 1357 5299 371 5094 154 
C 5018 64 4947 45 4819 45 
C 4672 45 4288 51 3866 83 
C 3955 -38 4013 -243 4026 -378 
C 4384 -397 4762 -410 4979 -390 
C 5210 -365 5350 -314 5498 -122 
C 5754 192 5843 1184 5939 4122 
C 5946 4186 5946 4365 5946 4365 
L 4013 4365 
C 4115 4666 4211 4986 4288 5299 
z
" transform="scale(0.015625)"/>
       <path id="SourceHanSansSC-Regular-41" d="M 26 0 
L 621 0 
L 1075 1434 
L 2790 1434 
L 3238 0 
L 3866 0 
L 2272 4691 
L 1613 4691 
L 26 0 
z
M 1222 1901 
L 1453 2624 
C 1619 3155 1773 3661 1920 4211 
L 1946 4211 
C 2099 3667 2246 3155 2419 2624 
L 2643 1901 
L 1222 1901 
z
" transform="scale(0.015625)"/>
       <path id="SourceHanSansSC-Regular-47" d="M 2490 -83 
C 3117 -83 3635 147 3936 461 
L 3936 2432 
L 2394 2432 
L 2394 1939 
L 3392 1939 
L 3392 710 
C 3206 538 2880 435 2547 435 
C 1542 435 979 1178 979 2362 
C 979 3533 1594 4256 2541 4256 
C 3008 4256 3315 4083 3552 3834 
L 3872 4198 
C 3603 4493 3174 4774 2522 4774 
C 1280 4774 371 3859 371 2342 
C 371 819 1254 -83 2490 -83 
z
" transform="scale(0.015625)"/>
      </defs>
      <use xlink:href="#SourceHanSansSC-Regular-4f60"/>
      <use xlink:href="#SourceHanSansSC-Regular-7684" transform="translate(99.999985 0)"/>
      <use xlink:href="#SourceHanSansSC-Regular-20" transform="translate(199.999969 0)"/>
      <use xlink:href="#SourceHanSansSC-Regular-52" transform="translate(222.399963 0)"/>
      <use xlink:href="#SourceHanSansSC-Regular-41" transform="translate(285.899948 0)"/>
      <use xlink:href="#SourceHanSansSC-Regular-47" transform="translate(346.699936 0)"/>
     </g>
    </g>
    <g id="patch_12">
     <path d="M 37.079688 85.153375 
L 57.079688 85.153375 
L 57.079688 78.153375 
L 37.079688 78.153375 
z
" style="fill: #d9822b"/>
    </g>
    <g id="text_15">
     <!-- LlamaIndex -->
     <g transform="translate(65.079688 85.153375) scale(0.1 -0.1)">
      <defs>
       <path id="SourceHanSansSC-Regular-4c" d="M 646 0 
L 3290 0 
L 3290 506 
L 1235 506 
L 1235 4691 
L 646 4691 
L 646 0 
z
" transform="scale(0.015625)"/>
       <path id="SourceHanSansSC-Regular-6d" d="M 589 0 
L 1178 0 
L 1178 2522 
C 1491 2880 1786 3053 2048 3053 
C 2490 3053 2694 2778 2694 2125 
L 2694 0 
L 3277 0 
L 3277 2522 
C 3603 2880 3885 3053 4154 3053 
C 4595 3053 4800 2778 4800 2125 
L 4800 0 
L 5382 0 
L 5382 2202 
C 5382 3085 5043 3565 4333 3565 
C 3904 3565 3546 3290 3181 2899 
C 3040 3309 2758 3565 2221 3565 
C 1805 3565 1446 3302 1139 2970 
L 1126 2970 
L 1069 3475 
L 589 3475 
L 589 0 
z
" transform="scale(0.015625)"/>
       <path id="SourceHanSansSC-Regular-49" d="M 646 0 
L 1235 0 
L 1235 4691 
L 646 4691 
L 646 0 
z
" transform="scale(0.015625)"/>
       <path id="SourceHanSansSC-Regular-64" d="M 1773 -83 
C 2189 -83 2560 141 2829 410 
L 2848 410 
L 2899 0 
L 3379 0 
L 3379 5094 
L 2790 5094 
L 2790 3757 
L 2822 3162 
C 2515 3411 2253 3565 1843 3565 
C 1050 3565 339 2861 339 1734 
C 339 576 902 -83 1773 -83 
z
M 1901 410 
C 1293 410 941 902 941 1741 
C 941 2534 1389 3072 1946 3072 
C 2234 3072 2502 2970 2790 2707 
L 2790 883 
C 2502 563 2221 410 1901 410 
z
" transform="scale(0.015625)"/>
      </defs>
      <use xlink:href="#SourceHanSansSC-Regular-4c"/>
      <use xlink:href="#SourceHanSansSC-Regular-6c" transform="translate(54.299988 0)"/>
      <use xlink:href="#SourceHanSansSC-Regular-61" transform="translate(82.699982 0)"/>
      <use xlink:href="#SourceHanSansSC-Regular-6d" transform="translate(138.999969 0)"/>
      <use xlink:href="#SourceHanSansSC-Regular-61" transform="translate(231.59996 0)"/>
      <use xlink:href="#SourceHanSansSC-Regular-49" transform="translate(287.899948 0)"/>
      <use xlink:href="#SourceHanSansSC-Regular-6e" transform="translate(317.199936 0)"/>
      <use xlink:href="#SourceHanSansSC-Regular-64" transform="translate(378.199921 0)"/>
      <use xlink:href="#SourceHanSansSC-Regular-65" transform="translate(440.199905 0)"/>
      <use xlink:href="#SourceHanSansSC-Regular-78" transform="translate(495.599899 0)"/>
     </g>
    </g>
   </g>
  </g>
  <g id="axes_2">
   <g id="patch_13">
    <path d="M 385.435656 330.246234 
L 705.996057 330.246234 
L 705.996057 52.944 
L 385.435656 52.944 
z
" style="fill: #ffffff"/>
   </g>
   <g id="patch_14">
    <path d="M 400.006583 330.246234 
L 461.001163 330.246234 
L 461.001163 94.000136 
L 400.006583 94.000136 
z
" clip-path="url(#p23b445ae27)" style="fill: #0e5a8a"/>
   </g>
   <g id="patch_15">
    <path d="M 569.435971 330.246234 
L 630.43055 330.246234 
L 630.43055 112.153162 
L 569.435971 112.153162 
z
" clip-path="url(#p23b445ae27)" style="fill: #0e5a8a"/>
   </g>
   <g id="patch_16">
    <path d="M 461.001163 330.246234 
L 521.995742 330.246234 
L 521.995742 91.817665 
L 461.001163 91.817665 
z
" clip-path="url(#p23b445ae27)" style="fill: #d9822b"/>
   </g>
   <g id="patch_17">
    <path d="M 630.43055 330.246234 
L 691.42513 330.246234 
L 691.42513 128.200745 
L 630.43055 128.200745 
z
" clip-path="url(#p23b445ae27)" style="fill: #d9822b"/>
   </g>
   <g id="matplotlib.axis_3">
    <g id="xtick_3">
     <g id="line2d_15">
      <g>
       <use xlink:href="#md490a1e8aa" x="461.001163" y="330.246234" style="stroke: #000000; stroke-width: 0.8"/>
      </g>
     </g>
     <g id="text_16" style="display:none">
      <!-- 忠实度 -->
      <g transform="translate(405.672488 360.581473) rotate(-16) scale(0.1 -0.1)">
       <defs>
        <path id="SourceHanSansSC-Regular-46" d="M 646 0 
L 1235 0 
L 1235 2106 
L 3027 2106 
L 3027 2605 
L 1235 2605 
L 1235 4192 
L 3347 4192 
L 3347 4691 
L 646 4691 
L 646 0 
z
" transform="scale(0.015625)"/>
        <path id="SourceHanSansSC-Regular-68" d="M 589 0 
L 1178 0 
L 1178 2522 
C 1523 2874 1766 3053 2125 3053 
C 2586 3053 2784 2778 2784 2125 
L 2784 0 
L 3366 0 
L 3366 2202 
C 3366 3085 3034 3565 2304 3565 
C 1830 3565 1472 3302 1152 2982 
L 1178 3699 
L 1178 5094 
L 589 5094 
L 589 0 
z
" transform="scale(0.015625)"/>
        <path id="SourceHanSansSC-Regular-66" d="M 173 3002 
L 685 3002 
L 685 0 
L 1267 0 
L 1267 3002 
L 2003 3002 
L 2003 3475 
L 1267 3475 
L 1267 4026 
C 1267 4474 1427 4710 1760 4710 
C 1882 4710 2016 4685 2150 4634 
L 2278 5069 
C 2131 5133 1914 5178 1696 5178 
C 1005 5178 685 4736 685 4032 
L 685 3475 
L 173 3443 
L 173 3002 
z
" transform="scale(0.015625)"/>
        <path id="SourceHanSansSC-Regular-75" d="M 1606 -83 
C 2080 -83 2426 166 2752 544 
L 2771 544 
L 2816 0 
L 3302 0 
L 3302 3475 
L 2720 3475 
L 2720 1011 
C 2387 602 2138 422 1779 422 
C 1318 422 1126 698 1126 1344 
L 1126 3475 
L 538 3475 
L 538 1274 
C 538 384 870 -83 1606 -83 
z
" transform="scale(0.015625)"/>
       </defs>
       <use xlink:href="#SourceHanSansSC-Regular-46"/>
       <use xlink:href="#SourceHanSansSC-Regular-61" transform="translate(55.199997 0)"/>
       <use xlink:href="#SourceHanSansSC-Regular-69" transform="translate(111.499985 0)"/>
       <use xlink:href="#SourceHanSansSC-Regular-74" transform="translate(138.999969 0)"/>
       <use xlink:href="#SourceHanSansSC-Regular-68" transform="translate(176.699966 0)"/>
       <use xlink:href="#SourceHanSansSC-Regular-66" transform="translate(237.399963 0)"/>
       <use xlink:href="#SourceHanSansSC-Regular-75" transform="translate(269.899948 0)"/>
       <use xlink:href="#SourceHanSansSC-Regular-6c" transform="translate(330.599945 0)"/>
       <use xlink:href="#SourceHanSansSC-Regular-6e" transform="translate(358.999939 0)"/>
       <use xlink:href="#SourceHanSansSC-Regular-65" transform="translate(419.999924 0)"/>
       <use xlink:href="#SourceHanSansSC-Regular-73" transform="translate(475.399918 0)"/>
       <use xlink:href="#SourceHanSansSC-Regular-73" transform="translate(522.199905 0)"/>
      </g>
     </g>
    </g>
    <g id="xtick_4">
     <g id="line2d_16">
      <g>
       <use xlink:href="#md490a1e8aa" x="630.43055" y="330.246234" style="stroke: #000000; stroke-width: 0.8"/>
      </g>
     </g>
     <g id="text_17" style="display:none">
      <!-- 答案相关性 -->
      <g transform="translate(548.980827 368.067611) rotate(-16) scale(0.1 -0.1)">
       <defs>
        <path id="SourceHanSansSC-Regular-77" d="M 1139 0 
L 1818 0 
L 2310 1862 
C 2400 2195 2477 2522 2547 2880 
L 2579 2880 
C 2662 2522 2726 2202 2816 1875 
L 3315 0 
L 4026 0 
L 4966 3475 
L 4403 3475 
L 3898 1466 
C 3821 1133 3757 819 3686 499 
L 3654 499 
C 3571 819 3494 1133 3411 1466 
L 2867 3475 
L 2298 3475 
L 1754 1466 
C 1670 1133 1594 819 1523 499 
L 1491 499 
C 1421 819 1357 1133 1286 1466 
L 768 3475 
L 173 3475 
L 1139 0 
z
" transform="scale(0.015625)"/>
        <path id="SourceHanSansSC-Regular-76" d="M 1338 0 
L 2022 0 
L 3251 3475 
L 2675 3475 
L 2016 1498 
C 1914 1158 1798 806 1696 474 
L 1664 474 
C 1562 806 1453 1158 1344 1498 
L 691 3475 
L 83 3475 
L 1338 0 
z
" transform="scale(0.015625)"/>
        <path id="SourceHanSansSC-Regular-79" d="M 646 -1498 
C 1338 -1498 1702 -973 1946 -294 
L 3251 3475 
L 2682 3475 
L 2054 1549 
C 1965 1235 1862 883 1773 563 
L 1741 563 
C 1619 890 1504 1242 1395 1549 
L 691 3475 
L 83 3475 
L 1478 -6 
L 1402 -269 
C 1254 -698 1011 -1018 621 -1018 
C 538 -1018 448 -998 358 -966 
L 237 -1421 
C 346 -1472 486 -1498 646 -1498 
z
" transform="scale(0.015625)"/>
       </defs>
       <use xlink:href="#SourceHanSansSC-Regular-41"/>
       <use xlink:href="#SourceHanSansSC-Regular-6e" transform="translate(60.799988 0)"/>
       <use xlink:href="#SourceHanSansSC-Regular-73" transform="translate(121.799973 0)"/>
       <use xlink:href="#SourceHanSansSC-Regular-77" transform="translate(168.59996 0)"/>
       <use xlink:href="#SourceHanSansSC-Regular-65" transform="translate(248.799942 0)"/>
       <use xlink:href="#SourceHanSansSC-Regular-72" transform="translate(304.199936 0)"/>
       <use xlink:href="#SourceHanSansSC-Regular-20" transform="translate(342.999924 0)"/>
       <use xlink:href="#SourceHanSansSC-Regular-52" transform="translate(365.399918 0)"/>
       <use xlink:href="#SourceHanSansSC-Regular-65" transform="translate(428.899902 0)"/>
       <use xlink:href="#SourceHanSansSC-Regular-6c" transform="translate(484.299896 0)"/>
       <use xlink:href="#SourceHanSansSC-Regular-65" transform="translate(512.69989 0)"/>
       <use xlink:href="#SourceHanSansSC-Regular-76" transform="translate(568.099884 0)"/>
       <use xlink:href="#SourceHanSansSC-Regular-61" transform="translate(620.199875 0)"/>
       <use xlink:href="#SourceHanSansSC-Regular-6e" transform="translate(676.499863 0)"/>
       <use xlink:href="#SourceHanSansSC-Regular-63" transform="translate(737.499847 0)"/>
       <use xlink:href="#SourceHanSansSC-Regular-79" transform="translate(788.499832 0)"/>
      </g>
     </g>
    </g>
   </g>
   <g id="matplotlib.axis_4">
    <g id="ytick_7">
     <g id="line2d_17">
      <path d="M 385.435656 330.246234 
L 705.996057 330.246234 
" clip-path="url(#p23b445ae27)" style="fill: none; stroke-dasharray: 2.96,1.28; stroke-dashoffset: 0; stroke: #b0b0b0; stroke-opacity: 0.25; stroke-width: 0.8"/>
     </g>
     <g id="line2d_18">
      <g>
       <use xlink:href="#md47e82e7ff" x="385.435656" y="330.246234" style="stroke: #000000; stroke-width: 0.8"/>
      </g>
     </g>
     <g id="text_18">
      <!-- 0.0 -->
      <g transform="translate(364.555968 334.225922) scale(0.1 -0.1)">
       <use xlink:href="#SourceHanSansSC-Regular-30"/>
       <use xlink:href="#SourceHanSansSC-Regular-2e" transform="translate(55.499985 0)"/>
       <use xlink:href="#SourceHanSansSC-Regular-30" transform="translate(83.299973 0)"/>
      </g>
     </g>
    </g>
    <g id="ytick_8">
     <g id="line2d_19">
      <path d="M 385.435656 278.893969 
L 705.996057 278.893969 
" clip-path="url(#p23b445ae27)" style="fill: none; stroke-dasharray: 2.96,1.28; stroke-dashoffset: 0; stroke: #b0b0b0; stroke-opacity: 0.25; stroke-width: 0.8"/>
     </g>
     <g id="line2d_20">
      <g>
       <use xlink:href="#md47e82e7ff" x="385.435656" y="278.893969" style="stroke: #000000; stroke-width: 0.8"/>
      </g>
     </g>
     <g id="text_19">
      <!-- 0.2 -->
      <g transform="translate(364.555968 282.873656) scale(0.1 -0.1)">
       <use xlink:href="#SourceHanSansSC-Regular-30"/>
       <use xlink:href="#SourceHanSansSC-Regular-2e" transform="translate(55.499985 0)"/>
       <use xlink:href="#SourceHanSansSC-Regular-32" transform="translate(83.299973 0)"/>
      </g>
     </g>
    </g>
    <g id="ytick_9">
     <g id="line2d_21">
      <path d="M 385.435656 227.541703 
L 705.996057 227.541703 
" clip-path="url(#p23b445ae27)" style="fill: none; stroke-dasharray: 2.96,1.28; stroke-dashoffset: 0; stroke: #b0b0b0; stroke-opacity: 0.25; stroke-width: 0.8"/>
     </g>
     <g id="line2d_22">
      <g>
       <use xlink:href="#md47e82e7ff" x="385.435656" y="227.541703" style="stroke: #000000; stroke-width: 0.8"/>
      </g>
     </g>
     <g id="text_20">
      <!-- 0.4 -->
      <g transform="translate(364.555968 231.521391) scale(0.1 -0.1)">
       <use xlink:href="#SourceHanSansSC-Regular-30"/>
       <use xlink:href="#SourceHanSansSC-Regular-2e" transform="translate(55.499985 0)"/>
       <use xlink:href="#SourceHanSansSC-Regular-34" transform="translate(83.299973 0)"/>
      </g>
     </g>
    </g>
    <g id="ytick_10">
     <g id="line2d_23">
      <path d="M 385.435656 176.189437 
L 705.996057 176.189437 
" clip-path="url(#p23b445ae27)" style="fill: none; stroke-dasharray: 2.96,1.28; stroke-dashoffset: 0; stroke: #b0b0b0; stroke-opacity: 0.25; stroke-width: 0.8"/>
     </g>
     <g id="line2d_24">
      <g>
       <use xlink:href="#md47e82e7ff" x="385.435656" y="176.189437" style="stroke: #000000; stroke-width: 0.8"/>
      </g>
     </g>
     <g id="text_21">
      <!-- 0.6 -->
      <g transform="translate(364.555968 180.169125) scale(0.1 -0.1)">
       <use xlink:href="#SourceHanSansSC-Regular-30"/>
       <use xlink:href="#SourceHanSansSC-Regular-2e" transform="translate(55.499985 0)"/>
       <use xlink:href="#SourceHanSansSC-Regular-36" transform="translate(83.299973 0)"/>
      </g>
     </g>
    </g>
    <g id="ytick_11">
     <g id="line2d_25">
      <path d="M 385.435656 124.837172 
L 705.996057 124.837172 
" clip-path="url(#p23b445ae27)" style="fill: none; stroke-dasharray: 2.96,1.28; stroke-dashoffset: 0; stroke: #b0b0b0; stroke-opacity: 0.25; stroke-width: 0.8"/>
     </g>
     <g id="line2d_26">
      <g>
       <use xlink:href="#md47e82e7ff" x="385.435656" y="124.837172" style="stroke: #000000; stroke-width: 0.8"/>
      </g>
     </g>
     <g id="text_22">
      <!-- 0.8 -->
      <g transform="translate(364.555968 128.816859) scale(0.1 -0.1)">
       <use xlink:href="#SourceHanSansSC-Regular-30"/>
       <use xlink:href="#SourceHanSansSC-Regular-2e" transform="translate(55.499985 0)"/>
       <use xlink:href="#SourceHanSansSC-Regular-38" transform="translate(83.299973 0)"/>
      </g>
     </g>
    </g>
    <g id="ytick_12">
     <g id="line2d_27">
      <path d="M 385.435656 73.484906 
L 705.996057 73.484906 
" clip-path="url(#p23b445ae27)" style="fill: none; stroke-dasharray: 2.96,1.28; stroke-dashoffset: 0; stroke: #b0b0b0; stroke-opacity: 0.25; stroke-width: 0.8"/>
     </g>
     <g id="line2d_28">
      <g>
       <use xlink:href="#md47e82e7ff" x="385.435656" y="73.484906" style="stroke: #000000; stroke-width: 0.8"/>
      </g>
     </g>
     <g id="text_23">
      <!-- 1.0 -->
      <g transform="translate(364.555968 77.464594) scale(0.1 -0.1)">
       <use xlink:href="#SourceHanSansSC-Regular-31"/>
       <use xlink:href="#SourceHanSansSC-Regular-2e" transform="translate(55.499985 0)"/>
       <use xlink:href="#SourceHanSansSC-Regular-30" transform="translate(83.299973 0)"/>
      </g>
     </g>
    </g>
   </g>
   <g id="patch_18">
    <path d="M 385.435656 330.246234 
L 385.435656 52.944 
" style="fill: none; stroke: #000000; stroke-width: 0.8; stroke-linejoin: miter; stroke-linecap: square"/>
   </g>
   <g id="patch_19">
    <path d="M 705.996057 330.246234 
L 705.996057 52.944 
" style="fill: none; stroke: #000000; stroke-width: 0.8; stroke-linejoin: miter; stroke-linecap: square"/>
   </g>
   <g id="patch_20">
    <path d="M 385.435656 330.246234 
L 705.996057 330.246234 
" style="fill: none; stroke: #000000; stroke-width: 0.8; stroke-linejoin: miter; stroke-linecap: square"/>
   </g>
   <g id="patch_21">
    <path d="M 385.435656 52.944 
L 705.996057 52.944 
" style="fill: none; stroke: #000000; stroke-width: 0.8; stroke-linejoin: miter; stroke-linecap: square"/>
   </g>
   <g id="text_24">
    <!-- 0.92 -->
    <g transform="translate(421.760514 88.087154) scale(0.09 -0.09)">
     <use xlink:href="#SourceHanSansSC-Regular-30"/>
     <use xlink:href="#SourceHanSansSC-Regular-2e" transform="translate(55.499985 0)"/>
     <use xlink:href="#SourceHanSansSC-Regular-39" transform="translate(83.299973 0)"/>
     <use xlink:href="#SourceHanSansSC-Regular-32" transform="translate(138.799957 0)"/>
    </g>
   </g>
   <g id="text_25">
    <!-- 0.85 -->
    <g transform="translate(591.189901 106.24018) scale(0.09 -0.09)">
     <defs>
      <path id="SourceHanSansSC-Regular-35" d="M 1677 -83 
C 2464 -83 3213 499 3213 1523 
C 3213 2560 2573 3021 1798 3021 
C 1517 3021 1306 2950 1094 2835 
L 1216 4192 
L 2982 4192 
L 2982 4691 
L 704 4691 
L 550 2502 
L 864 2304 
C 1133 2483 1331 2579 1645 2579 
C 2234 2579 2618 2182 2618 1510 
C 2618 826 2176 403 1619 403 
C 1075 403 730 653 467 922 
L 173 538 
C 493 224 941 -83 1677 -83 
z
" transform="scale(0.015625)"/>
     </defs>
     <use xlink:href="#SourceHanSansSC-Regular-30"/>
     <use xlink:href="#SourceHanSansSC-Regular-2e" transform="translate(55.499985 0)"/>
     <use xlink:href="#SourceHanSansSC-Regular-38" transform="translate(83.299973 0)"/>
     <use xlink:href="#SourceHanSansSC-Regular-35" transform="translate(138.799957 0)"/>
    </g>
   </g>
   <g id="text_26">
    <!-- 0.93 -->
    <g transform="translate(482.755093 85.904683) scale(0.09 -0.09)">
     <use xlink:href="#SourceHanSansSC-Regular-30"/>
     <use xlink:href="#SourceHanSansSC-Regular-2e" transform="translate(55.499985 0)"/>
     <use xlink:href="#SourceHanSansSC-Regular-39" transform="translate(83.299973 0)"/>
     <use xlink:href="#SourceHanSansSC-Regular-33" transform="translate(138.799957 0)"/>
    </g>
   </g>
   <g id="text_27">
    <!-- 0.79 -->
    <g transform="translate(652.184481 122.287763) scale(0.09 -0.09)">
     <use xlink:href="#SourceHanSansSC-Regular-30"/>
     <use xlink:href="#SourceHanSansSC-Regular-2e" transform="translate(55.499985 0)"/>
     <use xlink:href="#SourceHanSansSC-Regular-37" transform="translate(83.299973 0)"/>
     <use xlink:href="#SourceHanSansSC-Regular-39" transform="translate(138.799957 0)"/>
    </g>
   </g>
   <g id="text_28">
    <!-- 生成质量 -->
    <g transform="translate(521.715857 46.944) scale(0.12 -0.12)">
     <defs>
      <path id="SourceHanSansSC-Regular-751f" d="M 2016 5165 
L 1530 5274 
C 1286 4358 870 3469 346 2899 
C 467 2835 685 2694 774 2611 
C 1018 2899 1242 3264 1446 3667 
L 2963 3667 
L 2963 2253 
L 1056 2253 
L 1056 1792 
L 2963 1792 
L 2963 160 
L 352 160 
L 352 -307 
L 6074 -307 
L 6074 160 
L 3462 160 
L 3462 1792 
L 5536 1792 
L 5536 2253 
L 3462 2253 
L 3462 3667 
L 5766 3667 
L 5766 4134 
L 3462 4134 
L 3462 5376 
L 2963 5376 
L 2963 4134 
L 1658 4134 
C 1798 4461 1920 4813 2016 5165 
z
" transform="scale(0.015625)"/>
      <path id="SourceHanSansSC-Regular-6210" d="M 3981 5370 
L 3482 5370 
C 3482 5005 3494 4640 3514 4288 
L 819 4288 
L 819 2490 
C 819 1658 762 550 230 -237 
C 346 -294 550 -461 640 -557 
C 1222 282 1318 1581 1318 2483 
L 1318 2528 
L 2490 2528 
C 2464 1427 2432 1018 2349 922 
C 2298 864 2240 851 2144 851 
C 2035 851 1760 851 1466 883 
C 1542 762 1594 570 1600 435 
C 1914 416 2208 416 2374 429 
C 2547 448 2656 493 2758 614 
C 2893 787 2925 1331 2957 2771 
C 2963 2835 2963 2976 2963 2976 
L 1318 2976 
L 1318 3821 
L 3546 3821 
C 3622 2784 3776 1837 4019 1101 
C 3597 614 3104 218 2534 -83 
C 2637 -173 2810 -378 2880 -474 
C 3373 -186 3821 173 4205 589 
C 4499 -70 4890 -467 5382 -467 
C 5875 -467 6054 -154 6138 941 
C 6010 992 5830 1101 5722 1203 
C 5683 358 5606 19 5421 19 
C 5094 19 4800 390 4570 1018 
C 5043 1632 5414 2362 5690 3200 
L 5216 3322 
C 5011 2675 4736 2093 4390 1581 
C 4224 2202 4102 2963 4032 3821 
L 6086 3821 
L 6086 4288 
L 4006 4288 
C 3987 4640 3981 4998 3981 5370 
z
M 4582 5344 
L 4294 5056 
C 4698 4845 5197 4518 5440 4288 
L 5741 4621 
C 5491 4838 4986 5152 4582 5344 
z
" transform="scale(0.015625)"/>
     </defs>
     <use xlink:href="#SourceHanSansSC-Regular-751f"/>
     <use xlink:href="#SourceHanSansSC-Regular-6210" transform="translate(99.999985 0)"/>
     <use xlink:href="#SourceHanSansSC-Regular-8d28" transform="translate(199.999969 0)"/>
     <use xlink:href="#SourceHanSansSC-Regular-91cf" transform="translate(299.999954 0)"/>
    </g>
   </g>
  </g>
  <g id="axes_3">
   <g id="patch_22">
    <path d="M 742.791624 330.246234 
L 1191.576186 330.246234 
L 1191.576186 52.944 
L 742.791624 52.944 
z
" style="fill: #ffffff"/>
   </g>
   <g id="patch_23" style="display:none">
    <path d="M 763.190923 330.246234 
L 817.189065 330.246234 
L 817.189065 176.035381 
L 763.190923 176.035381 
z
" clip-path="url(#p0bef0869d9)" style="fill: #0e5a8a"/>
   </g>
   <g id="patch_24" style="display:none">
    <path d="M 913.185763 330.246234 
L 967.183905 330.246234 
L 967.183905 73.484906 
L 913.185763 73.484906 
z
" clip-path="url(#p0bef0869d9)" style="fill: #0e5a8a"/>
   </g>
   <g id="patch_25" style="display:none">
    <path d="M 1063.180603 330.246234 
L 1117.178746 330.246234 
L 1117.178746 330.246234 
L 1063.180603 330.246234 
z
" clip-path="url(#p0bef0869d9)" style="fill: #0e5a8a"/>
   </g>
   <g id="patch_26" style="display:none">
    <path d="M 817.189065 330.246234 
L 871.187208 330.246234 
L 871.187208 257.480074 
L 817.189065 257.480074 
z
" clip-path="url(#p0bef0869d9)" style="fill: #d9822b"/>
   </g>
   <g id="patch_27" style="display:none">
    <path d="M 967.183905 330.246234 
L 1021.182048 330.246234 
L 1021.182048 73.484906 
L 967.183905 73.484906 
z
" clip-path="url(#p0bef0869d9)" style="fill: #d9822b"/>
   </g>
   <g id="patch_28" style="display:none">
    <path d="M 1117.178746 330.246234 
L 1171.176888 330.246234 
L 1171.176888 330.246234 
L 1117.178746 330.246234 
z
" clip-path="url(#p0bef0869d9)" style="fill: #d9822b"/>
   </g>
   <g id="matplotlib.axis_5">
    <g id="xtick_5" style="display:none">
     <g id="line2d_29">
      <g>
       <use xlink:href="#md490a1e8aa" x="817.189065" y="330.246234" style="stroke: #000000; stroke-width: 0.8"/>
      </g>
     </g>
     <g id="text_29">
      <!-- 噪声鲁棒性 -->
      <g transform="translate(737.148455 367.667506) rotate(-16) scale(0.1 -0.1)">
       <defs>
        <path id="SourceHanSansSC-Regular-4e" d="M 646 0 
L 1203 0 
L 1203 2464 
C 1203 2957 1158 3456 1133 3930 
L 1158 3930 
C 1318 3610 1491 3277 1664 2957 
L 3373 0 
L 3981 0 
L 3981 4691 
L 3418 4691 
L 3418 2253 
C 3418 1766 3462 1235 3501 768 
L 3469 768 
C 3309 1088 3136 1421 2963 1734 
L 1248 4691 
L 646 4691 
L 646 0 
z
" transform="scale(0.015625)"/>
        <path id="SourceHanSansSC-Regular-62" d="M 2118 -83 
C 2912 -83 3629 602 3629 1792 
C 3629 2867 3142 3565 2246 3565 
C 1856 3565 1472 3347 1152 3078 
L 1178 3699 
L 1178 5094 
L 589 5094 
L 589 0 
L 1056 0 
L 1107 358 
L 1133 358 
C 1434 83 1798 -83 2118 -83 
z
M 2022 410 
C 1792 410 1478 499 1178 768 
L 1178 2598 
C 1504 2906 1811 3072 2099 3072 
C 2765 3072 3021 2560 3021 1786 
C 3021 928 2598 410 2022 410 
z
" transform="scale(0.015625)"/>
       </defs>
       <use xlink:href="#SourceHanSansSC-Regular-4e"/>
       <use xlink:href="#SourceHanSansSC-Regular-6f" transform="translate(72.299988 0)"/>
       <use xlink:href="#SourceHanSansSC-Regular-69" transform="translate(132.899979 0)"/>
       <use xlink:href="#SourceHanSansSC-Regular-73" transform="translate(160.399963 0)"/>
       <use xlink:href="#SourceHanSansSC-Regular-65" transform="translate(207.199951 0)"/>
       <use xlink:href="#SourceHanSansSC-Regular-20" transform="translate(262.599945 0)"/>
       <use xlink:href="#SourceHanSansSC-Regular-52" transform="translate(284.999939 0)"/>
       <use xlink:href="#SourceHanSansSC-Regular-6f" transform="translate(348.499924 0)"/>
       <use xlink:href="#SourceHanSansSC-Regular-62" transform="translate(409.099915 0)"/>
       <use xlink:href="#SourceHanSansSC-Regular-75" transform="translate(470.899902 0)"/>
       <use xlink:href="#SourceHanSansSC-Regular-73" transform="translate(531.599899 0)"/>
       <use xlink:href="#SourceHanSansSC-Regular-74" transform="translate(578.399887 0)"/>
       <use xlink:href="#SourceHanSansSC-Regular-6e" transform="translate(616.099884 0)"/>
       <use xlink:href="#SourceHanSansSC-Regular-65" transform="translate(677.099869 0)"/>
       <use xlink:href="#SourceHanSansSC-Regular-73" transform="translate(732.499863 0)"/>
       <use xlink:href="#SourceHanSansSC-Regular-73" transform="translate(779.29985 0)"/>
      </g>
     </g>
    </g>
    <g id="xtick_6" style="display:none">
     <g id="line2d_30">
      <g>
       <use xlink:href="#md490a1e8aa" x="967.183905" y="330.246234" style="stroke: #000000; stroke-width: 0.8"/>
      </g>
     </g>
     <g id="text_30">
      <!-- 负面拒绝 -->
      <g transform="translate(882.372398 368.817726) rotate(-16) scale(0.1 -0.1)">
       <defs>
        <path id="SourceHanSansSC-Regular-67" d="M 1760 -1600 
C 2835 -1600 3520 -1043 3520 -397 
C 3520 179 3110 429 2310 429 
L 1626 429 
C 1158 429 1018 589 1018 806 
C 1018 998 1114 1114 1242 1222 
C 1395 1146 1587 1101 1754 1101 
C 2470 1101 3027 1568 3027 2298 
C 3027 2618 2906 2848 2733 3002 
L 2733 3027 
L 3456 3027 
L 3456 3475 
L 2246 3475 
C 2125 3526 1952 3565 1754 3565 
C 1056 3565 454 3085 454 2323 
C 454 1907 678 1568 909 1389 
L 909 1363 
C 723 1235 525 1005 525 717 
C 525 442 659 256 838 147 
L 838 115 
C 512 -83 326 -371 326 -672 
C 326 -1267 915 -1600 1760 -1600 
z
M 1754 1498 
C 1357 1498 1018 1818 1018 2323 
C 1018 2835 1350 3136 1754 3136 
C 2170 3136 2496 2835 2496 2323 
C 2496 1818 2157 1498 1754 1498 
z
M 1843 -1197 
C 1210 -1197 838 -960 838 -589 
C 838 -390 941 -179 1190 0 
C 1344 -38 1510 -51 1638 -51 
L 2240 -51 
C 2701 -51 2944 -166 2944 -493 
C 2944 -851 2515 -1197 1843 -1197 
z
" transform="scale(0.015625)"/>
        <path id="SourceHanSansSC-Regular-6a" d="M 224 -1549 
C 915 -1549 1178 -1107 1178 -397 
L 1178 3475 
L 595 3475 
L 595 -397 
C 595 -819 512 -1082 166 -1082 
C 51 -1082 -77 -1050 -166 -1018 
L -282 -1453 
C -160 -1510 26 -1549 224 -1549 
z
M 883 4192 
C 1107 4192 1274 4346 1274 4582 
C 1274 4806 1107 4960 883 4960 
C 653 4960 493 4806 493 4582 
C 493 4346 653 4192 883 4192 
z
" transform="scale(0.015625)"/>
       </defs>
       <use xlink:href="#SourceHanSansSC-Regular-4e"/>
       <use xlink:href="#SourceHanSansSC-Regular-65" transform="translate(72.299988 0)"/>
       <use xlink:href="#SourceHanSansSC-Regular-67" transform="translate(127.699982 0)"/>
       <use xlink:href="#SourceHanSansSC-Regular-61" transform="translate(184.099976 0)"/>
       <use xlink:href="#SourceHanSansSC-Regular-74" transform="translate(240.399963 0)"/>
       <use xlink:href="#SourceHanSansSC-Regular-69" transform="translate(278.09996 0)"/>
       <use xlink:href="#SourceHanSansSC-Regular-76" transform="translate(305.599945 0)"/>
       <use xlink:href="#SourceHanSansSC-Regular-65" transform="translate(357.699936 0)"/>
       <use xlink:href="#SourceHanSansSC-Regular-20" transform="translate(413.09993 0)"/>
       <use xlink:href="#SourceHanSansSC-Regular-52" transform="translate(435.499924 0)"/>
       <use xlink:href="#SourceHanSansSC-Regular-65" transform="translate(498.999908 0)"/>
       <use xlink:href="#SourceHanSansSC-Regular-6a" transform="translate(554.399902 0)"/>
       <use xlink:href="#SourceHanSansSC-Regular-65" transform="translate(581.899887 0)"/>
       <use xlink:href="#SourceHanSansSC-Regular-63" transform="translate(637.299881 0)"/>
       <use xlink:href="#SourceHanSansSC-Regular-74" transform="translate(688.299866 0)"/>
       <use xlink:href="#SourceHanSansSC-Regular-69" transform="translate(725.999863 0)"/>
       <use xlink:href="#SourceHanSansSC-Regular-6f" transform="translate(753.499847 0)"/>
       <use xlink:href="#SourceHanSansSC-Regular-6e" transform="translate(814.099838 0)"/>
      </g>
     </g>
    </g>
    <g id="xtick_7" style="display:none">
     <g id="line2d_31">
      <g>
       <use xlink:href="#md490a1e8aa" x="1117.178746" y="330.246234" style="stroke: #000000; stroke-width: 0.8"/>
      </g>
     </g>
     <g id="text_31">
      <!-- hidden information integration -->
      <g transform="translate(1010.560115 375.398248) rotate(-16) scale(0.1 -0.1)">
       <use xlink:href="#SourceHanSansSC-Regular-49"/>
       <use xlink:href="#SourceHanSansSC-Regular-6e" transform="translate(29.299988 0)"/>
       <use xlink:href="#SourceHanSansSC-Regular-66" transform="translate(90.299973 0)"/>
       <use xlink:href="#SourceHanSansSC-Regular-6f" transform="translate(122.799957 0)"/>
       <use xlink:href="#SourceHanSansSC-Regular-72" transform="translate(183.399948 0)"/>
       <use xlink:href="#SourceHanSansSC-Regular-6d" transform="translate(222.199936 0)"/>
       <use xlink:href="#SourceHanSansSC-Regular-61" transform="translate(314.799927 0)"/>
       <use xlink:href="#SourceHanSansSC-Regular-74" transform="translate(371.099915 0)"/>
       <use xlink:href="#SourceHanSansSC-Regular-69" transform="translate(408.799911 0)"/>
       <use xlink:href="#SourceHanSansSC-Regular-6f" transform="translate(436.299896 0)"/>
       <use xlink:href="#SourceHanSansSC-Regular-6e" transform="translate(496.899887 0)"/>
       <use xlink:href="#SourceHanSansSC-Regular-20" transform="translate(557.899872 0)"/>
       <use xlink:href="#SourceHanSansSC-Regular-49" transform="translate(580.299866 0)"/>
       <use xlink:href="#SourceHanSansSC-Regular-6e" transform="translate(609.599854 0)"/>
       <use xlink:href="#SourceHanSansSC-Regular-74" transform="translate(670.599838 0)"/>
       <use xlink:href="#SourceHanSansSC-Regular-65" transform="translate(708.299835 0)"/>
       <use xlink:href="#SourceHanSansSC-Regular-67" transform="translate(763.699829 0)"/>
       <use xlink:href="#SourceHanSansSC-Regular-72" transform="translate(820.099823 0)"/>
       <use xlink:href="#SourceHanSansSC-Regular-61" transform="translate(858.899811 0)"/>
       <use xlink:href="#SourceHanSansSC-Regular-74" transform="translate(915.199799 0)"/>
       <use xlink:href="#SourceHanSansSC-Regular-69" transform="translate(952.899796 0)"/>
       <use xlink:href="#SourceHanSansSC-Regular-6f" transform="translate(980.39978 0)"/>
       <use xlink:href="#SourceHanSansSC-Regular-6e" transform="translate(1040.999771 0)"/>
      </g>
     </g>
    </g>
   </g>
   <g id="matplotlib.axis_6">
    <g id="ytick_13">
     <g id="line2d_32">
      <path d="M 742.791624 330.246234 
L 1191.576186 330.246234 
" clip-path="url(#p0bef0869d9)" style="fill: none; stroke-dasharray: 2.96,1.28; stroke-dashoffset: 0; stroke: #b0b0b0; stroke-opacity: 0.25; stroke-width: 0.8"/>
     </g>
     <g id="line2d_33">
      <g>
       <use xlink:href="#md47e82e7ff" x="742.791624" y="330.246234" style="stroke: #000000; stroke-width: 0.8"/>
      </g>
     </g>
     <g id="text_32">
      <!-- 0.0 -->
      <g transform="translate(721.911937 334.225922) scale(0.1 -0.1)">
       <use xlink:href="#SourceHanSansSC-Regular-30"/>
       <use xlink:href="#SourceHanSansSC-Regular-2e" transform="translate(55.499985 0)"/>
       <use xlink:href="#SourceHanSansSC-Regular-30" transform="translate(83.299973 0)"/>
      </g>
     </g>
    </g>
    <g id="ytick_14">
     <g id="line2d_34">
      <path d="M 742.791624 278.893969 
L 1191.576186 278.893969 
" clip-path="url(#p0bef0869d9)" style="fill: none; stroke-dasharray: 2.96,1.28; stroke-dashoffset: 0; stroke: #b0b0b0; stroke-opacity: 0.25; stroke-width: 0.8"/>
     </g>
     <g id="line2d_35">
      <g>
       <use xlink:href="#md47e82e7ff" x="742.791624" y="278.893969" style="stroke: #000000; stroke-width: 0.8"/>
      </g>
     </g>
     <g id="text_33">
      <!-- 0.2 -->
      <g transform="translate(721.911937 282.873656) scale(0.1 -0.1)">
       <use xlink:href="#SourceHanSansSC-Regular-30"/>
       <use xlink:href="#SourceHanSansSC-Regular-2e" transform="translate(55.499985 0)"/>
       <use xlink:href="#SourceHanSansSC-Regular-32" transform="translate(83.299973 0)"/>
      </g>
     </g>
    </g>
    <g id="ytick_15">
     <g id="line2d_36">
      <path d="M 742.791624 227.541703 
L 1191.576186 227.541703 
" clip-path="url(#p0bef0869d9)" style="fill: none; stroke-dasharray: 2.96,1.28; stroke-dashoffset: 0; stroke: #b0b0b0; stroke-opacity: 0.25; stroke-width: 0.8"/>
     </g>
     <g id="line2d_37">
      <g>
       <use xlink:href="#md47e82e7ff" x="742.791624" y="227.541703" style="stroke: #000000; stroke-width: 0.8"/>
      </g>
     </g>
     <g id="text_34">
      <!-- 0.4 -->
      <g transform="translate(721.911937 231.521391) scale(0.1 -0.1)">
       <use xlink:href="#SourceHanSansSC-Regular-30"/>
       <use xlink:href="#SourceHanSansSC-Regular-2e" transform="translate(55.499985 0)"/>
       <use xlink:href="#SourceHanSansSC-Regular-34" transform="translate(83.299973 0)"/>
      </g>
     </g>
    </g>
    <g id="ytick_16">
     <g id="line2d_38">
      <path d="M 742.791624 176.189437 
L 1191.576186 176.189437 
" clip-path="url(#p0bef0869d9)" style="fill: none; stroke-dasharray: 2.96,1.28; stroke-dashoffset: 0; stroke: #b0b0b0; stroke-opacity: 0.25; stroke-width: 0.8"/>
     </g>
     <g id="line2d_39">
      <g>
       <use xlink:href="#md47e82e7ff" x="742.791624" y="176.189437" style="stroke: #000000; stroke-width: 0.8"/>
      </g>
     </g>
     <g id="text_35">
      <!-- 0.6 -->
      <g transform="translate(721.911937 180.169125) scale(0.1 -0.1)">
       <use xlink:href="#SourceHanSansSC-Regular-30"/>
       <use xlink:href="#SourceHanSansSC-Regular-2e" transform="translate(55.499985 0)"/>
       <use xlink:href="#SourceHanSansSC-Regular-36" transform="translate(83.299973 0)"/>
      </g>
     </g>
    </g>
    <g id="ytick_17">
     <g id="line2d_40">
      <path d="M 742.791624 124.837172 
L 1191.576186 124.837172 
" clip-path="url(#p0bef0869d9)" style="fill: none; stroke-dasharray: 2.96,1.28; stroke-dashoffset: 0; stroke: #b0b0b0; stroke-opacity: 0.25; stroke-width: 0.8"/>
     </g>
     <g id="line2d_41">
      <g>
       <use xlink:href="#md47e82e7ff" x="742.791624" y="124.837172" style="stroke: #000000; stroke-width: 0.8"/>
      </g>
     </g>
     <g id="text_36">
      <!-- 0.8 -->
      <g transform="translate(721.911937 128.816859) scale(0.1 -0.1)">
       <use xlink:href="#SourceHanSansSC-Regular-30"/>
       <use xlink:href="#SourceHanSansSC-Regular-2e" transform="translate(55.499985 0)"/>
       <use xlink:href="#SourceHanSansSC-Regular-38" transform="translate(83.299973 0)"/>
      </g>
     </g>
    </g>
    <g id="ytick_18">
     <g id="line2d_42">
      <path d="M 742.791624 73.484906 
L 1191.576186 73.484906 
" clip-path="url(#p0bef0869d9)" style="fill: none; stroke-dasharray: 2.96,1.28; stroke-dashoffset: 0; stroke: #b0b0b0; stroke-opacity: 0.25; stroke-width: 0.8"/>
     </g>
     <g id="line2d_43">
      <g>
       <use xlink:href="#md47e82e7ff" x="742.791624" y="73.484906" style="stroke: #000000; stroke-width: 0.8"/>
      </g>
     </g>
     <g id="text_37">
      <!-- 1.0 -->
      <g transform="translate(721.911937 77.464594) scale(0.1 -0.1)">
       <use xlink:href="#SourceHanSansSC-Regular-31"/>
       <use xlink:href="#SourceHanSansSC-Regular-2e" transform="translate(55.499985 0)"/>
       <use xlink:href="#SourceHanSansSC-Regular-30" transform="translate(83.299973 0)"/>
      </g>
     </g>
    </g>
   </g>
   <g id="patch_29">
    <path d="M 742.791624 330.246234 
L 742.791624 52.944 
" style="fill: none; stroke: #000000; stroke-width: 0.8; stroke-linejoin: miter; stroke-linecap: square"/>
   </g>
   <g id="patch_30">
    <path d="M 1191.576186 330.246234 
L 1191.576186 52.944 
" style="fill: none; stroke: #000000; stroke-width: 0.8; stroke-linejoin: miter; stroke-linecap: square"/>
   </g>
   <g id="patch_31">
    <path d="M 742.791624 330.246234 
L 1191.576186 330.246234 
" style="fill: none; stroke: #000000; stroke-width: 0.8; stroke-linejoin: miter; stroke-linecap: square"/>
   </g>
   <g id="patch_32">
    <path d="M 742.791624 52.944 
L 1191.576186 52.944 
" style="fill: none; stroke: #000000; stroke-width: 0.8; stroke-linejoin: miter; stroke-linecap: square"/>
   </g>
   <g id="text_38" style="display:none">
    <!-- 0.60 -->
    <g transform="translate(781.446634 170.122398) scale(0.09 -0.09)">
     <use xlink:href="#SourceHanSansSC-Regular-30"/>
     <use xlink:href="#SourceHanSansSC-Regular-2e" transform="translate(55.499985 0)"/>
     <use xlink:href="#SourceHanSansSC-Regular-36" transform="translate(83.299973 0)"/>
     <use xlink:href="#SourceHanSansSC-Regular-30" transform="translate(138.799957 0)"/>
    </g>
   </g>
   <g id="text_39" style="display:none">
    <!-- 1.00 -->
    <g transform="translate(931.441475 67.571924) scale(0.09 -0.09)">
     <use xlink:href="#SourceHanSansSC-Regular-31"/>
     <use xlink:href="#SourceHanSansSC-Regular-2e" transform="translate(55.499985 0)"/>
     <use xlink:href="#SourceHanSansSC-Regular-30" transform="translate(83.299973 0)"/>
     <use xlink:href="#SourceHanSansSC-Regular-30" transform="translate(138.799957 0)"/>
    </g>
   </g>
   <g id="text_40" style="display:none">
    <!-- 0.00 -->
    <g transform="translate(1081.436315 324.333252) scale(0.09 -0.09)">
     <use xlink:href="#SourceHanSansSC-Regular-30"/>
     <use xlink:href="#SourceHanSansSC-Regular-2e" transform="translate(55.499985 0)"/>
     <use xlink:href="#SourceHanSansSC-Regular-30" transform="translate(83.299973 0)"/>
     <use xlink:href="#SourceHanSansSC-Regular-30" transform="translate(138.799957 0)"/>
    </g>
   </g>
   <g id="text_41" style="display:none">
    <!-- 0.28 -->
    <g transform="translate(835.444777 251.567091) scale(0.09 -0.09)">
     <use xlink:href="#SourceHanSansSC-Regular-30"/>
     <use xlink:href="#SourceHanSansSC-Regular-2e" transform="translate(55.499985 0)"/>
     <use xlink:href="#SourceHanSansSC-Regular-32" transform="translate(83.299973 0)"/>
     <use xlink:href="#SourceHanSansSC-Regular-38" transform="translate(138.799957 0)"/>
    </g>
   </g>
   <g id="text_42" style="display:none">
    <!-- 1.00 -->
    <g transform="translate(985.439617 67.571924) scale(0.09 -0.09)">
     <use xlink:href="#SourceHanSansSC-Regular-31"/>
     <use xlink:href="#SourceHanSansSC-Regular-2e" transform="translate(55.499985 0)"/>
     <use xlink:href="#SourceHanSansSC-Regular-30" transform="translate(83.299973 0)"/>
     <use xlink:href="#SourceHanSansSC-Regular-30" transform="translate(138.799957 0)"/>
    </g>
   </g>
   <g id="text_43" style="display:none">
    <!-- 0.00 -->
    <g transform="translate(1135.434457 324.333252) scale(0.09 -0.09)">
     <use xlink:href="#SourceHanSansSC-Regular-30"/>
     <use xlink:href="#SourceHanSansSC-Regular-2e" transform="translate(55.499985 0)"/>
     <use xlink:href="#SourceHanSansSC-Regular-30" transform="translate(83.299973 0)"/>
     <use xlink:href="#SourceHanSansSC-Regular-30" transform="translate(138.799957 0)"/>
    </g>
   </g>
   <g id="text_44">
    <!-- 端到端表现 -->
    <g transform="translate(937.183905 46.944) scale(0.12 -0.12)">
     <defs>
      <path id="SourceHanSansSC-Regular-7aef" d="M 2470 4173 
L 320 4173 
L 320 3725 
L 2470 3725 
L 2470 4173 
z
M 896 3411 
L 525 3354 
C 659 2630 781 1690 800 1062 
L 1190 1126 
C 1165 1754 1043 2688 896 3411 
z
M 1363 5312 
L 960 5184 
C 1120 4890 1312 4486 1382 4230 
L 1811 4378 
C 1728 4634 1542 5018 1363 5312 
z
M 5978 -70 
L 5978 2048 
L 4314 2048 
L 4506 2630 
L 6125 2630 
L 6125 3066 
L 2406 3066 
L 2406 2630 
L 3968 2630 
C 3936 2438 3891 2227 3846 2048 
L 2605 2048 
L 2605 -506 
L 3040 -506 
L 3040 1632 
L 3603 1632 
L 3603 -448 
L 3987 -448 
L 3987 1632 
L 4576 1632 
L 4576 -435 
L 4960 -435 
L 4960 1632 
L 5555 1632 
L 5555 -64 
C 5555 -122 5536 -141 5478 -141 
C 5427 -147 5267 -147 5088 -141 
C 5139 -250 5203 -410 5222 -525 
C 5510 -525 5683 -518 5818 -448 
C 5952 -384 5978 -275 5978 -70 
z
M 3130 5056 
L 2682 5056 
L 2682 3533 
L 5901 3533 
L 5901 5056 
L 5440 5056 
L 5440 3955 
L 4474 3955 
L 4474 5363 
L 4013 5363 
L 4013 3955 
L 3130 3955 
L 3130 5056 
z
M 2278 3398 
L 1856 3475 
C 1779 2701 1626 1574 1472 877 
C 1024 768 602 672 282 608 
L 390 128 
C 986 282 1766 480 2522 672 
L 2470 1120 
L 1850 966 
C 2003 1651 2163 2637 2278 3398 
z
" transform="scale(0.015625)"/>
      <path id="SourceHanSansSC-Regular-5230" d="M 4550 4826 
L 4102 4826 
L 4102 947 
L 4550 947 
L 4550 4826 
z
M 5837 237 
L 5837 5274 
L 5370 5274 
L 5370 237 
C 5370 128 5338 96 5229 96 
C 5120 90 4768 90 4390 102 
C 4467 -26 4544 -243 4570 -378 
C 5037 -378 5376 -365 5574 -282 
C 5766 -205 5837 -64 5837 237 
z
M 397 269 
L 499 -186 
C 1350 -26 2566 205 3706 429 
L 3680 851 
L 2336 602 
L 2336 1606 
L 3616 1606 
L 3616 2035 
L 2336 2035 
L 2336 2720 
L 1882 2720 
L 1882 2035 
L 621 2035 
L 621 1606 
L 1882 1606 
L 1882 518 
L 397 269 
z
M 2778 4320 
L 2426 4115 
C 2586 3923 2752 3693 2906 3475 
L 1267 3334 
C 1523 3680 1786 4109 2003 4531 
L 3744 4531 
L 3744 4954 
L 454 4954 
L 454 4531 
L 1472 4531 
C 1261 4077 1005 3674 909 3546 
C 800 3392 704 3283 602 3264 
C 659 3136 730 2912 762 2810 
C 915 2880 1152 2906 3155 3098 
C 3245 2950 3322 2816 3379 2701 
L 3744 2944 
C 3558 3309 3136 3891 2778 4320 
z
" transform="scale(0.015625)"/>
      <path id="SourceHanSansSC-Regular-8868" d="M 5811 1933 
L 5414 2214 
C 5133 1939 4685 1594 4301 1325 
C 4019 1658 3789 2042 3622 2464 
L 5978 2464 
L 5978 2880 
L 3430 2880 
L 3430 3450 
L 5491 3450 
L 5491 3846 
L 3430 3846 
L 3430 4390 
L 5773 4390 
L 5773 4806 
L 3430 4806 
L 3430 5376 
L 2944 5376 
L 2944 4806 
L 672 4806 
L 672 4390 
L 2944 4390 
L 2944 3846 
L 998 3846 
L 998 3450 
L 2944 3450 
L 2944 2880 
L 416 2880 
L 416 2464 
L 2541 2464 
C 1933 1920 1024 1427 230 1171 
C 333 1075 474 896 550 781 
C 909 909 1286 1088 1651 1299 
L 1651 352 
C 1651 96 1510 -13 1402 -70 
C 1478 -173 1581 -390 1613 -506 
C 1760 -410 1997 -326 3782 243 
C 3757 346 3718 531 3706 666 
L 2144 198 
L 2144 1606 
C 2528 1869 2874 2157 3149 2464 
C 3648 1120 4544 147 5869 -294 
C 5939 -166 6080 19 6189 122 
C 5555 307 5011 621 4570 1037 
C 4973 1286 5440 1619 5811 1933 
z
" transform="scale(0.015625)"/>
      <path id="SourceHanSansSC-Regular-73b0" d="M 5638 5062 
L 2765 5062 
L 2765 1658 
L 3226 1658 
L 3226 4640 
L 5165 4640 
L 5165 1658 
L 5638 1658 
L 5638 5062 
z
M 275 640 
L 384 173 
C 992 358 1805 602 2573 826 
L 2509 1274 
L 1670 1024 
L 1670 2643 
L 2342 2643 
L 2342 3091 
L 1670 3091 
L 1670 4493 
L 2470 4493 
L 2470 4941 
L 352 4941 
L 352 4493 
L 1210 4493 
L 1210 3091 
L 448 3091 
L 448 2643 
L 1210 2643 
L 1210 890 
C 858 794 538 704 275 640 
z
M 4397 2848 
L 4397 4096 
L 3949 4096 
L 3949 2861 
C 3949 1856 3744 646 2125 -186 
C 2221 -256 2374 -435 2426 -531 
C 3488 26 3994 787 4224 1555 
L 4224 205 
C 4224 -230 4390 -346 4838 -346 
L 5427 -346 
C 5978 -346 6054 -90 6112 922 
C 5990 947 5837 1018 5722 1114 
C 5690 198 5651 19 5427 19 
L 4902 19 
C 4723 19 4672 64 4672 250 
L 4672 1766 
L 4282 1766 
C 4371 2138 4397 2509 4397 2848 
z
" transform="scale(0.015625)"/>
     </defs>
     <use xlink:href="#SourceHanSansSC-Regular-7aef"/>
     <use xlink:href="#SourceHanSansSC-Regular-5230" transform="translate(99.999985 0)"/>
     <use xlink:href="#SourceHanSansSC-Regular-7aef" transform="translate(199.999969 0)"/>
     <use xlink:href="#SourceHanSansSC-Regular-8868" transform="translate(299.999954 0)"/>
     <use xlink:href="#SourceHanSansSC-Regular-73b0" transform="translate(399.999939 0)"/>
    </g>
   </g>
  </g>
  <g id="text_45" style="display:none">
   <!-- RAG vs LlamaIndex 在 CRUD-RAG 上的对比评测 -->
   <g transform="translate(408.134936 19.935) scale(0.16 -0.16)">
    <defs>
     <path id="SourceHanSansSC-Regular-5728" d="M 3002 5254 
L 2502 5376 
C 2413 5050 2298 4710 2163 4384 
L 403 4384 
L 403 3923 
L 1952 3923 
C 1542 3104 979 2342 250 1830 
C 326 1715 448 1517 499 1389 
C 768 1581 1011 1798 1235 2035 
L 1235 -486 
L 1715 -486 
L 1715 2605 
C 2016 3014 2278 3462 2490 3923 
L 6010 3923 
L 6010 4384 
L 2694 4384 
C 2810 4672 2912 4966 3002 5254 
z
M 4307 3590 
L 3827 3590 
L 3827 2355 
L 2387 2355 
L 2387 1907 
L 3827 1907 
L 3827 90 
L 2131 90 
L 2131 -358 
L 6003 -358 
L 6003 90 
L 4307 90 
L 4307 1907 
L 5760 1907 
L 5760 2355 
L 4307 2355 
L 4307 3590 
z
" transform="scale(0.015625)"/>
     <path id="SourceHanSansSC-Regular-55" d="M 2310 -83 
C 3264 -83 3994 422 3994 1914 
L 3994 4691 
L 3424 4691 
L 3424 1894 
C 3424 781 2931 435 2310 435 
C 1696 435 1216 781 1216 1894 
L 1216 4691 
L 627 4691 
L 627 1914 
C 627 422 1350 -83 2310 -83 
z
" transform="scale(0.015625)"/>
     <path id="SourceHanSansSC-Regular-44" d="M 646 0 
L 1843 0 
C 3258 0 4026 877 4026 2362 
C 4026 3859 3258 4691 1818 4691 
L 646 4691 
L 646 0 
z
M 1235 486 
L 1235 4211 
L 1766 4211 
C 2874 4211 3418 3552 3418 2362 
C 3418 1178 2874 486 1766 486 
L 1235 486 
z
" transform="scale(0.015625)"/>
     <path id="SourceHanSansSC-Regular-2d" d="M 294 1568 
L 1933 1568 
L 1933 2016 
L 294 2016 
L 294 1568 
z
" transform="scale(0.015625)"/>
     <path id="SourceHanSansSC-Regular-4e0a" d="M 3238 5280 
L 2733 5280 
L 2733 275 
L 326 275 
L 326 -205 
L 6080 -205 
L 6080 275 
L 3238 275 
L 3238 2822 
L 5638 2822 
L 5638 3302 
L 3238 3302 
L 3238 5280 
z
" transform="scale(0.015625)"/>
     <path id="SourceHanSansSC-Regular-5bf9" d="M 3603 2701 
L 3213 2522 
C 3514 2067 3802 1459 3904 1075 
L 4326 1286 
C 4224 1670 3910 2259 3603 2701 
z
M 922 3200 
L 582 2899 
C 973 2547 1389 2125 1760 1709 
C 1376 890 870 269 288 -115 
C 403 -205 550 -384 627 -499 
C 1216 -77 1715 512 2106 1299 
C 2394 941 2630 602 2784 314 
L 3168 666 
C 2982 998 2682 1395 2330 1798 
C 2624 2534 2835 3411 2944 4448 
L 2630 4538 
L 2547 4518 
L 448 4518 
L 448 4064 
L 2419 4064 
C 2323 3373 2170 2752 1965 2202 
C 1626 2554 1267 2899 922 3200 
z
M 5370 141 
L 5370 3373 
L 6138 3373 
L 6138 3834 
L 5370 3834 
L 5370 5376 
L 4896 5376 
L 4896 3834 
L 3085 3834 
L 3085 3373 
L 4896 3373 
L 4896 141 
C 4896 26 4851 -6 4742 -13 
C 4634 -13 4275 -19 3872 0 
C 3936 -147 4006 -371 4032 -506 
C 4576 -506 4902 -493 5094 -410 
C 5293 -326 5370 -179 5370 141 
z
" transform="scale(0.015625)"/>
     <path id="SourceHanSansSC-Regular-6bd4" d="M 2918 3398 
L 1331 3398 
L 1331 5306 
L 826 5306 
L 826 442 
C 826 166 672 19 563 -45 
C 646 -141 762 -346 800 -461 
C 947 -352 1184 -250 2938 320 
C 2912 435 2899 653 2906 806 
L 1331 320 
L 1331 2918 
L 2918 2918 
L 2918 3398 
z
M 3910 544 
L 3910 2413 
C 4621 2816 5382 3302 5939 3776 
L 5536 4198 
C 5146 3795 4525 3302 3910 2925 
L 3910 5344 
L 3418 5344 
L 3418 557 
C 3418 -154 3590 -346 4205 -346 
C 4326 -346 5062 -346 5190 -346 
C 5843 -346 5971 96 6029 1376 
C 5894 1414 5690 1504 5568 1600 
C 5523 416 5478 115 5158 115 
C 4992 115 4384 115 4256 115 
C 3968 115 3910 179 3910 544 
z
" transform="scale(0.015625)"/>
     <path id="SourceHanSansSC-Regular-8bc4" d="M 5760 4134 
L 5286 4250 
C 5203 3763 5011 3053 4858 2624 
L 5242 2515 
C 5408 2925 5600 3590 5760 4134 
z
M 2918 4237 
L 2509 4134 
C 2682 3629 2835 2976 2867 2541 
L 3302 2662 
C 3258 3085 3104 3738 2918 4237 
z
M 928 5165 
L 621 4877 
C 960 4570 1382 4147 1581 3872 
L 1901 4211 
C 1702 4474 1267 4883 928 5165 
z
M 5862 5050 
L 2291 5050 
L 2291 4595 
L 3859 4595 
L 3859 2234 
L 2112 2234 
L 2112 1773 
L 3859 1773 
L 3859 -506 
L 4346 -506 
L 4346 1773 
L 6150 1773 
L 6150 2234 
L 4346 2234 
L 4346 4595 
L 5862 4595 
L 5862 5050 
z
M 1101 -384 
C 1190 -256 1357 -128 2413 691 
C 2362 781 2278 960 2240 1094 
L 1613 621 
L 1613 3373 
L 1165 3366 
L 275 3366 
L 275 2906 
L 1165 2906 
L 1165 538 
C 1165 262 986 96 864 26 
C 947 -70 1056 -269 1101 -384 
z
" transform="scale(0.015625)"/>
     <path id="SourceHanSansSC-Regular-6d4b" d="M 3411 768 
L 3110 589 
C 3430 269 3814 -179 3994 -467 
L 4307 -243 
C 4122 26 3731 461 3411 768 
z
M 4154 5005 
L 1997 5005 
L 1997 986 
L 2374 986 
L 2374 4634 
L 3763 4634 
L 3763 1005 
L 4154 1005 
L 4154 5005 
z
M 5946 45 
L 5946 5293 
L 5549 5293 
L 5549 45 
C 5549 -51 5510 -83 5421 -83 
C 5331 -90 5030 -90 4691 -83 
C 4749 -198 4813 -384 4832 -486 
C 5280 -493 5555 -480 5722 -410 
C 5882 -339 5946 -218 5946 45 
z
M 5056 4800 
L 4672 4800 
L 4672 966 
L 5056 966 
L 5056 4800 
z
M 3226 1907 
L 3226 4179 
L 2854 4179 
L 2854 1914 
C 2854 1139 2726 339 1658 -205 
C 1728 -262 1850 -422 1888 -499 
C 3046 83 3226 1050 3226 1907 
z
M 806 5306 
L 518 4966 
C 877 4768 1338 4461 1555 4262 
L 1850 4653 
C 1619 4838 1152 5120 806 5306 
z
M 518 3584 
L 243 3238 
C 595 3040 1062 2752 1293 2560 
L 1581 2944 
C 1338 3130 864 3405 518 3584 
z
M 371 -173 
L 806 -429 
C 1075 160 1395 947 1626 1619 
L 1242 1869 
C 986 1152 627 320 371 -173 
z
" transform="scale(0.015625)"/>
    </defs>
    <use xlink:href="#SourceHanSansSC-Regular-4f60"/>
    <use xlink:href="#SourceHanSansSC-Regular-7684" transform="translate(99.999985 0)"/>
    <use xlink:href="#SourceHanSansSC-Regular-20" transform="translate(199.999969 0)"/>
    <use xlink:href="#SourceHanSansSC-Regular-52" transform="translate(222.399963 0)"/>
    <use xlink:href="#SourceHanSansSC-Regular-41" transform="translate(285.899948 0)"/>
    <use xlink:href="#SourceHanSansSC-Regular-47" transform="translate(346.699936 0)"/>
    <use xlink:href="#SourceHanSansSC-Regular-20" transform="translate(415.59993 0)"/>
    <use xlink:href="#SourceHanSansSC-Regular-76" transform="translate(437.999924 0)"/>
    <use xlink:href="#SourceHanSansSC-Regular-73" transform="translate(490.099915 0)"/>
    <use xlink:href="#SourceHanSansSC-Regular-20" transform="translate(536.899902 0)"/>
    <use xlink:href="#SourceHanSansSC-Regular-4c" transform="translate(559.299896 0)"/>
    <use xlink:href="#SourceHanSansSC-Regular-6c" transform="translate(613.599884 0)"/>
    <use xlink:href="#SourceHanSansSC-Regular-61" transform="translate(641.999878 0)"/>
    <use xlink:href="#SourceHanSansSC-Regular-6d" transform="translate(698.299866 0)"/>
    <use xlink:href="#SourceHanSansSC-Regular-61" transform="translate(790.899857 0)"/>
    <use xlink:href="#SourceHanSansSC-Regular-49" transform="translate(847.199844 0)"/>
    <use xlink:href="#SourceHanSansSC-Regular-6e" transform="translate(876.499832 0)"/>
    <use xlink:href="#SourceHanSansSC-Regular-64" transform="translate(937.499817 0)"/>
    <use xlink:href="#SourceHanSansSC-Regular-65" transform="translate(999.499802 0)"/>
    <use xlink:href="#SourceHanSansSC-Regular-78" transform="translate(1054.899796 0)"/>
    <use xlink:href="#SourceHanSansSC-Regular-20" transform="translate(1104.699783 0)"/>
    <use xlink:href="#SourceHanSansSC-Regular-5728" transform="translate(1127.099777 0)"/>
    <use xlink:href="#SourceHanSansSC-Regular-20" transform="translate(1227.099762 0)"/>
    <use xlink:href="#SourceHanSansSC-Regular-43" transform="translate(1249.499756 0)"/>
    <use xlink:href="#SourceHanSansSC-Regular-52" transform="translate(1313.299744 0)"/>
    <use xlink:href="#SourceHanSansSC-Regular-55" transform="translate(1376.799728 0)"/>
    <use xlink:href="#SourceHanSansSC-Regular-44" transform="translate(1448.899719 0)"/>
    <use xlink:href="#SourceHanSansSC-Regular-2d" transform="translate(1517.699707 0)"/>
    <use xlink:href="#SourceHanSansSC-Regular-52" transform="translate(1552.399704 0)"/>
    <use xlink:href="#SourceHanSansSC-Regular-41" transform="translate(1615.899689 0)"/>
    <use xlink:href="#SourceHanSansSC-Regular-47" transform="translate(1676.699677 0)"/>
    <use xlink:href="#SourceHanSansSC-Regular-20" transform="translate(1745.59967 0)"/>
    <use xlink:href="#SourceHanSansSC-Regular-4e0a" transform="translate(1767.999664 0)"/>
    <use xlink:href="#SourceHanSansSC-Regular-7684" transform="translate(1867.999649 0)"/>
    <use xlink:href="#SourceHanSansSC-Regular-5bf9" transform="translate(1967.999634 0)"/>
    <use xlink:href="#SourceHanSansSC-Regular-6bd4" transform="translate(2067.999619 0)"/>
    <use xlink:href="#SourceHanSansSC-Regular-8bc4" transform="translate(2167.999603 0)"/>
    <use xlink:href="#SourceHanSansSC-Regular-6d4b" transform="translate(2267.999588 0)"/>
   </g>
  </g>
 </g>
 <text x="103.645194" y="362.5" font-size="10" text-anchor="middle" font-family="Source Han Sans SC, sans-serif" fill="#000000">上下文精确率</text>
 <text x="273.074582" y="362.5" font-size="10" text-anchor="middle" font-family="Source Han Sans SC, sans-serif" fill="#000000">上下文召回率</text>
 <text x="461.001163" y="362.5" font-size="10" text-anchor="middle" font-family="Source Han Sans SC, sans-serif" fill="#000000">忠实度</text>
 <text x="630.43055" y="362.5" font-size="10" text-anchor="middle" font-family="Source Han Sans SC, sans-serif" fill="#000000">答案相关性</text>
 <text x="65.079688" y="69.903375" font-size="10" font-family="Source Han Sans SC, sans-serif" fill="#000000">RAG</text>
 <text x="408.134936" y="19.935" font-size="16" font-family="Source Han Sans SC, sans-serif" fill="#000000">RAG vs LlamaIndex 在 CRUD-RAG 上的对比评测</text>
 <rect x="832.386478" y="176.035381" width="60" height="154.210853" clip-path="url(#p0bef0869d9)" fill="#0e5a8a"/>
 <rect x="892.386478" y="257.480074" width="60" height="72.76616" clip-path="url(#p0bef0869d9)" fill="#d9822b"/>
 <rect x="981.981332" y="73.484906" width="60" height="256.761328" clip-path="url(#p0bef0869d9)" fill="#0e5a8a"/>
 <rect x="1041.981332" y="73.484906" width="60" height="256.761328" clip-path="url(#p0bef0869d9)" fill="#d9822b"/>
 <line x1="892.386478" y1="330.246234" x2="892.386478" y2="333.746234" stroke="#000000" stroke-width="0.8"/>
 <line x1="1041.981332" y1="330.246234" x2="1041.981332" y2="333.746234" stroke="#000000" stroke-width="0.8"/>
 <text x="862.386478" y="170.122398" font-size="9" text-anchor="middle" font-family="Source Han Sans SC, sans-serif" fill="#000000">0.60</text>
 <text x="922.386478" y="251.567091" font-size="9" text-anchor="middle" font-family="Source Han Sans SC, sans-serif" fill="#000000">0.28</text>
 <text x="1011.981332" y="67.571924" font-size="9" text-anchor="middle" font-family="Source Han Sans SC, sans-serif" fill="#000000">1.00</text>
 <text x="1071.981332" y="67.571924" font-size="9" text-anchor="middle" font-family="Source Han Sans SC, sans-serif" fill="#000000">1.00</text>
 <text x="892.386478" y="362.5" font-size="10" text-anchor="middle" font-family="Source Han Sans SC, sans-serif" fill="#000000">噪声鲁棒性</text>
 <text x="1041.981332" y="362.5" font-size="10" text-anchor="middle" font-family="Source Han Sans SC, sans-serif" fill="#000000">负面拒绝</text>
 <defs>
  <clipPath id="p64a79af317">
   <rect x="28.079688" y="52.944" width="320.560401" height="277.302234"/>
  </clipPath>
  <clipPath id="p23b445ae27">
   <rect x="385.435656" y="52.944" width="320.560401" height="277.302234"/>
  </clipPath>
  <clipPath id="p0bef0869d9">
   <rect x="742.791624" y="52.944" width="448.784562" height="277.302234"/>
  </clipPath>
 </defs>
</svg>
